<?xml version="1.0" standalone="yes"?>

<svg version="1.1" viewBox="0.0 0.0 960.0 540.0" fill="none" stroke="none" stroke-linecap="square" stroke-miterlimit="10" xmlns="http://www.w3.org/2000/svg" xmlns:xlink="http://www.w3.org/1999/xlink"><clipPath id="g7c1f0d3d4753062b_445.0"><path d="m0 0l960.0 0l0 540.0l-960.0 0l0 -540.0z" clip-rule="nonzero"></path></clipPath><g clip-path="url(#g7c1f0d3d4753062b_445.0)"><path fill="#ffffff" d="m0 0l960.0 0l0 540.0l-960.0 0z" fill-rule="evenodd"></path><path fill="#000000" fill-opacity="0.0" d="m32.72441 25.66929l504.62988 0l0 65.480316l-504.62988 0z" fill-rule="evenodd"></path><path fill="#eeeeee" d="m105.35887 233.24359l0 0c0 -3.5185852 2.9462585 -6.3709564 6.580658 -6.3709564l0 0c1.7453003 0 3.4191132 0.67123413 4.6532288 1.8660126c1.2341156 1.1947937 1.9274292 2.8152618 1.9274292 4.504944l0 0c0 3.5185852 -2.9462585 6.3709564 -6.580658 6.3709564l0 0c-3.6343994 0 -6.580658 -2.8523712 -6.580658 -6.3709564z" fill-rule="evenodd"></path><path stroke="#595959" stroke-width="1.0" stroke-linejoin="round" stroke-linecap="butt" d="m105.35887 233.24359l0 0c0 -3.5185852 2.9462585 -6.3709564 6.580658 -6.3709564l0 0c1.7453003 0 3.4191132 0.67123413 4.6532288 1.8660126c1.2341156 1.1947937 1.9274292 2.8152618 1.9274292 4.504944l0 0c0 3.5185852 -2.9462585 6.3709564 -6.580658 6.3709564l0 0c-3.6343994 0 -6.580658 -2.8523712 -6.580658 -6.3709564z" fill-rule="evenodd"></path><path fill="#eeeeee" d="m105.35887 258.46893l0 0c0 -3.5185852 2.9462585 -6.3709564 6.580658 -6.3709564l0 0c1.7453003 0 3.4191132 0.6712189 4.6532288 1.8660126c1.2341156 1.1947784 1.9274292 2.8152466 1.9274292 4.504944l0 0c0 3.5185852 -2.9462585 6.370941 -6.580658 6.370941l0 0c-3.6343994 0 -6.580658 -2.852356 -6.580658 -6.370941z" fill-rule="evenodd"></path><path stroke="#595959" stroke-width="1.0" stroke-linejoin="round" stroke-linecap="butt" d="m105.35887 258.46893l0 0c0 -3.5185852 2.9462585 -6.3709564 6.580658 -6.3709564l0 0c1.7453003 0 3.4191132 0.6712189 4.6532288 1.8660126c1.2341156 1.1947784 1.9274292 2.8152466 1.9274292 4.504944l0 0c0 3.5185852 -2.9462585 6.370941 -6.580658 6.370941l0 0c-3.6343994 0 -6.580658 -2.852356 -6.580658 -6.370941z" fill-rule="evenodd"></path><path fill="#eeeeee" d="m105.35887 283.69427l0 0c0 -3.5185852 2.9462585 -6.3709717 6.580658 -6.3709717l0 0c1.7453003 0 3.4191132 0.67123413 4.6532288 1.8660278c1.2341156 1.1947632 1.9274292 2.8152466 1.9274292 4.504944l0 0c0 3.5185852 -2.9462585 6.370941 -6.580658 6.370941l0 0c-3.6343994 0 -6.580658 -2.852356 -6.580658 -6.370941z" fill-rule="evenodd"></path><path stroke="#595959" stroke-width="1.0" stroke-linejoin="round" stroke-linecap="butt" d="m105.35887 283.69427l0 0c0 -3.5185852 2.9462585 -6.3709717 6.580658 -6.3709717l0 0c1.7453003 0 3.4191132 0.67123413 4.6532288 1.8660278c1.2341156 1.1947632 1.9274292 2.8152466 1.9274292 4.504944l0 0c0 3.5185852 -2.9462585 6.370941 -6.580658 6.370941l0 0c-3.6343994 0 -6.580658 -2.852356 -6.580658 -6.370941z" fill-rule="evenodd"></path><path fill="#eeeeee" d="m248.69313 195.40564l0 0c0 -3.5185852 2.9462738 -6.3709564 6.580673 -6.3709564l0 0c1.7453003 0 3.419098 0.6712189 4.6532288 1.8659973c1.2341003 1.1947937 1.9274292 2.815277 1.9274292 4.504959l0 0c0 3.51857 -2.9462585 6.3709564 -6.580658 6.3709564l0 0c-3.6343994 0 -6.580673 -2.8523865 -6.580673 -6.3709564z" fill-rule="evenodd"></path><path stroke="#595959" stroke-width="1.0" stroke-linejoin="round" stroke-linecap="butt" d="m248.69313 195.40564l0 0c0 -3.5185852 2.9462738 -6.3709564 6.580673 -6.3709564l0 0c1.7453003 0 3.419098 0.6712189 4.6532288 1.8659973c1.2341003 1.1947937 1.9274292 2.815277 1.9274292 4.504959l0 0c0 3.51857 -2.9462585 6.3709564 -6.580658 6.3709564l0 0c-3.6343994 0 -6.580673 -2.8523865 -6.580673 -6.3709564z" fill-rule="evenodd"></path><path fill="#eeeeee" d="m248.69313 220.63097l0 0c0 -3.5185852 2.9462738 -6.3709564 6.580673 -6.3709564l0 0c1.7453003 0 3.419098 0.6712189 4.6532288 1.8660126c1.2341003 1.1947784 1.9274292 2.8152618 1.9274292 4.504944l0 0c0 3.5185852 -2.9462585 6.3709564 -6.580658 6.3709564l0 0c-3.6343994 0 -6.580673 -2.8523712 -6.580673 -6.3709564z" fill-rule="evenodd"></path><path stroke="#595959" stroke-width="1.0" stroke-linejoin="round" stroke-linecap="butt" d="m248.69313 220.63097l0 0c0 -3.5185852 2.9462738 -6.3709564 6.580673 -6.3709564l0 0c1.7453003 0 3.419098 0.6712189 4.6532288 1.8660126c1.2341003 1.1947784 1.9274292 2.8152618 1.9274292 4.504944l0 0c0 3.5185852 -2.9462585 6.3709564 -6.580658 6.3709564l0 0c-3.6343994 0 -6.580673 -2.8523712 -6.580673 -6.3709564z" fill-rule="evenodd"></path><path fill="#eeeeee" d="m248.69313 245.85631l0 0c0 -3.5185852 2.9462738 -6.3709564 6.580673 -6.3709564l0 0c1.7453003 0 3.419098 0.6712189 4.6532288 1.8660126c1.2341003 1.1947784 1.9274292 2.8152618 1.9274292 4.504944l0 0c0 3.5185852 -2.9462585 6.3709564 -6.580658 6.3709564l0 0c-3.6343994 0 -6.580673 -2.8523712 -6.580673 -6.3709564z" fill-rule="evenodd"></path><path stroke="#595959" stroke-width="1.0" stroke-linejoin="round" stroke-linecap="butt" d="m248.69313 245.85631l0 0c0 -3.5185852 2.9462738 -6.3709564 6.580673 -6.3709564l0 0c1.7453003 0 3.419098 0.6712189 4.6532288 1.8660126c1.2341003 1.1947784 1.9274292 2.8152618 1.9274292 4.504944l0 0c0 3.5185852 -2.9462585 6.3709564 -6.580658 6.3709564l0 0c-3.6343994 0 -6.580673 -2.8523712 -6.580673 -6.3709564z" fill-rule="evenodd"></path><path fill="#eeeeee" d="m248.69313 271.08163l0 0c0 -3.5185852 2.9462738 -6.370941 6.580673 -6.370941l0 0c1.7453003 0 3.419098 0.6712036 4.6532288 1.8659973c1.2341003 1.1947937 1.9274292 2.815277 1.9274292 4.504944l0 0c0 3.5185852 -2.9462585 6.3709717 -6.580658 6.3709717l0 0c-3.6343994 0 -6.580673 -2.8523865 -6.580673 -6.3709717z" fill-rule="evenodd"></path><path stroke="#595959" stroke-width="1.0" stroke-linejoin="round" stroke-linecap="butt" d="m248.69313 271.08163l0 0c0 -3.5185852 2.9462738 -6.370941 6.580673 -6.370941l0 0c1.7453003 0 3.419098 0.6712036 4.6532288 1.8659973c1.2341003 1.1947937 1.9274292 2.815277 1.9274292 4.504944l0 0c0 3.5185852 -2.9462585 6.3709717 -6.580658 6.3709717l0 0c-3.6343994 0 -6.580673 -2.8523865 -6.580673 -6.3709717z" fill-rule="evenodd"></path><path fill="#eeeeee" d="m248.69313 296.30743l0 0c0 -3.5185852 2.9462738 -6.3709717 6.580673 -6.3709717l0 0c1.7453003 0 3.419098 0.67123413 4.6532288 1.8659973c1.2341003 1.1947937 1.9274292 2.815277 1.9274292 4.5049744l0 0c0 3.5185547 -2.9462585 6.370941 -6.580658 6.370941l0 0c-3.6343994 0 -6.580673 -2.8523865 -6.580673 -6.370941z" fill-rule="evenodd"></path><path stroke="#595959" stroke-width="1.0" stroke-linejoin="round" stroke-linecap="butt" d="m248.69313 296.30743l0 0c0 -3.5185852 2.9462738 -6.3709717 6.580673 -6.3709717l0 0c1.7453003 0 3.419098 0.67123413 4.6532288 1.8659973c1.2341003 1.1947937 1.9274292 2.815277 1.9274292 4.5049744l0 0c0 3.5185547 -2.9462585 6.370941 -6.580658 6.370941l0 0c-3.6343994 0 -6.580673 -2.8523865 -6.580673 -6.370941z" fill-rule="evenodd"></path><path fill="#eeeeee" d="m248.69313 321.5333l0 0c0 -3.5185852 2.9462738 -6.3709717 6.580673 -6.3709717l0 0c1.7453003 0 3.419098 0.67123413 4.6532288 1.8659973c1.2341003 1.1947937 1.9274292 2.815277 1.9274292 4.5049744l0 0c0 3.5185852 -2.9462585 6.370941 -6.580658 6.370941l0 0c-3.6343994 0 -6.580673 -2.852356 -6.580673 -6.370941z" fill-rule="evenodd"></path><path stroke="#595959" stroke-width="1.0" stroke-linejoin="round" stroke-linecap="butt" d="m248.69313 321.5333l0 0c0 -3.5185852 2.9462738 -6.3709717 6.580673 -6.3709717l0 0c1.7453003 0 3.419098 0.67123413 4.6532288 1.8659973c1.2341003 1.1947937 1.9274292 2.815277 1.9274292 4.5049744l0 0c0 3.5185852 -2.9462585 6.370941 -6.580658 6.370941l0 0c-3.6343994 0 -6.580673 -2.852356 -6.580673 -6.370941z" fill-rule="evenodd"></path><path fill="#eeeeee" d="m179.74907 210.45125l0 0c0 -3.5185852 2.9462585 -6.3709564 6.580658 -6.3709564l0 0c1.7453003 0 3.4191132 0.6712189 4.6532288 1.8660126c1.2341156 1.1947784 1.9274292 2.8152618 1.9274292 4.504944l0 0c0 3.5185852 -2.9462585 6.3709564 -6.580658 6.3709564l0 0c-3.6343994 0 -6.580658 -2.8523712 -6.580658 -6.3709564z" fill-rule="evenodd"></path><path stroke="#595959" stroke-width="1.0" stroke-linejoin="round" stroke-linecap="butt" d="m179.74907 210.45125l0 0c0 -3.5185852 2.9462585 -6.3709564 6.580658 -6.3709564l0 0c1.7453003 0 3.4191132 0.6712189 4.6532288 1.8660126c1.2341156 1.1947784 1.9274292 2.8152618 1.9274292 4.504944l0 0c0 3.5185852 -2.9462585 6.3709564 -6.580658 6.3709564l0 0c-3.6343994 0 -6.580658 -2.8523712 -6.580658 -6.3709564z" fill-rule="evenodd"></path><path fill="#eeeeee" d="m179.74907 235.67659l0 0c0 -3.5185852 2.9462585 -6.3709564 6.580658 -6.3709564l0 0c1.7453003 0 3.4191132 0.6712189 4.6532288 1.8659973c1.2341156 1.1947937 1.9274292 2.815277 1.9274292 4.504959l0 0c0 3.5185852 -2.9462585 6.3709564 -6.580658 6.3709564l0 0c-3.6343994 0 -6.580658 -2.8523712 -6.580658 -6.3709564z" fill-rule="evenodd"></path><path stroke="#595959" stroke-width="1.0" stroke-linejoin="round" stroke-linecap="butt" d="m179.74907 235.67659l0 0c0 -3.5185852 2.9462585 -6.3709564 6.580658 -6.3709564l0 0c1.7453003 0 3.4191132 0.6712189 4.6532288 1.8659973c1.2341156 1.1947937 1.9274292 2.815277 1.9274292 4.504959l0 0c0 3.5185852 -2.9462585 6.3709564 -6.580658 6.3709564l0 0c-3.6343994 0 -6.580658 -2.8523712 -6.580658 -6.3709564z" fill-rule="evenodd"></path><path fill="#eeeeee" d="m179.74907 258.3413l0 0c0 -3.5185852 2.9462585 -6.3709564 6.580658 -6.3709564l0 0c1.7453003 0 3.4191132 0.6712189 4.6532288 1.8660126c1.2341156 1.1947784 1.9274292 2.8152466 1.9274292 4.504944l0 0c0 3.5185852 -2.9462585 6.370941 -6.580658 6.370941l0 0c-3.6343994 0 -6.580658 -2.852356 -6.580658 -6.370941z" fill-rule="evenodd"></path><path stroke="#595959" stroke-width="1.0" stroke-linejoin="round" stroke-linecap="butt" d="m179.74907 258.3413l0 0c0 -3.5185852 2.9462585 -6.3709564 6.580658 -6.3709564l0 0c1.7453003 0 3.4191132 0.6712189 4.6532288 1.8660126c1.2341156 1.1947784 1.9274292 2.8152466 1.9274292 4.504944l0 0c0 3.5185852 -2.9462585 6.370941 -6.580658 6.370941l0 0c-3.6343994 0 -6.580658 -2.852356 -6.580658 -6.370941z" fill-rule="evenodd"></path><path fill="#eeeeee" d="m179.74907 283.56665l0 0c0 -3.5185852 2.9462585 -6.3709717 6.580658 -6.3709717l0 0c1.7453003 0 3.4191132 0.67123413 4.6532288 1.8660278c1.2341156 1.1947632 1.9274292 2.8152466 1.9274292 4.504944l0 0c0 3.5185852 -2.9462585 6.370941 -6.580658 6.370941l0 0c-3.6343994 0 -6.580658 -2.852356 -6.580658 -6.370941z" fill-rule="evenodd"></path><path stroke="#595959" stroke-width="1.0" stroke-linejoin="round" stroke-linecap="butt" d="m179.74907 283.56665l0 0c0 -3.5185852 2.9462585 -6.3709717 6.580658 -6.3709717l0 0c1.7453003 0 3.4191132 0.67123413 4.6532288 1.8660278c1.2341156 1.1947632 1.9274292 2.8152466 1.9274292 4.504944l0 0c0 3.5185852 -2.9462585 6.370941 -6.580658 6.370941l0 0c-3.6343994 0 -6.580658 -2.852356 -6.580658 -6.370941z" fill-rule="evenodd"></path><path fill="#eeeeee" d="m179.74907 308.792l0 0c0 -3.5185852 2.9462585 -6.3709717 6.580658 -6.3709717l0 0c1.7453003 0 3.4191132 0.67123413 4.6532288 1.8659973c1.2341156 1.1947937 1.9274292 2.815277 1.9274292 4.5049744l0 0c0 3.5185547 -2.9462585 6.370941 -6.580658 6.370941l0 0c-3.6343994 0 -6.580658 -2.8523865 -6.580658 -6.370941z" fill-rule="evenodd"></path><path stroke="#595959" stroke-width="1.0" stroke-linejoin="round" stroke-linecap="butt" d="m179.74907 308.792l0 0c0 -3.5185852 2.9462585 -6.3709717 6.580658 -6.3709717l0 0c1.7453003 0 3.4191132 0.67123413 4.6532288 1.8659973c1.2341156 1.1947937 1.9274292 2.815277 1.9274292 4.5049744l0 0c0 3.5185547 -2.9462585 6.370941 -6.580658 6.370941l0 0c-3.6343994 0 -6.580658 -2.8523865 -6.580658 -6.370941z" fill-rule="evenodd"></path><path fill="#000000" fill-opacity="0.0" d="m118.515976 233.25888l61.233093 -22.807632" fill-rule="evenodd"></path><path stroke="#999999" stroke-width="1.0" stroke-linejoin="round" stroke-linecap="butt" d="m118.515976 233.25888l61.233093 -22.807632" fill-rule="evenodd"></path><path fill="#000000" fill-opacity="0.0" d="m118.52019 233.24359l61.233093 2.4165802" fill-rule="evenodd"></path><path stroke="#999999" stroke-width="1.0" stroke-linejoin="round" stroke-linecap="butt" d="m118.52019 233.24359l61.233093 2.4165802" fill-rule="evenodd"></path><path fill="#000000" fill-opacity="0.0" d="m118.52019 233.24359l61.233093 25.10437" fill-rule="evenodd"></path><path stroke="#999999" stroke-width="1.0" stroke-linejoin="round" stroke-linecap="butt" d="m118.52019 233.24359l61.233093 25.10437" fill-rule="evenodd"></path><path fill="#000000" fill-opacity="0.0" d="m118.52019 233.24359l61.233093 50.328583" fill-rule="evenodd"></path><path stroke="#999999" stroke-width="1.0" stroke-linejoin="round" stroke-linecap="butt" d="m118.52019 233.24359l61.233093 50.328583" fill-rule="evenodd"></path><path fill="#000000" fill-opacity="0.0" d="m118.52019 233.24359l61.233093 75.552765" fill-rule="evenodd"></path><path stroke="#999999" stroke-width="1.0" stroke-linejoin="round" stroke-linecap="butt" d="m118.52019 233.24359l61.233093 75.552765" fill-rule="evenodd"></path><path fill="#000000" fill-opacity="0.0" d="m118.52019 258.46893l61.233093 -48.03183" fill-rule="evenodd"></path><path stroke="#999999" stroke-width="1.0" stroke-linejoin="round" stroke-linecap="butt" d="m118.52019 258.46893l61.233093 -48.03183" fill-rule="evenodd"></path><path fill="#000000" fill-opacity="0.0" d="m118.52019 258.46893l61.233093 -22.807632" fill-rule="evenodd"></path><path stroke="#999999" stroke-width="1.0" stroke-linejoin="round" stroke-linecap="butt" d="m118.52019 258.46893l61.233093 -22.807632" fill-rule="evenodd"></path><path fill="#000000" fill-opacity="0.0" d="m118.515976 258.46115l61.233093 -0.11984253" fill-rule="evenodd"></path><path stroke="#999999" stroke-width="1.0" stroke-linejoin="round" stroke-linecap="butt" d="m118.515976 258.46115l61.233093 -0.11984253" fill-rule="evenodd"></path><path fill="#000000" fill-opacity="0.0" d="m118.52019 258.46893l61.233093 25.10437" fill-rule="evenodd"></path><path stroke="#999999" stroke-width="1.0" stroke-linejoin="round" stroke-linecap="butt" d="m118.52019 258.46893l61.233093 25.10437" fill-rule="evenodd"></path><path fill="#000000" fill-opacity="0.0" d="m118.52019 258.46893l61.233093 50.328552" fill-rule="evenodd"></path><path stroke="#999999" stroke-width="1.0" stroke-linejoin="round" stroke-linecap="butt" d="m118.52019 258.46893l61.233093 50.328552" fill-rule="evenodd"></path><path fill="#000000" fill-opacity="0.0" d="m118.52019 283.69427l61.233093 -73.23607" fill-rule="evenodd"></path><path stroke="#999999" stroke-width="1.0" stroke-linejoin="round" stroke-linecap="butt" d="m118.52019 283.69427l61.233093 -73.23607" fill-rule="evenodd"></path><path fill="#000000" fill-opacity="0.0" d="m118.52019 283.69427l61.233093 -48.03183" fill-rule="evenodd"></path><path stroke="#999999" stroke-width="1.0" stroke-linejoin="round" stroke-linecap="butt" d="m118.52019 283.69427l61.233093 -48.03183" fill-rule="evenodd"></path><path fill="#000000" fill-opacity="0.0" d="m118.52019 283.69427l61.233093 -25.364014" fill-rule="evenodd"></path><path stroke="#999999" stroke-width="1.0" stroke-linejoin="round" stroke-linecap="butt" d="m118.52019 283.69427l61.233093 -25.364014" fill-rule="evenodd"></path><path fill="#000000" fill-opacity="0.0" d="m118.52019 283.69427l61.233093 -0.11984253" fill-rule="evenodd"></path><path stroke="#999999" stroke-width="1.0" stroke-linejoin="round" stroke-linecap="butt" d="m118.52019 283.69427l61.233093 -0.11984253" fill-rule="evenodd"></path><path fill="#000000" fill-opacity="0.0" d="m118.52019 283.69427l61.233093 25.10437" fill-rule="evenodd"></path><path stroke="#999999" stroke-width="1.0" stroke-linejoin="round" stroke-linecap="butt" d="m118.52019 283.69427l61.233093 25.10437" fill-rule="evenodd"></path><path fill="#000000" fill-opacity="0.0" d="m192.87236 210.46426l55.82077 -15.058624" fill-rule="evenodd"></path><path stroke="#999999" stroke-width="1.0" stroke-linejoin="round" stroke-linecap="butt" d="m192.87236 210.46426l55.82077 -15.058624" fill-rule="evenodd"></path><path fill="#000000" fill-opacity="0.0" d="m192.91039 210.45125l55.780823 10.165573" fill-rule="evenodd"></path><path stroke="#999999" stroke-width="1.0" stroke-linejoin="round" stroke-linecap="butt" d="m192.91039 210.45125l55.780823 10.165573" fill-rule="evenodd"></path><path fill="#000000" fill-opacity="0.0" d="m192.91039 210.45125l55.780823 35.409744" fill-rule="evenodd"></path><path stroke="#999999" stroke-width="1.0" stroke-linejoin="round" stroke-linecap="butt" d="m192.91039 210.45125l55.780823 35.409744" fill-rule="evenodd"></path><path fill="#000000" fill-opacity="0.0" d="m192.91039 210.45125l55.780823 60.633957" fill-rule="evenodd"></path><path stroke="#999999" stroke-width="1.0" stroke-linejoin="round" stroke-linecap="butt" d="m192.91039 210.45125l55.780823 60.633957" fill-rule="evenodd"></path><path fill="#000000" fill-opacity="0.0" d="m192.91039 210.45125l55.780823 85.85814" fill-rule="evenodd"></path><path stroke="#999999" stroke-width="1.0" stroke-linejoin="round" stroke-linecap="butt" d="m192.91039 210.45125l55.780823 85.85814" fill-rule="evenodd"></path><path fill="#000000" fill-opacity="0.0" d="m192.91039 210.45125l55.780823 111.08235" fill-rule="evenodd"></path><path stroke="#999999" stroke-width="1.0" stroke-linejoin="round" stroke-linecap="butt" d="m192.91039 210.45125l55.780823 111.08235" fill-rule="evenodd"></path><path fill="#000000" fill-opacity="0.0" d="m192.91039 235.67659l55.780823 -40.28282" fill-rule="evenodd"></path><path stroke="#999999" stroke-width="1.0" stroke-linejoin="round" stroke-linecap="butt" d="m192.91039 235.67659l55.780823 -40.28282" fill-rule="evenodd"></path><path fill="#000000" fill-opacity="0.0" d="m192.91039 235.67659l55.780823 -15.058624" fill-rule="evenodd"></path><path stroke="#999999" stroke-width="1.0" stroke-linejoin="round" stroke-linecap="butt" d="m192.91039 235.67659l55.780823 -15.058624" fill-rule="evenodd"></path><path fill="#000000" fill-opacity="0.0" d="m192.91039 235.67659l55.780823 10.165573" fill-rule="evenodd"></path><path stroke="#999999" stroke-width="1.0" stroke-linejoin="round" stroke-linecap="butt" d="m192.91039 235.67659l55.780823 10.165573" fill-rule="evenodd"></path><path fill="#000000" fill-opacity="0.0" d="m192.91039 235.67659l55.780823 35.409744" fill-rule="evenodd"></path><path stroke="#999999" stroke-width="1.0" stroke-linejoin="round" stroke-linecap="butt" d="m192.91039 235.67659l55.780823 35.409744" fill-rule="evenodd"></path><path fill="#000000" fill-opacity="0.0" d="m192.91039 235.67659l55.780823 60.633926" fill-rule="evenodd"></path><path stroke="#999999" stroke-width="1.0" stroke-linejoin="round" stroke-linecap="butt" d="m192.91039 235.67659l55.780823 60.633926" fill-rule="evenodd"></path><path fill="#000000" fill-opacity="0.0" d="m192.91039 235.67659l55.780823 85.85814" fill-rule="evenodd"></path><path stroke="#999999" stroke-width="1.0" stroke-linejoin="round" stroke-linecap="butt" d="m192.91039 235.67659l55.780823 85.85814" fill-rule="evenodd"></path><path fill="#000000" fill-opacity="0.0" d="m192.91039 258.3413l55.780823 -62.93068" fill-rule="evenodd"></path><path stroke="#999999" stroke-width="1.0" stroke-linejoin="round" stroke-linecap="butt" d="m192.91039 258.3413l55.780823 -62.93068" fill-rule="evenodd"></path><path fill="#000000" fill-opacity="0.0" d="m192.91039 258.3413l55.780823 -37.706482" fill-rule="evenodd"></path><path stroke="#999999" stroke-width="1.0" stroke-linejoin="round" stroke-linecap="butt" d="m192.91039 258.3413l55.780823 -37.706482" fill-rule="evenodd"></path><path fill="#000000" fill-opacity="0.0" d="m192.91039 258.3413l55.780823 -12.482285" fill-rule="evenodd"></path><path stroke="#999999" stroke-width="1.0" stroke-linejoin="round" stroke-linecap="butt" d="m192.91039 258.3413l55.780823 -12.482285" fill-rule="evenodd"></path><path fill="#000000" fill-opacity="0.0" d="m192.91039 258.3413l55.780823 37.946136" fill-rule="evenodd"></path><path stroke="#999999" stroke-width="1.0" stroke-linejoin="round" stroke-linecap="butt" d="m192.91039 258.3413l55.780823 37.946136" fill-rule="evenodd"></path><path fill="#000000" fill-opacity="0.0" d="m192.91039 258.3413l55.780823 12.761871" fill-rule="evenodd"></path><path stroke="#999999" stroke-width="1.0" stroke-linejoin="round" stroke-linecap="butt" d="m192.91039 258.3413l55.780823 12.761871" fill-rule="evenodd"></path><path fill="#000000" fill-opacity="0.0" d="m192.91039 258.3413l55.780823 63.190308" fill-rule="evenodd"></path><path stroke="#999999" stroke-width="1.0" stroke-linejoin="round" stroke-linecap="butt" d="m192.91039 258.3413l55.780823 63.190308" fill-rule="evenodd"></path><path fill="#000000" fill-opacity="0.0" d="m192.87236 283.60046l55.82077 -88.194824" fill-rule="evenodd"></path><path stroke="#999999" stroke-width="1.0" stroke-linejoin="round" stroke-linecap="butt" d="m192.87236 283.60046l55.82077 -88.194824" fill-rule="evenodd"></path><path fill="#000000" fill-opacity="0.0" d="m192.91039 308.792l55.780823 -113.37909" fill-rule="evenodd"></path><path stroke="#999999" stroke-width="1.0" stroke-linejoin="round" stroke-linecap="butt" d="m192.91039 308.792l55.780823 -113.37909" fill-rule="evenodd"></path><path fill="#000000" fill-opacity="0.0" d="m192.91039 283.56665l55.780823 -62.930695" fill-rule="evenodd"></path><path stroke="#999999" stroke-width="1.0" stroke-linejoin="round" stroke-linecap="butt" d="m192.91039 283.56665l55.780823 -62.930695" fill-rule="evenodd"></path><path fill="#000000" fill-opacity="0.0" d="m192.91039 308.792l55.780823 -88.15489" fill-rule="evenodd"></path><path stroke="#999999" stroke-width="1.0" stroke-linejoin="round" stroke-linecap="butt" d="m192.91039 308.792l55.780823 -88.15489" fill-rule="evenodd"></path><path fill="#000000" fill-opacity="0.0" d="m192.91039 283.56665l55.780823 -37.706497" fill-rule="evenodd"></path><path stroke="#999999" stroke-width="1.0" stroke-linejoin="round" stroke-linecap="butt" d="m192.91039 283.56665l55.780823 -37.706497" fill-rule="evenodd"></path><path fill="#000000" fill-opacity="0.0" d="m192.91039 308.792l55.780823 -62.930695" fill-rule="evenodd"></path><path stroke="#999999" stroke-width="1.0" stroke-linejoin="round" stroke-linecap="butt" d="m192.91039 308.792l55.780823 -62.930695" fill-rule="evenodd"></path><path fill="#000000" fill-opacity="0.0" d="m192.91039 283.56665l55.780823 -12.4823" fill-rule="evenodd"></path><path stroke="#999999" stroke-width="1.0" stroke-linejoin="round" stroke-linecap="butt" d="m192.91039 283.56665l55.780823 -12.4823" fill-rule="evenodd"></path><path fill="#000000" fill-opacity="0.0" d="m192.91039 283.56665l55.780823 12.761871" fill-rule="evenodd"></path><path stroke="#999999" stroke-width="1.0" stroke-linejoin="round" stroke-linecap="butt" d="m192.91039 283.56665l55.780823 12.761871" fill-rule="evenodd"></path><path fill="#000000" fill-opacity="0.0" d="m192.91039 283.56665l55.780823 37.946136" fill-rule="evenodd"></path><path stroke="#999999" stroke-width="1.0" stroke-linejoin="round" stroke-linecap="butt" d="m192.91039 283.56665l55.780823 37.946136" fill-rule="evenodd"></path><path fill="#000000" fill-opacity="0.0" d="m192.87236 308.78812l55.82077 -37.706482" fill-rule="evenodd"></path><path stroke="#999999" stroke-width="1.0" stroke-linejoin="round" stroke-linecap="butt" d="m192.87236 308.78812l55.82077 -37.706482" fill-rule="evenodd"></path><path fill="#000000" fill-opacity="0.0" d="m192.91039 308.792l55.780823 -12.4823" fill-rule="evenodd"></path><path stroke="#999999" stroke-width="1.0" stroke-linejoin="round" stroke-linecap="butt" d="m192.91039 308.792l55.780823 -12.4823" fill-rule="evenodd"></path><path fill="#000000" fill-opacity="0.0" d="m192.91039 308.792l55.780823 12.761871" fill-rule="evenodd"></path><path stroke="#999999" stroke-width="1.0" stroke-linejoin="round" stroke-linecap="butt" d="m192.91039 308.792l55.780823 12.761871" fill-rule="evenodd"></path><path fill="#000000" d="m44.194332 240.60864l15.61916 0l0 16.149323l-15.61916 0z" fill-rule="evenodd"></path><path stroke="#434343" stroke-width="1.0" stroke-linejoin="round" stroke-linecap="butt" d="m44.194332 240.60864l15.61916 0l0 16.149323l-15.61916 0z" fill-rule="evenodd"></path><path fill="#ffffff" d="m64.91113 240.60864l15.6191635 0l0 16.149323l-15.6191635 0z" fill-rule="evenodd"></path><path stroke="#434343" stroke-width="1.0" stroke-linejoin="round" stroke-linecap="butt" d="m64.91113 240.60864l15.6191635 0l0 16.149323l-15.6191635 0z" fill-rule="evenodd"></path><path fill="#ffffff" d="m44.194332 261.32544l15.61916 0l0 16.149323l-15.61916 0z" fill-rule="evenodd"></path><path stroke="#434343" stroke-width="1.0" stroke-linejoin="round" stroke-linecap="butt" d="m44.194332 261.32544l15.61916 0l0 16.149323l-15.61916 0z" fill-rule="evenodd"></path><path fill="#000000" d="m64.91113 261.32544l15.6191635 0l0 16.149323l-15.6191635 0z" fill-rule="evenodd"></path><path stroke="#434343" stroke-width="1.0" stroke-linejoin="round" stroke-linecap="butt" d="m64.91113 261.32544l15.6191635 0l0 16.149323l-15.6191635 0z" fill-rule="evenodd"></path><path fill="#000000" fill-opacity="0.0" d="m367.91132 149.03932l175.55908 0l0 67.55905l-175.55908 0z" fill-rule="evenodd"></path><path fill="#000000" d="m376.88007 175.95932l5.234375 -13.59375l1.9375 0l5.5625 13.59375l-2.046875 0l-1.59375 -4.125l-5.6875 0l-1.484375 4.125l-1.921875 0zm3.921875 -5.578125l4.609375 0l-1.40625 -3.78125q-0.65625 -1.703125 -0.96875 -2.8125q-0.265625 1.3125 -0.734375 2.59375l-1.5 4.0zm10.271698 -2.375l0 -1.90625l1.90625 0l0 1.90625l-1.90625 0zm0 7.953125l0 -1.90625l1.90625 0l0 1.90625l-1.90625 0zm10.100983 0l0 -13.59375l1.84375 0l7.140625 10.671875l0 -10.671875l1.71875 0l0 13.59375l-1.84375 0l-7.140625 -10.6875l0 10.6875l-1.71875 0zm20.019836 -3.171875l1.71875 0.21875q-0.40625 1.5 -1.515625 2.34375q-1.09375 0.828125 -2.8125 0.828125q-2.15625 0 -3.421875 -1.328125q-1.265625 -1.328125 -1.265625 -3.734375q0 -2.484375 1.265625 -3.859375q1.28125 -1.375 3.328125 -1.375q1.984375 0 3.234375 1.34375q1.25 1.34375 1.25 3.796875q0 0.140625 -0.015625 0.4375l-7.34375 0q0.09375 1.625 0.921875 2.484375q0.828125 0.859375 2.0625 0.859375q0.90625 0 1.546875 -0.46875q0.65625 -0.484375 1.046875 -1.546875zm-5.484375 -2.703125l5.5 0q-0.109375 -1.234375 -0.625 -1.859375q-0.796875 -0.96875 -2.078125 -0.96875q-1.140625 0 -1.9375 0.78125q-0.78125 0.765625 -0.859375 2.046875zm15.563202 5.875l0 -1.453125q-1.140625 1.671875 -3.125 1.671875q-0.859375 0 -1.625 -0.328125q-0.75 -0.34375 -1.125 -0.84375q-0.359375 -0.5 -0.515625 -1.234375q-0.09375 -0.5 -0.09375 -1.5625l0 -6.109375l1.671875 0l0 5.46875q0 1.3125 0.09375 1.765625q0.15625 0.65625 0.671875 1.03125q0.515625 0.375 1.265625 0.375q0.75 0 1.40625 -0.375q0.65625 -0.390625 0.921875 -1.046875q0.28125 -0.671875 0.28125 -1.9375l0 -5.28125l1.671875 0l0 9.859375l-1.5 0zm3.9069824 0l0 -9.859375l1.5 0l0 1.5q0.578125 -1.046875 1.0625 -1.375q0.484375 -0.34375 1.078125 -0.34375q0.84375 0 1.71875 0.546875l-0.578125 1.546875q-0.609375 -0.359375 -1.234375 -0.359375q-0.546875 0 -0.984375 0.328125q-0.421875 0.328125 -0.609375 0.90625q-0.28125 0.890625 -0.28125 1.953125l0 5.15625l-1.671875 0zm12.665802 -1.21875q-0.9375 0.796875 -1.796875 1.125q-0.859375 0.3125 -1.84375 0.3125q-1.609375 0 -2.484375 -0.78125q-0.875 -0.796875 -0.875 -2.03125q0 -0.734375 0.328125 -1.328125q0.328125 -0.59375 0.859375 -0.953125q0.53125 -0.359375 1.203125 -0.546875q0.5 -0.140625 1.484375 -0.25q2.03125 -0.25 2.984375 -0.578125q0 -0.34375 0 -0.4375q0 -1.015625 -0.46875 -1.4375q-0.640625 -0.5625 -1.90625 -0.5625q-1.171875 0 -1.734375 0.40625q-0.5625 0.40625 -0.828125 1.46875l-1.640625 -0.234375q0.234375 -1.046875 0.734375 -1.6875q0.515625 -0.640625 1.46875 -0.984375q0.96875 -0.359375 2.25 -0.359375q1.265625 0 2.046875 0.296875q0.78125 0.296875 1.15625 0.75q0.375 0.453125 0.515625 1.140625q0.09375 0.421875 0.09375 1.53125l0 2.234375q0 2.328125 0.09375 2.953125q0.109375 0.609375 0.4375 1.171875l-1.75 0q-0.265625 -0.515625 -0.328125 -1.21875zm-0.140625 -3.71875q-0.90625 0.359375 -2.734375 0.625q-1.03125 0.140625 -1.453125 0.328125q-0.421875 0.1875 -0.65625 0.546875q-0.234375 0.359375 -0.234375 0.796875q0 0.671875 0.5 1.125q0.515625 0.4375 1.484375 0.4375q0.96875 0 1.71875 -0.421875q0.75 -0.4375 1.109375 -1.15625q0.265625 -0.578125 0.265625 -1.671875l0 -0.609375zm4.047577 4.9375l0 -13.59375l1.671875 0l0 13.59375l-1.671875 0z" fill-rule="nonzero"></path><path fill="#000000" d="m378.16132 197.95932l0 -9.859375l1.5 0l0 1.40625q1.09375 -1.625 3.140625 -1.625q0.890625 0 1.640625 0.328125q0.75 0.3125 1.109375 0.84375q0.375 0.515625 0.53125 1.21875q0.09375 0.46875 0.09375 1.625l0 6.0625l-1.671875 0l0 -6.0q0 -1.015625 -0.203125 -1.515625q-0.1875 -0.515625 -0.6875 -0.8125q-0.5 -0.296875 -1.171875 -0.296875q-1.0625 0 -1.84375 0.671875q-0.765625 0.671875 -0.765625 2.578125l0 5.375l-1.671875 0zm17.125732 -3.171875l1.71875 0.21875q-0.40625 1.5 -1.515625 2.34375q-1.09375 0.828125 -2.8125 0.828125q-2.15625 0 -3.421875 -1.328125q-1.265625 -1.328125 -1.265625 -3.734375q0 -2.484375 1.265625 -3.859375q1.28125 -1.375 3.328125 -1.375q1.984375 0 3.234375 1.34375q1.25 1.34375 1.25 3.796875q0 0.140625 -0.015625 0.4375l-7.34375 0q0.09375 1.625 0.921875 2.484375q0.828125 0.859375 2.0625 0.859375q0.90625 0 1.546875 -0.46875q0.65625 -0.484375 1.046875 -1.546875zm-5.484375 -2.703125l5.5 0q-0.109375 -1.234375 -0.625 -1.859375q-0.796875 -0.96875 -2.078125 -0.96875q-1.140625 0 -1.9375 0.78125q-0.78125 0.765625 -0.859375 2.046875zm12.766327 4.375l0.234375 1.484375q-0.703125 0.140625 -1.265625 0.140625q-0.90625 0 -1.40625 -0.28125q-0.5 -0.296875 -0.703125 -0.75q-0.203125 -0.46875 -0.203125 -1.984375l0 -5.65625l-1.234375 0l0 -1.3125l1.234375 0l0 -2.4375l1.65625 -1.0l0 3.4375l1.6875 0l0 1.3125l-1.6875 0l0 5.75q0 0.71875 0.078125 0.921875q0.09375 0.203125 0.296875 0.328125q0.203125 0.125 0.578125 0.125q0.265625 0 0.734375 -0.078125zm3.355194 1.5l-3.015625 -9.859375l1.71875 0l1.5625 5.6875l0.59375 2.125q0.03125 -0.15625 0.5 -2.03125l1.578125 -5.78125l1.71875 0l1.46875 5.71875l0.484375 1.890625l0.578125 -1.90625l1.6875 -5.703125l1.625 0l-3.078125 9.859375l-1.734375 0l-1.578125 -5.90625l-0.375 -1.671875l-2.0 7.578125l-1.734375 0zm11.019806 -4.921875q0 -2.734375 1.53125 -4.0625q1.265625 -1.09375 3.09375 -1.09375q2.03125 0 3.3125 1.34375q1.296875 1.328125 1.296875 3.671875q0 1.90625 -0.578125 3.0q-0.5625 1.078125 -1.65625 1.6875q-1.078125 0.59375 -2.375 0.59375q-2.0625 0 -3.34375 -1.328125q-1.28125 -1.328125 -1.28125 -3.8125zm1.71875 0q0 1.890625 0.828125 2.828125q0.828125 0.9375 2.078125 0.9375q1.25 0 2.0625 -0.9375q0.828125 -0.953125 0.828125 -2.890625q0 -1.828125 -0.828125 -2.765625q-0.828125 -0.9375 -2.0625 -0.9375q-1.25 0 -2.078125 0.9375q-0.828125 0.9375 -0.828125 2.828125zm9.266357 4.921875l0 -9.859375l1.5 0l0 1.5q0.578125 -1.046875 1.0625 -1.375q0.484375 -0.34375 1.078125 -0.34375q0.84375 0 1.71875 0.546875l-0.578125 1.546875q-0.609375 -0.359375 -1.234375 -0.359375q-0.546875 0 -0.984375 0.328125q-0.421875 0.328125 -0.609375 0.90625q-0.28125 0.890625 -0.28125 1.953125l0 5.15625l-1.671875 0zm6.243927 0l0 -13.59375l1.671875 0l0 7.75l3.953125 -4.015625l2.15625 0l-3.765625 3.65625l4.140625 6.203125l-2.0625 0l-3.25 -5.03125l-1.171875 1.125l0 3.90625l-1.671875 0zm9.21875 -11.796875l0 -1.9375l1.78125 0l0 1.53125q0 1.234375 -0.28125 1.78125q-0.40625 0.75 -1.25 1.140625l-0.40625 -0.671875q0.5 -0.203125 0.75 -0.640625q0.25 -0.4375 0.265625 -1.203125l-0.859375 0zm3.566681 8.859375l1.65625 -0.265625q0.140625 1.0 0.765625 1.53125q0.640625 0.515625 1.78125 0.515625q1.15625 0 1.703125 -0.46875q0.5625 -0.46875 0.5625 -1.09375q0 -0.5625 -0.484375 -0.890625q-0.34375 -0.21875 -1.703125 -0.5625q-1.84375 -0.46875 -2.5625 -0.796875q-0.703125 -0.34375 -1.078125 -0.9375q-0.359375 -0.609375 -0.359375 -1.328125q0 -0.65625 0.296875 -1.21875q0.3125 -0.5625 0.828125 -0.9375q0.390625 -0.28125 1.0625 -0.484375q0.671875 -0.203125 1.4375 -0.203125q1.171875 0 2.046875 0.34375q0.875 0.328125 1.28125 0.90625q0.421875 0.5625 0.578125 1.515625l-1.625 0.21875q-0.109375 -0.75 -0.65625 -1.171875q-0.53125 -0.4375 -1.5 -0.4375q-1.15625 0 -1.640625 0.390625q-0.484375 0.375 -0.484375 0.875q0 0.328125 0.203125 0.59375q0.203125 0.265625 0.640625 0.4375q0.25 0.09375 1.46875 0.4375q1.765625 0.46875 2.46875 0.765625q0.703125 0.296875 1.09375 0.875q0.40625 0.578125 0.40625 1.4375q0 0.828125 -0.484375 1.578125q-0.484375 0.734375 -1.40625 1.140625q-0.921875 0.390625 -2.078125 0.390625q-1.921875 0 -2.9375 -0.796875q-1.0 -0.796875 -1.28125 -2.359375zm14.886444 3.75l1.609375 0.25q0.109375 0.75 0.578125 1.09375q0.609375 0.453125 1.6875 0.453125q1.171875 0 1.796875 -0.46875q0.625 -0.453125 0.859375 -1.28125q0.125 -0.515625 0.109375 -2.15625q-1.09375 1.296875 -2.71875 1.296875q-2.03125 0 -3.15625 -1.46875q-1.109375 -1.46875 -1.109375 -3.515625q0 -1.40625 0.515625 -2.59375q0.515625 -1.203125 1.484375 -1.84375q0.96875 -0.65625 2.265625 -0.65625q1.75 0 2.875 1.40625l0 -1.1875l1.546875 0l0 8.515625q0 2.3125 -0.46875 3.265625q-0.46875 0.96875 -1.484375 1.515625q-1.015625 0.5625 -2.5 0.5625q-1.765625 0 -2.859375 -0.796875q-1.078125 -0.796875 -1.03125 -2.390625zm1.375 -5.921875q0 1.953125 0.765625 2.84375q0.78125 0.890625 1.9375 0.890625q1.140625 0 1.921875 -0.890625q0.78125 -0.890625 0.78125 -2.78125q0 -1.8125 -0.8125 -2.71875q-0.796875 -0.921875 -1.921875 -0.921875q-1.109375 0 -1.890625 0.90625q-0.78125 0.890625 -0.78125 2.671875zm15.750702 5.109375l0 -1.453125q-1.140625 1.671875 -3.125 1.671875q-0.859375 0 -1.625 -0.328125q-0.75 -0.34375 -1.125 -0.84375q-0.359375 -0.5 -0.515625 -1.234375q-0.09375 -0.5 -0.09375 -1.5625l0 -6.109375l1.671875 0l0 5.46875q0 1.3125 0.09375 1.765625q0.15625 0.65625 0.671875 1.03125q0.515625 0.375 1.265625 0.375q0.75 0 1.40625 -0.375q0.65625 -0.390625 0.921875 -1.046875q0.28125 -0.671875 0.28125 -1.9375l0 -5.28125l1.671875 0l0 9.859375l-1.5 0zm10.672607 -3.171875l1.71875 0.21875q-0.40625 1.5 -1.515625 2.34375q-1.09375 0.828125 -2.8125 0.828125q-2.15625 0 -3.421875 -1.328125q-1.265625 -1.328125 -1.265625 -3.734375q0 -2.484375 1.265625 -3.859375q1.28125 -1.375 3.328125 -1.375q1.984375 0 3.234375 1.34375q1.25 1.34375 1.25 3.796875q0 0.140625 -0.015625 0.4375l-7.34375 0q0.09375 1.625 0.921875 2.484375q0.828125 0.859375 2.0625 0.859375q0.90625 0 1.546875 -0.46875q0.65625 -0.484375 1.046875 -1.546875zm-5.484375 -2.703125l5.5 0q-0.109375 -1.234375 -0.625 -1.859375q-0.796875 -0.96875 -2.078125 -0.96875q-1.140625 0 -1.9375 0.78125q-0.78125 0.765625 -0.859375 2.046875zm8.438202 2.9375l1.65625 -0.265625q0.140625 1.0 0.765625 1.53125q0.640625 0.515625 1.78125 0.515625q1.15625 0 1.703125 -0.46875q0.5625 -0.46875 0.5625 -1.09375q0 -0.5625 -0.484375 -0.890625q-0.34375 -0.21875 -1.703125 -0.5625q-1.84375 -0.46875 -2.5625 -0.796875q-0.703125 -0.34375 -1.078125 -0.9375q-0.359375 -0.609375 -0.359375 -1.328125q0 -0.65625 0.296875 -1.21875q0.3125 -0.5625 0.828125 -0.9375q0.390625 -0.28125 1.0625 -0.484375q0.671875 -0.203125 1.4375 -0.203125q1.171875 0 2.046875 0.34375q0.875 0.328125 1.28125 0.90625q0.421875 0.5625 0.578125 1.515625l-1.625 0.21875q-0.109375 -0.75 -0.65625 -1.171875q-0.53125 -0.4375 -1.5 -0.4375q-1.15625 0 -1.640625 0.390625q-0.484375 0.375 -0.484375 0.875q0 0.328125 0.203125 0.59375q0.203125 0.265625 0.640625 0.4375q0.25 0.09375 1.46875 0.4375q1.765625 0.46875 2.46875 0.765625q0.703125 0.296875 1.09375 0.875q0.40625 0.578125 0.40625 1.4375q0 0.828125 -0.484375 1.578125q-0.484375 0.734375 -1.40625 1.140625q-0.921875 0.390625 -2.078125 0.390625q-1.921875 0 -2.9375 -0.796875q-1.0 -0.796875 -1.28125 -2.359375zm9.328125 0l1.65625 -0.265625q0.140625 1.0 0.765625 1.53125q0.640625 0.515625 1.78125 0.515625q1.15625 0 1.703125 -0.46875q0.5625 -0.46875 0.5625 -1.09375q0 -0.5625 -0.484375 -0.890625q-0.34375 -0.21875 -1.703125 -0.5625q-1.84375 -0.46875 -2.5625 -0.796875q-0.703125 -0.34375 -1.078125 -0.9375q-0.359375 -0.609375 -0.359375 -1.328125q0 -0.65625 0.296875 -1.21875q0.3125 -0.5625 0.828125 -0.9375q0.390625 -0.28125 1.0625 -0.484375q0.671875 -0.203125 1.4375 -0.203125q1.171875 0 2.046875 0.34375q0.875 0.328125 1.28125 0.90625q0.421875 0.5625 0.578125 1.515625l-1.625 0.21875q-0.109375 -0.75 -0.65625 -1.171875q-0.53125 -0.4375 -1.5 -0.4375q-1.15625 0 -1.640625 0.390625q-0.484375 0.375 -0.484375 0.875q0 0.328125 0.203125 0.59375q0.203125 0.265625 0.640625 0.4375q0.25 0.09375 1.46875 0.4375q1.765625 0.46875 2.46875 0.765625q0.703125 0.296875 1.09375 0.875q0.40625 0.578125 0.40625 1.4375q0 0.828125 -0.484375 1.578125q-0.484375 0.734375 -1.40625 1.140625q-0.921875 0.390625 -2.078125 0.390625q-1.921875 0 -2.9375 -0.796875q-1.0 -0.796875 -1.28125 -2.359375z" fill-rule="nonzero"></path><path fill="#000000" d="m292.49347 416.28683l15.62204 0l0 16.15747l-15.62204 0z" fill-rule="evenodd"></path><path stroke="#666666" stroke-width="1.0" stroke-linejoin="round" stroke-linecap="butt" d="m292.49347 416.28683l15.62204 0l0 16.15747l-15.62204 0z" fill-rule="evenodd"></path><path fill="#efefef" d="m313.21027 416.28683l15.62204 0l0 16.15747l-15.62204 0z" fill-rule="evenodd"></path><path stroke="#666666" stroke-width="1.0" stroke-linejoin="round" stroke-linecap="butt" d="m313.21027 416.28683l15.62204 0l0 16.15747l-15.62204 0z" fill-rule="evenodd"></path><path fill="#f3f3f3" d="m292.49347 437.00363l15.62204 0l0 16.15747l-15.62204 0z" fill-rule="evenodd"></path><path stroke="#666666" stroke-width="1.0" stroke-linejoin="round" stroke-linecap="butt" d="m292.49347 437.00363l15.62204 0l0 16.15747l-15.62204 0z" fill-rule="evenodd"></path><path fill="#000000" d="m313.21027 437.00363l15.62204 0l0 16.15747l-15.62204 0z" fill-rule="evenodd"></path><path stroke="#666666" stroke-width="1.0" stroke-linejoin="round" stroke-linecap="butt" d="m313.21027 437.00363l15.62204 0l0 16.15747l-15.62204 0z" fill-rule="evenodd"></path><path fill="#f3f3f3" d="m333.92706 416.28683l15.62207 0l0 16.15747l-15.62207 0z" fill-rule="evenodd"></path><path stroke="#666666" stroke-width="1.0" stroke-linejoin="round" stroke-linecap="butt" d="m333.92706 416.28683l15.62207 0l0 16.15747l-15.62207 0z" fill-rule="evenodd"></path><path fill="#efefef" d="m354.64386 416.28683l15.62207 0l0 16.15747l-15.62207 0z" fill-rule="evenodd"></path><path stroke="#666666" stroke-width="1.0" stroke-linejoin="round" stroke-linecap="butt" d="m354.64386 416.28683l15.62207 0l0 16.15747l-15.62207 0z" fill-rule="evenodd"></path><path fill="#efefef" d="m333.92706 437.00363l15.62207 0l0 16.15747l-15.62207 0z" fill-rule="evenodd"></path><path stroke="#666666" stroke-width="1.0" stroke-linejoin="round" stroke-linecap="butt" d="m333.92706 437.00363l15.62207 0l0 16.15747l-15.62207 0z" fill-rule="evenodd"></path><path fill="#f3f3f3" d="m354.64386 437.00363l15.62207 0l0 16.15747l-15.62207 0z" fill-rule="evenodd"></path><path stroke="#666666" stroke-width="1.0" stroke-linejoin="round" stroke-linecap="butt" d="m354.64386 437.00363l15.62207 0l0 16.15747l-15.62207 0z" fill-rule="evenodd"></path><path fill="#efefef" d="m292.49347 457.72043l15.62204 0l0 16.15747l-15.62204 0z" fill-rule="evenodd"></path><path stroke="#666666" stroke-width="1.0" stroke-linejoin="round" stroke-linecap="butt" d="m292.49347 457.72043l15.62204 0l0 16.15747l-15.62204 0z" fill-rule="evenodd"></path><path fill="#f3f3f3" d="m313.21027 457.72043l15.62204 0l0 16.15747l-15.62204 0z" fill-rule="evenodd"></path><path stroke="#666666" stroke-width="1.0" stroke-linejoin="round" stroke-linecap="butt" d="m313.21027 457.72043l15.62204 0l0 16.15747l-15.62204 0z" fill-rule="evenodd"></path><path fill="#f3f3f3" d="m292.49347 478.43723l15.62204 0l0 16.15747l-15.62204 0z" fill-rule="evenodd"></path><path stroke="#666666" stroke-width="1.0" stroke-linejoin="round" stroke-linecap="butt" d="m292.49347 478.43723l15.62204 0l0 16.15747l-15.62204 0z" fill-rule="evenodd"></path><path fill="#f3f3f3" d="m313.21027 478.43723l15.62204 0l0 16.15747l-15.62204 0z" fill-rule="evenodd"></path><path stroke="#666666" stroke-width="1.0" stroke-linejoin="round" stroke-linecap="butt" d="m313.21027 478.43723l15.62204 0l0 16.15747l-15.62204 0z" fill-rule="evenodd"></path><path fill="#000000" d="m333.92706 457.72043l15.62207 0l0 16.15747l-15.62207 0z" fill-rule="evenodd"></path><path stroke="#666666" stroke-width="1.0" stroke-linejoin="round" stroke-linecap="butt" d="m333.92706 457.72043l15.62207 0l0 16.15747l-15.62207 0z" fill-rule="evenodd"></path><path fill="#f3f3f3" d="m354.64386 457.72043l15.62207 0l0 16.15747l-15.62207 0z" fill-rule="evenodd"></path><path stroke="#666666" stroke-width="1.0" stroke-linejoin="round" stroke-linecap="butt" d="m354.64386 457.72043l15.62207 0l0 16.15747l-15.62207 0z" fill-rule="evenodd"></path><path fill="#f3f3f3" d="m333.92706 478.43723l15.62207 0l0 16.15747l-15.62207 0z" fill-rule="evenodd"></path><path stroke="#666666" stroke-width="1.0" stroke-linejoin="round" stroke-linecap="butt" d="m333.92706 478.43723l15.62207 0l0 16.15747l-15.62207 0z" fill-rule="evenodd"></path><path fill="#000000" d="m354.64386 478.43723l15.62207 0l0 16.15747l-15.62207 0z" fill-rule="evenodd"></path><path stroke="#666666" stroke-width="1.0" stroke-linejoin="round" stroke-linecap="butt" d="m354.64386 478.43723l15.62207 0l0 16.15747l-15.62207 0z" fill-rule="evenodd"></path><path fill="#000000" fill-opacity="0.0" d="m375.36066 427.01352l175.55908 0l0 67.55905l-175.55908 0z" fill-rule="evenodd"></path><path fill="#000000" d="m385.75128 453.9335l0 -13.59375l5.109375 0q1.546875 0 2.484375 0.40625q0.953125 0.40625 1.484375 1.265625q0.53125 0.859375 0.53125 1.796875q0 0.875 -0.46875 1.65625q-0.46875 0.765625 -1.4375 1.234375q1.234375 0.359375 1.890625 1.234375q0.671875 0.875 0.671875 2.0625q0 0.953125 -0.40625 1.78125q-0.390625 0.8125 -0.984375 1.265625q-0.59375 0.4375 -1.5 0.671875q-0.890625 0.21875 -2.1875 0.21875l-5.1875 0zm1.796875 -7.890625l2.9375 0q1.203125 0 1.71875 -0.15625q0.6875 -0.203125 1.03125 -0.671875q0.359375 -0.46875 0.359375 -1.1875q0 -0.671875 -0.328125 -1.1875q-0.328125 -0.515625 -0.9375 -0.703125q-0.59375 -0.203125 -2.0625 -0.203125l-2.71875 0l0 4.109375zm0 6.28125l3.390625 0q0.875 0 1.21875 -0.0625q0.625 -0.109375 1.046875 -0.359375q0.421875 -0.265625 0.6875 -0.765625q0.265625 -0.5 0.265625 -1.140625q0 -0.765625 -0.390625 -1.328125q-0.390625 -0.5625 -1.078125 -0.78125q-0.6875 -0.234375 -1.984375 -0.234375l-3.15625 0l0 4.671875zm10.974823 -6.34375l0 -1.90625l1.90625 0l0 1.90625l-1.90625 0zm0 7.953125l0 -1.90625l1.90625 0l0 1.90625l-1.90625 0zm10.147858 0l0 -13.59375l6.03125 0q1.8125 0 2.75 0.359375q0.953125 0.359375 1.515625 1.296875q0.5625 0.921875 0.5625 2.046875q0 1.453125 -0.9375 2.453125q-0.921875 0.984375 -2.890625 1.25q0.71875 0.34375 1.09375 0.671875q0.78125 0.734375 1.484375 1.8125l2.375 3.703125l-2.265625 0l-1.796875 -2.828125q-0.796875 -1.21875 -1.3125 -1.875q-0.5 -0.65625 -0.90625 -0.90625q-0.40625 -0.265625 -0.8125 -0.359375q-0.3125 -0.078125 -1.015625 -0.078125l-2.078125 0l0 6.046875l-1.796875 0zm1.796875 -7.59375l3.859375 0q1.234375 0 1.921875 -0.25q0.703125 -0.265625 1.0625 -0.828125q0.375 -0.5625 0.375 -1.21875q0 -0.96875 -0.703125 -1.578125q-0.703125 -0.625 -2.21875 -0.625l-4.296875 0l0 4.5zm18.176086 4.421875l1.71875 0.21875q-0.40625 1.5 -1.515625 2.34375q-1.09375 0.828125 -2.8125 0.828125q-2.15625 0 -3.421875 -1.328125q-1.265625 -1.328125 -1.265625 -3.734375q0 -2.484375 1.265625 -3.859375q1.28125 -1.375 3.328125 -1.375q1.984375 0 3.234375 1.34375q1.25 1.34375 1.25 3.796875q0 0.140625 -0.015625 0.4375l-7.34375 0q0.09375 1.625 0.921875 2.484375q0.828125 0.859375 2.0625 0.859375q0.90625 0 1.546875 -0.46875q0.65625 -0.484375 1.046875 -1.546875zm-5.484375 -2.703125l5.5 0q-0.109375 -1.234375 -0.625 -1.859375q-0.796875 -0.96875 -2.078125 -0.96875q-1.140625 0 -1.9375 0.78125q-0.78125 0.765625 -0.859375 2.046875zm15.547577 4.65625q-0.9375 0.796875 -1.796875 1.125q-0.859375 0.3125 -1.84375 0.3125q-1.609375 0 -2.484375 -0.78125q-0.875 -0.796875 -0.875 -2.03125q0 -0.734375 0.328125 -1.328125q0.328125 -0.59375 0.859375 -0.953125q0.53125 -0.359375 1.203125 -0.546875q0.5 -0.140625 1.484375 -0.25q2.03125 -0.25 2.984375 -0.578125q0 -0.34375 0 -0.4375q0 -1.015625 -0.46875 -1.4375q-0.640625 -0.5625 -1.90625 -0.5625q-1.171875 0 -1.734375 0.40625q-0.5625 0.40625 -0.828125 1.46875l-1.640625 -0.234375q0.234375 -1.046875 0.734375 -1.6875q0.515625 -0.640625 1.46875 -0.984375q0.96875 -0.359375 2.25 -0.359375q1.265625 0 2.046875 0.296875q0.78125 0.296875 1.15625 0.75q0.375 0.453125 0.515625 1.140625q0.09375 0.421875 0.09375 1.53125l0 2.234375q0 2.328125 0.09375 2.953125q0.109375 0.609375 0.4375 1.171875l-1.75 0q-0.265625 -0.515625 -0.328125 -1.21875zm-0.140625 -3.71875q-0.90625 0.359375 -2.734375 0.625q-1.03125 0.140625 -1.453125 0.328125q-0.421875 0.1875 -0.65625 0.546875q-0.234375 0.359375 -0.234375 0.796875q0 0.671875 0.5 1.125q0.515625 0.4375 1.484375 0.4375q0.96875 0 1.71875 -0.421875q0.75 -0.4375 1.109375 -1.15625q0.265625 -0.578125 0.265625 -1.671875l0 -0.609375zm4.0476074 4.9375l0 -13.59375l1.671875 0l0 13.59375l-1.671875 0zm15.796875 -1.21875q-0.9375 0.796875 -1.796875 1.125q-0.859375 0.3125 -1.84375 0.3125q-1.609375 0 -2.484375 -0.78125q-0.875 -0.796875 -0.875 -2.03125q0 -0.734375 0.328125 -1.328125q0.328125 -0.59375 0.859375 -0.953125q0.53125 -0.359375 1.203125 -0.546875q0.5 -0.140625 1.484375 -0.25q2.03125 -0.25 2.984375 -0.578125q0 -0.34375 0 -0.4375q0 -1.015625 -0.46875 -1.4375q-0.640625 -0.5625 -1.90625 -0.5625q-1.171875 0 -1.734375 0.40625q-0.5625 0.40625 -0.828125 1.46875l-1.640625 -0.234375q0.234375 -1.046875 0.734375 -1.6875q0.515625 -0.640625 1.46875 -0.984375q0.96875 -0.359375 2.25 -0.359375q1.265625 0 2.046875 0.296875q0.78125 0.296875 1.15625 0.75q0.375 0.453125 0.515625 1.140625q0.09375 0.421875 0.09375 1.53125l0 2.234375q0 2.328125 0.09375 2.953125q0.109375 0.609375 0.4375 1.171875l-1.75 0q-0.265625 -0.515625 -0.328125 -1.21875zm-0.140625 -3.71875q-0.90625 0.359375 -2.734375 0.625q-1.03125 0.140625 -1.453125 0.328125q-0.421875 0.1875 -0.65625 0.546875q-0.234375 0.359375 -0.234375 0.796875q0 0.671875 0.5 1.125q0.515625 0.4375 1.484375 0.4375q0.96875 0 1.71875 -0.421875q0.75 -0.4375 1.109375 -1.15625q0.265625 -0.578125 0.265625 -1.671875l0 -0.609375zm4.078827 4.9375l0 -9.859375l1.5 0l0 1.40625q1.09375 -1.625 3.140625 -1.625q0.890625 0 1.640625 0.328125q0.75 0.3125 1.109375 0.84375q0.375 0.515625 0.53125 1.21875q0.09375 0.46875 0.09375 1.625l0 6.0625l-1.671875 0l0 -6.0q0 -1.015625 -0.203125 -1.515625q-0.1875 -0.515625 -0.6875 -0.8125q-0.5 -0.296875 -1.171875 -0.296875q-1.0625 0 -1.84375 0.671875q-0.765625 0.671875 -0.765625 2.578125l0 5.375l-1.671875 0zm9.703857 -2.9375l1.65625 -0.265625q0.140625 1.0 0.765625 1.53125q0.640625 0.515625 1.78125 0.515625q1.15625 0 1.703125 -0.46875q0.5625 -0.46875 0.5625 -1.09375q0 -0.5625 -0.484375 -0.890625q-0.34375 -0.21875 -1.703125 -0.5625q-1.84375 -0.46875 -2.5625 -0.796875q-0.703125 -0.34375 -1.078125 -0.9375q-0.359375 -0.609375 -0.359375 -1.328125q0 -0.65625 0.296875 -1.21875q0.3125 -0.5625 0.828125 -0.9375q0.390625 -0.28125 1.0625 -0.484375q0.671875 -0.203125 1.4375 -0.203125q1.171875 0 2.046875 0.34375q0.875 0.328125 1.28125 0.90625q0.421875 0.5625 0.578125 1.515625l-1.625 0.21875q-0.109375 -0.75 -0.65625 -1.171875q-0.53125 -0.4375 -1.5 -0.4375q-1.15625 0 -1.640625 0.390625q-0.484375 0.375 -0.484375 0.875q0 0.328125 0.203125 0.59375q0.203125 0.265625 0.640625 0.4375q0.25 0.09375 1.46875 0.4375q1.765625 0.46875 2.46875 0.765625q0.703125 0.296875 1.09375 0.875q0.40625 0.578125 0.40625 1.4375q0 0.828125 -0.484375 1.578125q-0.484375 0.734375 -1.40625 1.140625q-0.921875 0.390625 -2.078125 0.390625q-1.921875 0 -2.9375 -0.796875q-1.0 -0.796875 -1.28125 -2.359375zm11.828125 2.9375l-3.015625 -9.859375l1.71875 0l1.5625 5.6875l0.59375 2.125q0.03125 -0.15625 0.5 -2.03125l1.578125 -5.78125l1.71875 0l1.46875 5.71875l0.484375 1.890625l0.578125 -1.90625l1.6875 -5.703125l1.625 0l-3.078125 9.859375l-1.734375 0l-1.578125 -5.90625l-0.375 -1.671875l-2.0 7.578125l-1.734375 0zm18.394806 -3.171875l1.71875 0.21875q-0.40625 1.5 -1.515625 2.34375q-1.09375 0.828125 -2.8125 0.828125q-2.15625 0 -3.421875 -1.328125q-1.265625 -1.328125 -1.265625 -3.734375q0 -2.484375 1.265625 -3.859375q1.28125 -1.375 3.328125 -1.375q1.984375 0 3.234375 1.34375q1.25 1.34375 1.25 3.796875q0 0.140625 -0.015625 0.4375l-7.34375 0q0.09375 1.625 0.921875 2.484375q0.828125 0.859375 2.0625 0.859375q0.90625 0 1.546875 -0.46875q0.65625 -0.484375 1.046875 -1.546875zm-5.484375 -2.703125l5.5 0q-0.109375 -1.234375 -0.625 -1.859375q-0.796875 -0.96875 -2.078125 -0.96875q-1.140625 0 -1.9375 0.78125q-0.78125 0.765625 -0.859375 2.046875zm9.094482 5.875l0 -9.859375l1.5 0l0 1.5q0.578125 -1.046875 1.0625 -1.375q0.484375 -0.34375 1.078125 -0.34375q0.84375 0 1.71875 0.546875l-0.578125 1.546875q-0.609375 -0.359375 -1.234375 -0.359375q-0.546875 0 -0.984375 0.328125q-0.421875 0.328125 -0.609375 0.90625q-0.28125 0.890625 -0.28125 1.953125l0 5.15625l-1.671875 0z" fill-rule="nonzero"></path><path fill="#000000" fill-opacity="0.0" d="m493.907 227.39008l48.787384 30.015747" fill-rule="evenodd"></path><path stroke="#595959" stroke-width="1.0" stroke-linejoin="round" stroke-linecap="butt" d="m493.90698 227.39008l43.677124 26.87172" fill-rule="evenodd"></path><path fill="#595959" stroke="#595959" stroke-width="1.0" stroke-linecap="butt" d="m536.71857 255.6686l4.730713 0.97117615l-2.9996338 -3.78479z" fill-rule="evenodd"></path><path fill="#000000" fill-opacity="0.0" d="m507.07928 420.59738l35.590515 -36.346436" fill-rule="evenodd"></path><path stroke="#595959" stroke-width="1.0" stroke-linejoin="round" stroke-linecap="butt" d="m507.07928 420.5974l31.3927 -32.05948" fill-rule="evenodd"></path><path fill="#595959" stroke="#595959" stroke-width="1.0" stroke-linecap="butt" d="m539.65216 389.69354l1.994873 -4.3980713l-4.3552246 2.086853z" fill-rule="evenodd"></path><path fill="#666666" d="m297.58795 227.39182l15.62204 0l0 16.157486l-15.62204 0z" fill-rule="evenodd"></path><path stroke="#666666" stroke-width="1.0" stroke-linejoin="round" stroke-linecap="butt" d="m297.58795 227.39182l15.62204 0l0 16.157486l-15.62204 0z" fill-rule="evenodd"></path><path fill="#999999" d="m318.30475 227.39182l15.62207 0l0 16.157486l-15.62207 0z" fill-rule="evenodd"></path><path stroke="#666666" stroke-width="1.0" stroke-linejoin="round" stroke-linecap="butt" d="m318.30475 227.39182l15.62207 0l0 16.157486l-15.62207 0z" fill-rule="evenodd"></path><path fill="#999999" d="m297.58795 248.10861l15.62204 0l0 16.15747l-15.62204 0z" fill-rule="evenodd"></path><path stroke="#666666" stroke-width="1.0" stroke-linejoin="round" stroke-linecap="butt" d="m297.58795 248.10861l15.62204 0l0 16.15747l-15.62204 0z" fill-rule="evenodd"></path><path fill="#666666" d="m318.30475 248.10861l15.62207 0l0 16.15747l-15.62207 0z" fill-rule="evenodd"></path><path stroke="#666666" stroke-width="1.0" stroke-linejoin="round" stroke-linecap="butt" d="m318.30475 248.10861l15.62207 0l0 16.15747l-15.62207 0z" fill-rule="evenodd"></path><path fill="#f3f3f3" d="m339.02155 227.39182l15.62207 0l0 16.157486l-15.62207 0z" fill-rule="evenodd"></path><path stroke="#666666" stroke-width="1.0" stroke-linejoin="round" stroke-linecap="butt" d="m339.02155 227.39182l15.62207 0l0 16.157486l-15.62207 0z" fill-rule="evenodd"></path><path fill="#efefef" d="m359.73837 227.39182l15.62204 0l0 16.157486l-15.62204 0z" fill-rule="evenodd"></path><path stroke="#666666" stroke-width="1.0" stroke-linejoin="round" stroke-linecap="butt" d="m359.73837 227.39182l15.62204 0l0 16.157486l-15.62204 0z" fill-rule="evenodd"></path><path fill="#b7b7b7" d="m339.02155 248.10861l15.62207 0l0 16.15747l-15.62207 0z" fill-rule="evenodd"></path><path stroke="#666666" stroke-width="1.0" stroke-linejoin="round" stroke-linecap="butt" d="m339.02155 248.10861l15.62207 0l0 16.15747l-15.62207 0z" fill-rule="evenodd"></path><path fill="#f3f3f3" d="m359.73837 248.10861l15.62204 0l0 16.15747l-15.62204 0z" fill-rule="evenodd"></path><path stroke="#666666" stroke-width="1.0" stroke-linejoin="round" stroke-linecap="butt" d="m359.73837 248.10861l15.62204 0l0 16.15747l-15.62204 0z" fill-rule="evenodd"></path><path fill="#efefef" d="m297.58795 268.8254l15.62204 0l0 16.157501l-15.62204 0z" fill-rule="evenodd"></path><path stroke="#666666" stroke-width="1.0" stroke-linejoin="round" stroke-linecap="butt" d="m297.58795 268.8254l15.62204 0l0 16.157501l-15.62204 0z" fill-rule="evenodd"></path><path fill="#b7b7b7" d="m318.30475 268.8254l15.62207 0l0 16.157501l-15.62207 0z" fill-rule="evenodd"></path><path stroke="#666666" stroke-width="1.0" stroke-linejoin="round" stroke-linecap="butt" d="m318.30475 268.8254l15.62207 0l0 16.157501l-15.62207 0z" fill-rule="evenodd"></path><path fill="#f3f3f3" d="m297.58795 289.5422l15.62204 0l0 16.157501l-15.62204 0z" fill-rule="evenodd"></path><path stroke="#666666" stroke-width="1.0" stroke-linejoin="round" stroke-linecap="butt" d="m297.58795 289.5422l15.62204 0l0 16.157501l-15.62204 0z" fill-rule="evenodd"></path><path fill="#f3f3f3" d="m318.30475 289.5422l15.62207 0l0 16.157501l-15.62207 0z" fill-rule="evenodd"></path><path stroke="#666666" stroke-width="1.0" stroke-linejoin="round" stroke-linecap="butt" d="m318.30475 289.5422l15.62207 0l0 16.157501l-15.62207 0z" fill-rule="evenodd"></path><path fill="#666666" d="m339.02155 268.8254l15.62207 0l0 16.157501l-15.62207 0z" fill-rule="evenodd"></path><path stroke="#666666" stroke-width="1.0" stroke-linejoin="round" stroke-linecap="butt" d="m339.02155 268.8254l15.62207 0l0 16.157501l-15.62207 0z" fill-rule="evenodd"></path><path fill="#b7b7b7" d="m359.73837 268.8254l15.62204 0l0 16.157501l-15.62204 0z" fill-rule="evenodd"></path><path stroke="#666666" stroke-width="1.0" stroke-linejoin="round" stroke-linecap="butt" d="m359.73837 268.8254l15.62204 0l0 16.157501l-15.62204 0z" fill-rule="evenodd"></path><path fill="#cccccc" d="m339.02155 289.5422l15.62207 0l0 16.157501l-15.62207 0z" fill-rule="evenodd"></path><path stroke="#666666" stroke-width="1.0" stroke-linejoin="round" stroke-linecap="butt" d="m339.02155 289.5422l15.62207 0l0 16.157501l-15.62207 0z" fill-rule="evenodd"></path><path fill="#666666" d="m359.73837 289.5422l15.62204 0l0 16.157501l-15.62204 0z" fill-rule="evenodd"></path><path stroke="#666666" stroke-width="1.0" stroke-linejoin="round" stroke-linecap="butt" d="m359.73837 289.5422l15.62204 0l0 16.157501l-15.62204 0z" fill-rule="evenodd"></path><path fill="#e06666" d="m554.5486 277.4758l15.62207 0l0 16.157501l-15.62207 0z" fill-rule="evenodd"></path><path stroke="#666666" stroke-width="1.0" stroke-linejoin="round" stroke-linecap="butt" d="m554.5486 277.4758l15.62207 0l0 16.157501l-15.62207 0z" fill-rule="evenodd"></path><path fill="#f4cccc" d="m575.2654 277.4758l15.62207 0l0 16.157501l-15.62207 0z" fill-rule="evenodd"></path><path stroke="#666666" stroke-width="1.0" stroke-linejoin="round" stroke-linecap="butt" d="m575.2654 277.4758l15.62207 0l0 16.157501l-15.62207 0z" fill-rule="evenodd"></path><path fill="#f4cccc" d="m554.5486 298.1926l15.62207 0l0 16.157501l-15.62207 0z" fill-rule="evenodd"></path><path stroke="#666666" stroke-width="1.0" stroke-linejoin="round" stroke-linecap="butt" d="m554.5486 298.1926l15.62207 0l0 16.157501l-15.62207 0z" fill-rule="evenodd"></path><path fill="#ea9999" d="m575.2654 298.1926l15.62207 0l0 16.157501l-15.62207 0z" fill-rule="evenodd"></path><path stroke="#666666" stroke-width="1.0" stroke-linejoin="round" stroke-linecap="butt" d="m575.2654 298.1926l15.62207 0l0 16.157501l-15.62207 0z" fill-rule="evenodd"></path><path fill="#f3f3f3" d="m595.9822 277.4758l15.62207 0l0 16.157501l-15.62207 0z" fill-rule="evenodd"></path><path stroke="#666666" stroke-width="1.0" stroke-linejoin="round" stroke-linecap="butt" d="m595.9822 277.4758l15.62207 0l0 16.157501l-15.62207 0z" fill-rule="evenodd"></path><path fill="#efefef" d="m616.699 277.4758l15.62207 0l0 16.157501l-15.62207 0z" fill-rule="evenodd"></path><path stroke="#666666" stroke-width="1.0" stroke-linejoin="round" stroke-linecap="butt" d="m616.699 277.4758l15.62207 0l0 16.157501l-15.62207 0z" fill-rule="evenodd"></path><path fill="#f4cccc" d="m595.9822 298.1926l15.62207 0l0 16.157501l-15.62207 0z" fill-rule="evenodd"></path><path stroke="#666666" stroke-width="1.0" stroke-linejoin="round" stroke-linecap="butt" d="m595.9822 298.1926l15.62207 0l0 16.157501l-15.62207 0z" fill-rule="evenodd"></path><path fill="#f3f3f3" d="m616.699 298.1926l15.62207 0l0 16.157501l-15.62207 0z" fill-rule="evenodd"></path><path stroke="#666666" stroke-width="1.0" stroke-linejoin="round" stroke-linecap="butt" d="m616.699 298.1926l15.62207 0l0 16.157501l-15.62207 0z" fill-rule="evenodd"></path><path fill="#efefef" d="m554.5486 318.9094l15.62207 0l0 16.157501l-15.62207 0z" fill-rule="evenodd"></path><path stroke="#666666" stroke-width="1.0" stroke-linejoin="round" stroke-linecap="butt" d="m554.5486 318.9094l15.62207 0l0 16.157501l-15.62207 0z" fill-rule="evenodd"></path><path fill="#f4cccc" d="m575.2654 318.9094l15.62207 0l0 16.157501l-15.62207 0z" fill-rule="evenodd"></path><path stroke="#666666" stroke-width="1.0" stroke-linejoin="round" stroke-linecap="butt" d="m575.2654 318.9094l15.62207 0l0 16.157501l-15.62207 0z" fill-rule="evenodd"></path><path fill="#f3f3f3" d="m554.5486 339.62622l15.62207 0l0 16.15747l-15.62207 0z" fill-rule="evenodd"></path><path stroke="#666666" stroke-width="1.0" stroke-linejoin="round" stroke-linecap="butt" d="m554.5486 339.62622l15.62207 0l0 16.15747l-15.62207 0z" fill-rule="evenodd"></path><path fill="#f3f3f3" d="m575.2654 339.62622l15.62207 0l0 16.15747l-15.62207 0z" fill-rule="evenodd"></path><path stroke="#666666" stroke-width="1.0" stroke-linejoin="round" stroke-linecap="butt" d="m575.2654 339.62622l15.62207 0l0 16.15747l-15.62207 0z" fill-rule="evenodd"></path><path fill="#ea9999" d="m595.9822 318.9094l15.62207 0l0 16.157501l-15.62207 0z" fill-rule="evenodd"></path><path stroke="#666666" stroke-width="1.0" stroke-linejoin="round" stroke-linecap="butt" d="m595.9822 318.9094l15.62207 0l0 16.157501l-15.62207 0z" fill-rule="evenodd"></path><path fill="#f4cccc" d="m616.699 318.9094l15.62207 0l0 16.157501l-15.62207 0z" fill-rule="evenodd"></path><path stroke="#666666" stroke-width="1.0" stroke-linejoin="round" stroke-linecap="butt" d="m616.699 318.9094l15.62207 0l0 16.157501l-15.62207 0z" fill-rule="evenodd"></path><path fill="#f4cccc" d="m595.9822 339.62622l15.62207 0l0 16.15747l-15.62207 0z" fill-rule="evenodd"></path><path stroke="#666666" stroke-width="1.0" stroke-linejoin="round" stroke-linecap="butt" d="m595.9822 339.62622l15.62207 0l0 16.15747l-15.62207 0z" fill-rule="evenodd"></path><path fill="#e06666" d="m616.699 339.62622l15.62207 0l0 16.15747l-15.62207 0z" fill-rule="evenodd"></path><path stroke="#666666" stroke-width="1.0" stroke-linejoin="round" stroke-linecap="butt" d="m616.699 339.62622l15.62207 0l0 16.15747l-15.62207 0z" fill-rule="evenodd"></path><path fill="#000000" fill-opacity="0.0" d="m652.2913 227.39108l223.77954 0l0 49.858246l-223.77954 0z" fill-rule="evenodd"></path><path fill="#cc0000" d="m662.74445 254.31108l0 -13.484375l2.75 0l0 11.1875l6.828125 0l0 2.296875l-9.578125 0zm10.708496 -5.0625q0 -1.296875 0.640625 -2.515625q0.640625 -1.21875 1.8125 -1.859375q1.171875 -0.640625 2.609375 -0.640625q2.25 0 3.671875 1.453125q1.421875 1.453125 1.421875 3.671875q0 2.234375 -1.4375 3.703125q-1.4375 1.46875 -3.625 1.46875q-1.359375 0 -2.59375 -0.609375q-1.21875 -0.609375 -1.859375 -1.796875q-0.640625 -1.1875 -0.640625 -2.875zm2.671875 0.140625q0 1.46875 0.6875 2.25q0.703125 0.765625 1.71875 0.765625q1.015625 0 1.703125 -0.765625q0.703125 -0.78125 0.703125 -2.265625q0 -1.453125 -0.703125 -2.234375q-0.6875 -0.78125 -1.703125 -0.78125q-1.015625 0 -1.71875 0.78125q-0.6875 0.78125 -0.6875 2.25zm11.161621 4.921875l-3.125 -9.859375l2.53125 0l1.859375 6.46875l1.6875 -6.46875l2.515625 0l1.640625 6.46875l1.890625 -6.46875l2.5625 0l-3.15625 9.859375l-2.515625 0l-1.6875 -6.34375l-1.671875 6.34375l-2.53125 0zm18.370789 -3.140625l2.609375 0.4375q-0.5 1.4375 -1.59375 2.1875q-1.078125 0.734375 -2.703125 0.734375q-2.5625 0 -3.796875 -1.671875q-0.96875 -1.34375 -0.96875 -3.40625q0 -2.4375 1.265625 -3.828125q1.28125 -1.390625 3.25 -1.390625q2.1875 0 3.453125 1.453125q1.28125 1.453125 1.234375 4.453125l-6.53125 0q0.015625 1.15625 0.625 1.8125q0.609375 0.640625 1.5 0.640625q0.609375 0 1.03125 -0.328125q0.421875 -0.34375 0.625 -1.09375zm0.15625 -2.625q-0.03125 -1.140625 -0.59375 -1.71875q-0.546875 -0.59375 -1.34375 -0.59375q-0.859375 0 -1.40625 0.625q-0.5625 0.609375 -0.546875 1.6875l3.890625 0zm7.0163574 5.765625l-2.609375 0l0 -9.859375l2.421875 0l0 1.40625q0.625 -0.984375 1.109375 -1.296875q0.5 -0.328125 1.140625 -0.328125q0.890625 0 1.71875 0.5l-0.8125 2.265625q-0.65625 -0.421875 -1.21875 -0.421875q-0.546875 0 -0.9375 0.296875q-0.375 0.296875 -0.59375 1.09375q-0.21875 0.78125 -0.21875 3.296875l0 3.046875zm9.9435425 0l0 -13.59375l2.609375 0l0 13.59375l-2.609375 0zm4.5895996 -5.0625q0 -1.296875 0.640625 -2.515625q0.640625 -1.21875 1.8125 -1.859375q1.171875 -0.640625 2.609375 -0.640625q2.25 0 3.671875 1.453125q1.421875 1.453125 1.421875 3.671875q0 2.234375 -1.4375 3.703125q-1.4375 1.46875 -3.625 1.46875q-1.359375 0 -2.59375 -0.609375q-1.21875 -0.609375 -1.859375 -1.796875q-0.640625 -1.1875 -0.640625 -2.875zm2.671875 0.140625q0 1.46875 0.6875 2.25q0.703125 0.765625 1.71875 0.765625q1.015625 0 1.703125 -0.765625q0.703125 -0.78125 0.703125 -2.265625q0 -1.453125 -0.703125 -2.234375q-0.6875 -0.78125 -1.703125 -0.78125q-1.015625 0 -1.71875 0.78125q-0.6875 0.78125 -0.6875 2.25zm8.41156 2.109375l2.609375 -0.390625q0.171875 0.75 0.671875 1.15625q0.515625 0.390625 1.4375 0.390625q1.0 0 1.515625 -0.375q0.34375 -0.265625 0.34375 -0.703125q0 -0.296875 -0.1875 -0.484375q-0.1875 -0.1875 -0.875 -0.34375q-3.140625 -0.703125 -4.0 -1.265625q-1.15625 -0.796875 -1.15625 -2.21875q0 -1.28125 1.0 -2.15625q1.015625 -0.875 3.140625 -0.875q2.03125 0 3.0 0.65625q0.984375 0.65625 1.359375 1.953125l-2.453125 0.453125q-0.15625 -0.578125 -0.609375 -0.875q-0.4375 -0.3125 -1.25 -0.3125q-1.03125 0 -1.46875 0.296875q-0.296875 0.203125 -0.296875 0.515625q0 0.28125 0.25 0.484375q0.359375 0.25 2.4375 0.734375q2.078125 0.46875 2.90625 1.15625q0.828125 0.6875 0.828125 1.9375q0 1.359375 -1.140625 2.328125q-1.125 0.96875 -3.34375 0.96875q-2.015625 0 -3.1875 -0.8125q-1.171875 -0.8125 -1.53125 -2.21875zm10.375732 0l2.609375 -0.390625q0.171875 0.75 0.671875 1.15625q0.515625 0.390625 1.4375 0.390625q1.0 0 1.515625 -0.375q0.34375 -0.265625 0.34375 -0.703125q0 -0.296875 -0.1875 -0.484375q-0.1875 -0.1875 -0.875 -0.34375q-3.140625 -0.703125 -4.0 -1.265625q-1.15625 -0.796875 -1.15625 -2.21875q0 -1.28125 1.0 -2.15625q1.015625 -0.875 3.140625 -0.875q2.03125 0 3.0 0.65625q0.984375 0.65625 1.359375 1.953125l-2.453125 0.453125q-0.15625 -0.578125 -0.609375 -0.875q-0.4375 -0.3125 -1.25 -0.3125q-1.03125 0 -1.46875 0.296875q-0.296875 0.203125 -0.296875 0.515625q0 0.28125 0.25 0.484375q0.359375 0.25 2.4375 0.734375q2.078125 0.46875 2.90625 1.15625q0.828125 0.6875 0.828125 1.9375q0 1.359375 -1.140625 2.328125q-1.125 0.96875 -3.34375 0.96875q-2.015625 0 -3.1875 -0.8125q-1.171875 -0.8125 -1.53125 -2.21875z" fill-rule="nonzero"></path></g></svg>

