<?xml version="1.0" standalone="yes"?>

<svg version="1.1" viewBox="0.0 0.0 960.0 540.0" fill="none" stroke="none" stroke-linecap="square" stroke-miterlimit="10" xmlns="http://www.w3.org/2000/svg" xmlns:xlink="http://www.w3.org/1999/xlink"><clipPath id="g7c1f0d3d4753062b_123.0"><path d="m0 0l960.0 0l0 540.0l-960.0 0l0 -540.0z" clip-rule="nonzero"></path></clipPath><g clip-path="url(#g7c1f0d3d4753062b_123.0)"><path fill="#ffffff" d="m0 0l960.0 0l0 540.0l-960.0 0z" fill-rule="evenodd"></path><path fill="#eeeeee" d="m109.376526 168.11627l0 0c0 -3.7494202 3.1395493 -6.788925 7.0123825 -6.788925l0 0c1.8598022 0 3.643425 0.715271 4.9585037 1.9884338c1.3150787 1.2731781 2.0538788 2.9999542 2.0538788 4.8004913l0 0c0 3.7494202 -3.1395493 6.788925 -7.0123825 6.788925l0 0c-3.8728333 0 -7.0123825 -3.039505 -7.0123825 -6.788925z" fill-rule="evenodd"></path><path stroke="#595959" stroke-width="1.0" stroke-linejoin="round" stroke-linecap="butt" d="m109.376526 168.11627l0 0c0 -3.7494202 3.1395493 -6.788925 7.0123825 -6.788925l0 0c1.8598022 0 3.643425 0.715271 4.9585037 1.9884338c1.3150787 1.2731781 2.0538788 2.9999542 2.0538788 4.8004913l0 0c0 3.7494202 -3.1395493 6.788925 -7.0123825 6.788925l0 0c-3.8728333 0 -7.0123825 -3.039505 -7.0123825 -6.788925z" fill-rule="evenodd"></path><path fill="#eeeeee" d="m109.376526 194.99652l0 0c0 -3.7494202 3.1395493 -6.788925 7.0123825 -6.788925l0 0c1.8598022 0 3.643425 0.71525574 4.9585037 1.9884186c1.3150787 1.2731781 2.0538788 2.9999695 2.0538788 4.8005066l0 0c0 3.749405 -3.1395493 6.78891 -7.0123825 6.78891l0 0c-3.8728333 0 -7.0123825 -3.039505 -7.0123825 -6.78891z" fill-rule="evenodd"></path><path stroke="#595959" stroke-width="1.0" stroke-linejoin="round" stroke-linecap="butt" d="m109.376526 194.99652l0 0c0 -3.7494202 3.1395493 -6.788925 7.0123825 -6.788925l0 0c1.8598022 0 3.643425 0.71525574 4.9585037 1.9884186c1.3150787 1.2731781 2.0538788 2.9999695 2.0538788 4.8005066l0 0c0 3.749405 -3.1395493 6.78891 -7.0123825 6.78891l0 0c-3.8728333 0 -7.0123825 -3.039505 -7.0123825 -6.78891z" fill-rule="evenodd"></path><path fill="#eeeeee" d="m109.376526 221.87675l0 0c0 -3.7494202 3.1395493 -6.788925 7.0123825 -6.788925l0 0c1.8598022 0 3.643425 0.71525574 4.9585037 1.9884338c1.3150787 1.2731628 2.0538788 2.9999542 2.0538788 4.8004913l0 0c0 3.7494202 -3.1395493 6.788925 -7.0123825 6.788925l0 0c-3.8728333 0 -7.0123825 -3.039505 -7.0123825 -6.788925z" fill-rule="evenodd"></path><path stroke="#595959" stroke-width="1.0" stroke-linejoin="round" stroke-linecap="butt" d="m109.376526 221.87675l0 0c0 -3.7494202 3.1395493 -6.788925 7.0123825 -6.788925l0 0c1.8598022 0 3.643425 0.71525574 4.9585037 1.9884338c1.3150787 1.2731628 2.0538788 2.9999542 2.0538788 4.8004913l0 0c0 3.7494202 -3.1395493 6.788925 -7.0123825 6.788925l0 0c-3.8728333 0 -7.0123825 -3.039505 -7.0123825 -6.788925z" fill-rule="evenodd"></path><path fill="#eeeeee" d="m262.1142 127.79596l0 0c0 -3.7494125 3.139557 -6.7889175 7.01239 -6.7889175l0 0c1.8598022 0 3.6434326 0.71525574 4.958496 1.9884262c1.315094 1.2731705 2.053894 2.9999619 2.053894 4.8004913l0 0c0 3.7494202 -3.139557 6.788925 -7.01239 6.788925l0 0c-3.8728333 0 -7.01239 -3.039505 -7.01239 -6.788925z" fill-rule="evenodd"></path><path stroke="#595959" stroke-width="1.0" stroke-linejoin="round" stroke-linecap="butt" d="m262.1142 127.79596l0 0c0 -3.7494125 3.139557 -6.7889175 7.01239 -6.7889175l0 0c1.8598022 0 3.6434326 0.71525574 4.958496 1.9884262c1.315094 1.2731705 2.053894 2.9999619 2.053894 4.8004913l0 0c0 3.7494202 -3.139557 6.788925 -7.01239 6.788925l0 0c-3.8728333 0 -7.01239 -3.039505 -7.01239 -6.788925z" fill-rule="evenodd"></path><path fill="#eeeeee" d="m262.1142 154.67621l0 0c0 -3.7494202 3.139557 -6.788925 7.01239 -6.788925l0 0c1.8598022 0 3.6434326 0.71525574 4.958496 1.9884186c1.315094 1.2731781 2.053894 2.9999695 2.053894 4.8005066l0 0c0 3.749405 -3.139557 6.78891 -7.01239 6.78891l0 0c-3.8728333 0 -7.01239 -3.039505 -7.01239 -6.78891z" fill-rule="evenodd"></path><path stroke="#595959" stroke-width="1.0" stroke-linejoin="round" stroke-linecap="butt" d="m262.1142 154.67621l0 0c0 -3.7494202 3.139557 -6.788925 7.01239 -6.788925l0 0c1.8598022 0 3.6434326 0.71525574 4.958496 1.9884186c1.315094 1.2731781 2.053894 2.9999695 2.053894 4.8005066l0 0c0 3.749405 -3.139557 6.78891 -7.01239 6.78891l0 0c-3.8728333 0 -7.01239 -3.039505 -7.01239 -6.78891z" fill-rule="evenodd"></path><path fill="#eeeeee" d="m262.1142 181.55644l0 0c0 -3.7494202 3.139557 -6.788925 7.01239 -6.788925l0 0c1.8598022 0 3.6434326 0.71525574 4.958496 1.9884338c1.315094 1.2731628 2.053894 2.9999542 2.053894 4.8004913l0 0c0 3.7494202 -3.139557 6.788925 -7.01239 6.788925l0 0c-3.8728333 0 -7.01239 -3.039505 -7.01239 -6.788925z" fill-rule="evenodd"></path><path stroke="#595959" stroke-width="1.0" stroke-linejoin="round" stroke-linecap="butt" d="m262.1142 181.55644l0 0c0 -3.7494202 3.139557 -6.788925 7.01239 -6.788925l0 0c1.8598022 0 3.6434326 0.71525574 4.958496 1.9884338c1.315094 1.2731628 2.053894 2.9999542 2.053894 4.8004913l0 0c0 3.7494202 -3.139557 6.788925 -7.01239 6.788925l0 0c-3.8728333 0 -7.01239 -3.039505 -7.01239 -6.788925z" fill-rule="evenodd"></path><path fill="#eeeeee" d="m262.1142 208.43668l0 0c0 -3.7494202 3.139557 -6.788925 7.01239 -6.788925l0 0c1.8598022 0 3.6434326 0.71525574 4.958496 1.9884338c1.315094 1.2731628 2.053894 2.9999542 2.053894 4.8004913l0 0c0 3.7494202 -3.139557 6.788925 -7.01239 6.788925l0 0c-3.8728333 0 -7.01239 -3.039505 -7.01239 -6.788925z" fill-rule="evenodd"></path><path stroke="#595959" stroke-width="1.0" stroke-linejoin="round" stroke-linecap="butt" d="m262.1142 208.43668l0 0c0 -3.7494202 3.139557 -6.788925 7.01239 -6.788925l0 0c1.8598022 0 3.6434326 0.71525574 4.958496 1.9884338c1.315094 1.2731628 2.053894 2.9999542 2.053894 4.8004913l0 0c0 3.7494202 -3.139557 6.788925 -7.01239 6.788925l0 0c-3.8728333 0 -7.01239 -3.039505 -7.01239 -6.788925z" fill-rule="evenodd"></path><path fill="#eeeeee" d="m262.1142 235.31738l0 0c0 -3.749405 3.139557 -6.78891 7.01239 -6.78891l0 0c1.8598022 0 3.6434326 0.71525574 4.958496 1.9884186c1.315094 1.2731781 2.053894 2.9999695 2.053894 4.8004913l0 0c0 3.7494202 -3.139557 6.788925 -7.01239 6.788925l0 0c-3.8728333 0 -7.01239 -3.039505 -7.01239 -6.788925z" fill-rule="evenodd"></path><path stroke="#595959" stroke-width="1.0" stroke-linejoin="round" stroke-linecap="butt" d="m262.1142 235.31738l0 0c0 -3.749405 3.139557 -6.78891 7.01239 -6.78891l0 0c1.8598022 0 3.6434326 0.71525574 4.958496 1.9884186c1.315094 1.2731781 2.053894 2.9999695 2.053894 4.8004913l0 0c0 3.7494202 -3.139557 6.788925 -7.01239 6.788925l0 0c-3.8728333 0 -7.01239 -3.039505 -7.01239 -6.788925z" fill-rule="evenodd"></path><path fill="#eeeeee" d="m262.1142 262.19818l0 0c0 -3.7494202 3.139557 -6.78891 7.01239 -6.78891l0 0c1.8598022 0 3.6434326 0.715271 4.958496 1.9884338c1.315094 1.2731628 2.053894 2.999939 2.053894 4.800476l0 0c0 3.7494202 -3.139557 6.7889404 -7.01239 6.7889404l0 0c-3.8728333 0 -7.01239 -3.0395203 -7.01239 -6.7889404z" fill-rule="evenodd"></path><path stroke="#595959" stroke-width="1.0" stroke-linejoin="round" stroke-linecap="butt" d="m262.1142 262.19818l0 0c0 -3.7494202 3.139557 -6.78891 7.01239 -6.78891l0 0c1.8598022 0 3.6434326 0.715271 4.958496 1.9884338c1.315094 1.2731628 2.053894 2.999939 2.053894 4.800476l0 0c0 3.7494202 -3.139557 6.7889404 -7.01239 6.7889404l0 0c-3.8728333 0 -7.01239 -3.0395203 -7.01239 -6.7889404z" fill-rule="evenodd"></path><path fill="#eeeeee" d="m188.64708 143.82864l0 0c0 -3.7494202 3.1395416 -6.788925 7.012375 -6.788925l0 0c1.8598022 0 3.6434326 0.71525574 4.9585114 1.9884338c1.3150635 1.2731628 2.0538788 2.9999542 2.0538788 4.8004913l0 0c0 3.7494202 -3.139557 6.788925 -7.01239 6.788925l0 0c-3.8728333 0 -7.012375 -3.039505 -7.012375 -6.788925z" fill-rule="evenodd"></path><path stroke="#595959" stroke-width="1.0" stroke-linejoin="round" stroke-linecap="butt" d="m188.64708 143.82864l0 0c0 -3.7494202 3.1395416 -6.788925 7.012375 -6.788925l0 0c1.8598022 0 3.6434326 0.71525574 4.9585114 1.9884338c1.3150635 1.2731628 2.0538788 2.9999542 2.0538788 4.8004913l0 0c0 3.7494202 -3.139557 6.788925 -7.01239 6.788925l0 0c-3.8728333 0 -7.012375 -3.039505 -7.012375 -6.788925z" fill-rule="evenodd"></path><path fill="#eeeeee" d="m188.64708 170.70888l0 0c0 -3.7494202 3.1395416 -6.788925 7.012375 -6.788925l0 0c1.8598022 0 3.6434326 0.715271 4.9585114 1.9884338c1.3150635 1.2731781 2.0538788 2.9999695 2.0538788 4.8004913l0 0c0 3.7494202 -3.139557 6.788925 -7.01239 6.788925l0 0c-3.8728333 0 -7.012375 -3.039505 -7.012375 -6.788925z" fill-rule="evenodd"></path><path stroke="#595959" stroke-width="1.0" stroke-linejoin="round" stroke-linecap="butt" d="m188.64708 170.70888l0 0c0 -3.7494202 3.1395416 -6.788925 7.012375 -6.788925l0 0c1.8598022 0 3.6434326 0.715271 4.9585114 1.9884338c1.3150635 1.2731781 2.0538788 2.9999695 2.0538788 4.8004913l0 0c0 3.7494202 -3.139557 6.788925 -7.01239 6.788925l0 0c-3.8728333 0 -7.012375 -3.039505 -7.012375 -6.788925z" fill-rule="evenodd"></path><path fill="#eeeeee" d="m188.64708 194.86052l0 0c0 -3.7494202 3.1395416 -6.788925 7.012375 -6.788925l0 0c1.8598022 0 3.6434326 0.71525574 4.9585114 1.9884338c1.3150635 1.2731628 2.0538788 2.9999542 2.0538788 4.8004913l0 0c0 3.7494202 -3.139557 6.788925 -7.01239 6.788925l0 0c-3.8728333 0 -7.012375 -3.039505 -7.012375 -6.788925z" fill-rule="evenodd"></path><path stroke="#595959" stroke-width="1.0" stroke-linejoin="round" stroke-linecap="butt" d="m188.64708 194.86052l0 0c0 -3.7494202 3.1395416 -6.788925 7.012375 -6.788925l0 0c1.8598022 0 3.6434326 0.71525574 4.9585114 1.9884338c1.3150635 1.2731628 2.0538788 2.9999542 2.0538788 4.8004913l0 0c0 3.7494202 -3.139557 6.788925 -7.01239 6.788925l0 0c-3.8728333 0 -7.012375 -3.039505 -7.012375 -6.788925z" fill-rule="evenodd"></path><path fill="#eeeeee" d="m188.64708 221.74075l0 0c0 -3.7494202 3.1395416 -6.788925 7.012375 -6.788925l0 0c1.8598022 0 3.6434326 0.715271 4.9585114 1.9884338c1.3150635 1.2731781 2.0538788 2.9999542 2.0538788 4.8004913l0 0c0 3.7494202 -3.139557 6.788925 -7.01239 6.788925l0 0c-3.8728333 0 -7.012375 -3.039505 -7.012375 -6.788925z" fill-rule="evenodd"></path><path stroke="#595959" stroke-width="1.0" stroke-linejoin="round" stroke-linecap="butt" d="m188.64708 221.74075l0 0c0 -3.7494202 3.1395416 -6.788925 7.012375 -6.788925l0 0c1.8598022 0 3.6434326 0.715271 4.9585114 1.9884338c1.3150635 1.2731781 2.0538788 2.9999542 2.0538788 4.8004913l0 0c0 3.7494202 -3.139557 6.788925 -7.01239 6.788925l0 0c-3.8728333 0 -7.012375 -3.039505 -7.012375 -6.788925z" fill-rule="evenodd"></path><path fill="#eeeeee" d="m188.64708 248.62099l0 0c0 -3.749405 3.1395416 -6.78891 7.012375 -6.78891l0 0c1.8598022 0 3.6434326 0.71525574 4.9585114 1.9884186c1.3150635 1.2731781 2.0538788 2.9999695 2.0538788 4.8004913l0 0c0 3.7494202 -3.139557 6.788925 -7.01239 6.788925l0 0c-3.8728333 0 -7.012375 -3.039505 -7.012375 -6.788925z" fill-rule="evenodd"></path><path stroke="#595959" stroke-width="1.0" stroke-linejoin="round" stroke-linecap="butt" d="m188.64708 248.62099l0 0c0 -3.749405 3.1395416 -6.78891 7.012375 -6.78891l0 0c1.8598022 0 3.6434326 0.71525574 4.9585114 1.9884186c1.3150635 1.2731781 2.0538788 2.9999695 2.0538788 4.8004913l0 0c0 3.7494202 -3.139557 6.788925 -7.01239 6.788925l0 0c-3.8728333 0 -7.012375 -3.039505 -7.012375 -6.788925z" fill-rule="evenodd"></path><path fill="#000000" fill-opacity="0.0" d="m123.3968 168.15384l65.25028 -24.325195" fill-rule="evenodd"></path><path stroke="#999999" stroke-width="1.0" stroke-linejoin="round" stroke-linecap="butt" d="m123.3968 168.15384l65.25028 -24.325195" fill-rule="evenodd"></path><path fill="#000000" fill-opacity="0.0" d="m123.40129 168.11627l65.250275 2.575119" fill-rule="evenodd"></path><path stroke="#999999" stroke-width="1.0" stroke-linejoin="round" stroke-linecap="butt" d="m123.40129 168.11627l65.250275 2.575119" fill-rule="evenodd"></path><path fill="#000000" fill-opacity="0.0" d="m123.40129 168.11627l65.250275 26.730057" fill-rule="evenodd"></path><path stroke="#999999" stroke-width="1.0" stroke-linejoin="round" stroke-linecap="butt" d="m123.40129 168.11627l65.250275 26.730057" fill-rule="evenodd"></path><path fill="#000000" fill-opacity="0.0" d="m123.40129 168.11627l65.250275 53.63037" fill-rule="evenodd"></path><path stroke="#999999" stroke-width="1.0" stroke-linejoin="round" stroke-linecap="butt" d="m123.40129 168.11627l65.250275 53.63037" fill-rule="evenodd"></path><path fill="#000000" fill-opacity="0.0" d="m123.40129 168.11627l65.250275 80.5094" fill-rule="evenodd"></path><path stroke="#999999" stroke-width="1.0" stroke-linejoin="round" stroke-linecap="butt" d="m123.40129 168.11627l65.250275 80.5094" fill-rule="evenodd"></path><path fill="#000000" fill-opacity="0.0" d="m123.40129 194.99652l65.250275 -51.182953" fill-rule="evenodd"></path><path stroke="#999999" stroke-width="1.0" stroke-linejoin="round" stroke-linecap="butt" d="m123.40129 194.99652l65.250275 -51.182953" fill-rule="evenodd"></path><path fill="#000000" fill-opacity="0.0" d="m123.40129 194.99652l65.250275 -24.282639" fill-rule="evenodd"></path><path stroke="#999999" stroke-width="1.0" stroke-linejoin="round" stroke-linecap="butt" d="m123.40129 194.99652l65.250275 -24.282639" fill-rule="evenodd"></path><path fill="#000000" fill-opacity="0.0" d="m123.3968 194.9882l65.25028 -0.12768555" fill-rule="evenodd"></path><path stroke="#999999" stroke-width="1.0" stroke-linejoin="round" stroke-linecap="butt" d="m123.3968 194.9882l65.25028 -0.12768555" fill-rule="evenodd"></path><path fill="#000000" fill-opacity="0.0" d="m123.40129 194.99652l65.250275 26.730042" fill-rule="evenodd"></path><path stroke="#999999" stroke-width="1.0" stroke-linejoin="round" stroke-linecap="butt" d="m123.40129 194.99652l65.250275 26.730042" fill-rule="evenodd"></path><path fill="#000000" fill-opacity="0.0" d="m123.40129 194.99652l65.250275 53.630356" fill-rule="evenodd"></path><path stroke="#999999" stroke-width="1.0" stroke-linejoin="round" stroke-linecap="butt" d="m123.40129 194.99652l65.250275 53.630356" fill-rule="evenodd"></path><path fill="#000000" fill-opacity="0.0" d="m123.40129 221.87675l65.250275 -78.040695" fill-rule="evenodd"></path><path stroke="#999999" stroke-width="1.0" stroke-linejoin="round" stroke-linecap="butt" d="m123.40129 221.87675l65.250275 -78.040695" fill-rule="evenodd"></path><path fill="#000000" fill-opacity="0.0" d="m123.40129 221.87675l65.250275 -51.182953" fill-rule="evenodd"></path><path stroke="#999999" stroke-width="1.0" stroke-linejoin="round" stroke-linecap="butt" d="m123.40129 221.87675l65.250275 -51.182953" fill-rule="evenodd"></path><path fill="#000000" fill-opacity="0.0" d="m123.40129 221.87675l65.250275 -27.028" fill-rule="evenodd"></path><path stroke="#999999" stroke-width="1.0" stroke-linejoin="round" stroke-linecap="butt" d="m123.40129 221.87675l65.250275 -27.028" fill-rule="evenodd"></path><path fill="#000000" fill-opacity="0.0" d="m123.40129 221.87675l65.250275 -0.1277008" fill-rule="evenodd"></path><path stroke="#999999" stroke-width="1.0" stroke-linejoin="round" stroke-linecap="butt" d="m123.40129 221.87675l65.250275 -0.1277008" fill-rule="evenodd"></path><path fill="#000000" fill-opacity="0.0" d="m123.40129 221.87675l65.250275 26.730057" fill-rule="evenodd"></path><path stroke="#999999" stroke-width="1.0" stroke-linejoin="round" stroke-linecap="butt" d="m123.40129 221.87675l65.250275 26.730057" fill-rule="evenodd"></path><path fill="#000000" fill-opacity="0.0" d="m202.61005 143.82123l59.50415 -16.025269" fill-rule="evenodd"></path><path stroke="#999999" stroke-width="1.0" stroke-linejoin="round" stroke-linecap="butt" d="m202.61005 143.82123l59.50415 -16.025269" fill-rule="evenodd"></path><path fill="#000000" fill-opacity="0.0" d="m202.67184 143.82864l59.440308 10.832489" fill-rule="evenodd"></path><path stroke="#999999" stroke-width="1.0" stroke-linejoin="round" stroke-linecap="butt" d="m202.67184 143.82864l59.440308 10.832489" fill-rule="evenodd"></path><path fill="#000000" fill-opacity="0.0" d="m202.67184 143.82864l59.440308 37.732788" fill-rule="evenodd"></path><path stroke="#999999" stroke-width="1.0" stroke-linejoin="round" stroke-linecap="butt" d="m202.67184 143.82864l59.440308 37.732788" fill-rule="evenodd"></path><path fill="#000000" fill-opacity="0.0" d="m202.67184 143.82864l59.440308 64.59053" fill-rule="evenodd"></path><path stroke="#999999" stroke-width="1.0" stroke-linejoin="round" stroke-linecap="butt" d="m202.67184 143.82864l59.440308 64.59053" fill-rule="evenodd"></path><path fill="#000000" fill-opacity="0.0" d="m202.67184 143.82864l59.440308 91.490845" fill-rule="evenodd"></path><path stroke="#999999" stroke-width="1.0" stroke-linejoin="round" stroke-linecap="butt" d="m202.67184 143.82864l59.440308 91.490845" fill-rule="evenodd"></path><path fill="#000000" fill-opacity="0.0" d="m202.67184 143.82864l59.440308 118.36987" fill-rule="evenodd"></path><path stroke="#999999" stroke-width="1.0" stroke-linejoin="round" stroke-linecap="butt" d="m202.67184 143.82864l59.440308 118.36987" fill-rule="evenodd"></path><path fill="#000000" fill-opacity="0.0" d="m202.67184 170.70888l59.440308 -42.90428" fill-rule="evenodd"></path><path stroke="#999999" stroke-width="1.0" stroke-linejoin="round" stroke-linecap="butt" d="m202.67184 170.70888l59.440308 -42.90428" fill-rule="evenodd"></path><path fill="#000000" fill-opacity="0.0" d="m202.67184 170.70888l59.440308 -16.025253" fill-rule="evenodd"></path><path stroke="#999999" stroke-width="1.0" stroke-linejoin="round" stroke-linecap="butt" d="m202.67184 170.70888l59.440308 -16.025253" fill-rule="evenodd"></path><path fill="#000000" fill-opacity="0.0" d="m202.67184 170.70888l59.440308 10.832489" fill-rule="evenodd"></path><path stroke="#999999" stroke-width="1.0" stroke-linejoin="round" stroke-linecap="butt" d="m202.67184 170.70888l59.440308 10.832489" fill-rule="evenodd"></path><path fill="#000000" fill-opacity="0.0" d="m202.67184 170.70888l59.440308 37.732788" fill-rule="evenodd"></path><path stroke="#999999" stroke-width="1.0" stroke-linejoin="round" stroke-linecap="butt" d="m202.67184 170.70888l59.440308 37.732788" fill-rule="evenodd"></path><path fill="#000000" fill-opacity="0.0" d="m202.67184 170.70888l59.440308 64.590546" fill-rule="evenodd"></path><path stroke="#999999" stroke-width="1.0" stroke-linejoin="round" stroke-linecap="butt" d="m202.67184 170.70888l59.440308 64.590546" fill-rule="evenodd"></path><path fill="#000000" fill-opacity="0.0" d="m202.67184 170.70888l59.440308 91.49086" fill-rule="evenodd"></path><path stroke="#999999" stroke-width="1.0" stroke-linejoin="round" stroke-linecap="butt" d="m202.67184 170.70888l59.440308 91.49086" fill-rule="evenodd"></path><path fill="#000000" fill-opacity="0.0" d="m202.67184 194.86052l59.440308 -67.059235" fill-rule="evenodd"></path><path stroke="#999999" stroke-width="1.0" stroke-linejoin="round" stroke-linecap="butt" d="m202.67184 194.86052l59.440308 -67.059235" fill-rule="evenodd"></path><path fill="#000000" fill-opacity="0.0" d="m202.67184 194.86052l59.440308 -40.180206" fill-rule="evenodd"></path><path stroke="#999999" stroke-width="1.0" stroke-linejoin="round" stroke-linecap="butt" d="m202.67184 194.86052l59.440308 -40.180206" fill-rule="evenodd"></path><path fill="#000000" fill-opacity="0.0" d="m202.67184 194.86052l59.440308 -13.301178" fill-rule="evenodd"></path><path stroke="#999999" stroke-width="1.0" stroke-linejoin="round" stroke-linecap="butt" d="m202.67184 194.86052l59.440308 -13.301178" fill-rule="evenodd"></path><path fill="#000000" fill-opacity="0.0" d="m202.67184 194.86052l59.440308 40.47815" fill-rule="evenodd"></path><path stroke="#999999" stroke-width="1.0" stroke-linejoin="round" stroke-linecap="butt" d="m202.67184 194.86052l59.440308 40.47815" fill-rule="evenodd"></path><path fill="#000000" fill-opacity="0.0" d="m202.67184 194.86052l59.440308 13.57785" fill-rule="evenodd"></path><path stroke="#999999" stroke-width="1.0" stroke-linejoin="round" stroke-linecap="butt" d="m202.67184 194.86052l59.440308 13.57785" fill-rule="evenodd"></path><path fill="#000000" fill-opacity="0.0" d="m202.67184 194.86052l59.440308 67.33589" fill-rule="evenodd"></path><path stroke="#999999" stroke-width="1.0" stroke-linejoin="round" stroke-linecap="butt" d="m202.67184 194.86052l59.440308 67.33589" fill-rule="evenodd"></path><path fill="#000000" fill-opacity="0.0" d="m202.61005 221.7768l59.50415 -93.980835" fill-rule="evenodd"></path><path stroke="#999999" stroke-width="1.0" stroke-linejoin="round" stroke-linecap="butt" d="m202.61005 221.7768l59.50415 -93.980835" fill-rule="evenodd"></path><path fill="#000000" fill-opacity="0.0" d="m202.67184 248.62099l59.440308 -120.81728" fill-rule="evenodd"></path><path stroke="#999999" stroke-width="1.0" stroke-linejoin="round" stroke-linecap="butt" d="m202.67184 248.62099l59.440308 -120.81728" fill-rule="evenodd"></path><path fill="#000000" fill-opacity="0.0" d="m202.67184 221.74075l59.440308 -67.059235" fill-rule="evenodd"></path><path stroke="#999999" stroke-width="1.0" stroke-linejoin="round" stroke-linecap="butt" d="m202.67184 221.74075l59.440308 -67.059235" fill-rule="evenodd"></path><path fill="#000000" fill-opacity="0.0" d="m202.67184 248.62099l59.440308 -93.95953" fill-rule="evenodd"></path><path stroke="#999999" stroke-width="1.0" stroke-linejoin="round" stroke-linecap="butt" d="m202.67184 248.62099l59.440308 -93.95953" fill-rule="evenodd"></path><path fill="#000000" fill-opacity="0.0" d="m202.67184 221.74075l59.440308 -40.180206" fill-rule="evenodd"></path><path stroke="#999999" stroke-width="1.0" stroke-linejoin="round" stroke-linecap="butt" d="m202.67184 221.74075l59.440308 -40.180206" fill-rule="evenodd"></path><path fill="#000000" fill-opacity="0.0" d="m202.67184 248.62099l59.440308 -67.059235" fill-rule="evenodd"></path><path stroke="#999999" stroke-width="1.0" stroke-linejoin="round" stroke-linecap="butt" d="m202.67184 248.62099l59.440308 -67.059235" fill-rule="evenodd"></path><path fill="#000000" fill-opacity="0.0" d="m202.67184 221.74075l59.440308 -13.301178" fill-rule="evenodd"></path><path stroke="#999999" stroke-width="1.0" stroke-linejoin="round" stroke-linecap="butt" d="m202.67184 221.74075l59.440308 -13.301178" fill-rule="evenodd"></path><path fill="#000000" fill-opacity="0.0" d="m202.67184 221.74075l59.440308 13.57785" fill-rule="evenodd"></path><path stroke="#999999" stroke-width="1.0" stroke-linejoin="round" stroke-linecap="butt" d="m202.67184 221.74075l59.440308 13.57785" fill-rule="evenodd"></path><path fill="#000000" fill-opacity="0.0" d="m202.67184 221.74075l59.440308 40.47815" fill-rule="evenodd"></path><path stroke="#999999" stroke-width="1.0" stroke-linejoin="round" stroke-linecap="butt" d="m202.67184 221.74075l59.440308 40.47815" fill-rule="evenodd"></path><path fill="#000000" fill-opacity="0.0" d="m202.61005 248.61688l59.50415 -40.180206" fill-rule="evenodd"></path><path stroke="#999999" stroke-width="1.0" stroke-linejoin="round" stroke-linecap="butt" d="m202.61005 248.61688l59.50415 -40.180206" fill-rule="evenodd"></path><path fill="#000000" fill-opacity="0.0" d="m202.67184 248.62099l59.440308 -13.301178" fill-rule="evenodd"></path><path stroke="#999999" stroke-width="1.0" stroke-linejoin="round" stroke-linecap="butt" d="m202.67184 248.62099l59.440308 -13.301178" fill-rule="evenodd"></path><path fill="#000000" fill-opacity="0.0" d="m202.67184 248.62099l59.440308 13.577866" fill-rule="evenodd"></path><path stroke="#999999" stroke-width="1.0" stroke-linejoin="round" stroke-linecap="butt" d="m202.67184 248.62099l59.440308 13.577866" fill-rule="evenodd"></path><path fill="#000000" d="m44.194405 175.95747l16.64331 0l0 17.208237l-16.64331 0z" fill-rule="evenodd"></path><path stroke="#434343" stroke-width="1.0" stroke-linejoin="round" stroke-linecap="butt" d="m44.194405 175.95747l16.64331 0l0 17.208237l-16.64331 0z" fill-rule="evenodd"></path><path fill="#ffffff" d="m66.26961 175.95747l16.64331 0l0 17.208237l-16.64331 0z" fill-rule="evenodd"></path><path stroke="#434343" stroke-width="1.0" stroke-linejoin="round" stroke-linecap="butt" d="m66.26961 175.95747l16.64331 0l0 17.208237l-16.64331 0z" fill-rule="evenodd"></path><path fill="#ffffff" d="m44.194405 198.03268l16.64331 0l0 17.208221l-16.64331 0z" fill-rule="evenodd"></path><path stroke="#434343" stroke-width="1.0" stroke-linejoin="round" stroke-linecap="butt" d="m44.194405 198.03268l16.64331 0l0 17.208221l-16.64331 0z" fill-rule="evenodd"></path><path fill="#000000" d="m66.26961 198.03268l16.64331 0l0 17.208221l-16.64331 0z" fill-rule="evenodd"></path><path stroke="#434343" stroke-width="1.0" stroke-linejoin="round" stroke-linecap="butt" d="m66.26961 198.03268l16.64331 0l0 17.208221l-16.64331 0z" fill-rule="evenodd"></path><path fill="#000000" fill-opacity="0.0" d="m389.13626 78.38321l187.08664 0l0 72.0l-187.08664 0z" fill-rule="evenodd"></path><path fill="#000000" d="m398.105 105.30321l5.234375 -13.59375l1.9375 0l5.5625 13.59375l-2.046875 0l-1.59375 -4.125l-5.6875 0l-1.484375 4.125l-1.921875 0zm3.921875 -5.578125l4.609375 0l-1.40625 -3.78125q-0.65625 -1.703125 -0.96875 -2.8125q-0.265625 1.3125 -0.734375 2.59375l-1.5 4.0zm10.271698 -2.375l0 -1.90625l1.90625 0l0 1.90625l-1.90625 0zm0 7.953125l0 -1.90625l1.90625 0l0 1.90625l-1.90625 0zm10.100983 0l0 -13.59375l1.84375 0l7.140625 10.671875l0 -10.671875l1.71875 0l0 13.59375l-1.84375 0l-7.140625 -10.6875l0 10.6875l-1.71875 0zm20.019836 -3.171875l1.71875 0.21875q-0.40625 1.5 -1.515625 2.34375q-1.09375 0.828125 -2.8125 0.828125q-2.15625 0 -3.421875 -1.328125q-1.265625 -1.328125 -1.265625 -3.734375q0 -2.484375 1.265625 -3.859375q1.28125 -1.375 3.328125 -1.375q1.984375 0 3.234375 1.34375q1.25 1.34375 1.25 3.796875q0 0.140625 -0.015625 0.4375l-7.34375 0q0.09375 1.625 0.921875 2.484375q0.828125 0.859375 2.0625 0.859375q0.90625 0 1.546875 -0.46875q0.65625 -0.484375 1.046875 -1.546875zm-5.484375 -2.703125l5.5 0q-0.109375 -1.234375 -0.625 -1.859375q-0.796875 -0.96875 -2.078125 -0.96875q-1.140625 0 -1.9375 0.78125q-0.78125 0.765625 -0.859375 2.046875zm15.563202 5.875l0 -1.453125q-1.140625 1.671875 -3.125 1.671875q-0.859375 0 -1.625 -0.328125q-0.75 -0.34375 -1.125 -0.84375q-0.359375 -0.5 -0.515625 -1.234375q-0.09375 -0.5 -0.09375 -1.5625l0 -6.109375l1.671875 0l0 5.46875q0 1.3125 0.09375 1.765625q0.15625 0.65625 0.671875 1.03125q0.515625 0.375 1.265625 0.375q0.75 0 1.40625 -0.375q0.65625 -0.390625 0.921875 -1.046875q0.28125 -0.671875 0.28125 -1.9375l0 -5.28125l1.671875 0l0 9.859375l-1.5 0zm3.9069824 0l0 -9.859375l1.5 0l0 1.5q0.578125 -1.046875 1.0625 -1.375q0.484375 -0.34375 1.078125 -0.34375q0.84375 0 1.71875 0.546875l-0.578125 1.546875q-0.609375 -0.359375 -1.234375 -0.359375q-0.546875 0 -0.984375 0.328125q-0.421875 0.328125 -0.609375 0.90625q-0.28125 0.890625 -0.28125 1.953125l0 5.15625l-1.671875 0zm12.665802 -1.21875q-0.9375 0.796875 -1.796875 1.125q-0.859375 0.3125 -1.84375 0.3125q-1.609375 0 -2.484375 -0.78125q-0.875 -0.796875 -0.875 -2.03125q0 -0.734375 0.328125 -1.328125q0.328125 -0.59375 0.859375 -0.953125q0.53125 -0.359375 1.203125 -0.546875q0.5 -0.140625 1.484375 -0.25q2.03125 -0.25 2.984375 -0.578125q0 -0.34375 0 -0.4375q0 -1.015625 -0.46875 -1.4375q-0.640625 -0.5625 -1.90625 -0.5625q-1.171875 0 -1.734375 0.40625q-0.5625 0.40625 -0.828125 1.46875l-1.640625 -0.234375q0.234375 -1.046875 0.734375 -1.6875q0.515625 -0.640625 1.46875 -0.984375q0.96875 -0.359375 2.25 -0.359375q1.265625 0 2.046875 0.296875q0.78125 0.296875 1.15625 0.75q0.375 0.453125 0.515625 1.140625q0.09375 0.421875 0.09375 1.53125l0 2.234375q0 2.328125 0.09375 2.953125q0.109375 0.609375 0.4375 1.171875l-1.75 0q-0.265625 -0.515625 -0.328125 -1.21875zm-0.140625 -3.71875q-0.90625 0.359375 -2.734375 0.625q-1.03125 0.140625 -1.453125 0.328125q-0.421875 0.1875 -0.65625 0.546875q-0.234375 0.359375 -0.234375 0.796875q0 0.671875 0.5 1.125q0.515625 0.4375 1.484375 0.4375q0.96875 0 1.71875 -0.421875q0.75 -0.4375 1.109375 -1.15625q0.265625 -0.578125 0.265625 -1.671875l0 -0.609375zm4.047577 4.9375l0 -13.59375l1.671875 0l0 13.59375l-1.671875 0zm9.359375 0l0 -9.859375l1.5 0l0 1.40625q1.09375 -1.625 3.140625 -1.625q0.890625 0 1.640625 0.328125q0.75 0.3125 1.109375 0.84375q0.375 0.515625 0.53125 1.21875q0.09375 0.46875 0.09375 1.625l0 6.0625l-1.671875 0l0 -6.0q0 -1.015625 -0.203125 -1.515625q-0.1875 -0.515625 -0.6875 -0.8125q-0.5 -0.296875 -1.171875 -0.296875q-1.0625 0 -1.84375 0.671875q-0.765625 0.671875 -0.765625 2.578125l0 5.375l-1.671875 0zm17.125732 -3.171875l1.71875 0.21875q-0.40625 1.5 -1.515625 2.34375q-1.09375 0.828125 -2.8125 0.828125q-2.15625 0 -3.421875 -1.328125q-1.265625 -1.328125 -1.265625 -3.734375q0 -2.484375 1.265625 -3.859375q1.28125 -1.375 3.328125 -1.375q1.984375 0 3.234375 1.34375q1.25 1.34375 1.25 3.796875q0 0.140625 -0.015625 0.4375l-7.34375 0q0.09375 1.625 0.921875 2.484375q0.828125 0.859375 2.0625 0.859375q0.90625 0 1.546875 -0.46875q0.65625 -0.484375 1.046875 -1.546875zm-5.484375 -2.703125l5.5 0q-0.109375 -1.234375 -0.625 -1.859375q-0.796875 -0.96875 -2.078125 -0.96875q-1.140625 0 -1.9375 0.78125q-0.78125 0.765625 -0.859375 2.046875zm12.766327 4.375l0.234375 1.484375q-0.703125 0.140625 -1.265625 0.140625q-0.90625 0 -1.40625 -0.28125q-0.5 -0.296875 -0.703125 -0.75q-0.203125 -0.46875 -0.203125 -1.984375l0 -5.65625l-1.234375 0l0 -1.3125l1.234375 0l0 -2.4375l1.65625 -1.0l0 3.4375l1.6875 0l0 1.3125l-1.6875 0l0 5.75q0 0.71875 0.078125 0.921875q0.09375 0.203125 0.296875 0.328125q0.203125 0.125 0.578125 0.125q0.265625 0 0.734375 -0.078125zm3.355194 1.5l-3.015625 -9.859375l1.71875 0l1.5625 5.6875l0.59375 2.125q0.03125 -0.15625 0.5 -2.03125l1.578125 -5.78125l1.71875 0l1.46875 5.71875l0.484375 1.890625l0.578125 -1.90625l1.6875 -5.703125l1.625 0l-3.078125 9.859375l-1.734375 0l-1.578125 -5.90625l-0.375 -1.671875l-2.0 7.578125l-1.734375 0zm11.019836 -4.921875q0 -2.734375 1.53125 -4.0625q1.265625 -1.09375 3.09375 -1.09375q2.03125 0 3.3125 1.34375q1.296875 1.328125 1.296875 3.671875q0 1.90625 -0.578125 3.0q-0.5625 1.078125 -1.65625 1.6875q-1.078125 0.59375 -2.375 0.59375q-2.0625 0 -3.34375 -1.328125q-1.28125 -1.328125 -1.28125 -3.8125zm1.71875 0q0 1.890625 0.828125 2.828125q0.828125 0.9375 2.078125 0.9375q1.25 0 2.0625 -0.9375q0.828125 -0.953125 0.828125 -2.890625q0 -1.828125 -0.828125 -2.765625q-0.828125 -0.9375 -2.0625 -0.9375q-1.25 0 -2.078125 0.9375q-0.828125 0.9375 -0.828125 2.828125zm9.266296 4.921875l0 -9.859375l1.5 0l0 1.5q0.578125 -1.046875 1.0625 -1.375q0.484375 -0.34375 1.078125 -0.34375q0.84375 0 1.71875 0.546875l-0.578125 1.546875q-0.609375 -0.359375 -1.234375 -0.359375q-0.546875 0 -0.984375 0.328125q-0.421875 0.328125 -0.609375 0.90625q-0.28125 0.890625 -0.28125 1.953125l0 5.15625l-1.671875 0zm6.2439575 0l0 -13.59375l1.671875 0l0 7.75l3.953125 -4.015625l2.15625 0l-3.765625 3.65625l4.140625 6.203125l-2.0625 0l-3.25 -5.03125l-1.171875 1.125l0 3.90625l-1.671875 0zm9.21875 -11.796875l0 -1.9375l1.78125 0l0 1.53125q0 1.234375 -0.28125 1.78125q-0.40625 0.75 -1.25 1.140625l-0.40625 -0.671875q0.5 -0.203125 0.75 -0.640625q0.25 -0.4375 0.265625 -1.203125l-0.859375 0zm3.5667114 8.859375l1.65625 -0.265625q0.140625 1.0 0.765625 1.53125q0.640625 0.515625 1.78125 0.515625q1.15625 0 1.703125 -0.46875q0.5625 -0.46875 0.5625 -1.09375q0 -0.5625 -0.484375 -0.890625q-0.34375 -0.21875 -1.703125 -0.5625q-1.84375 -0.46875 -2.5625 -0.796875q-0.703125 -0.34375 -1.078125 -0.9375q-0.359375 -0.609375 -0.359375 -1.328125q0 -0.65625 0.296875 -1.21875q0.3125 -0.5625 0.828125 -0.9375q0.390625 -0.28125 1.0625 -0.484375q0.671875 -0.203125 1.4375 -0.203125q1.171875 0 2.046875 0.34375q0.875 0.328125 1.28125 0.90625q0.421875 0.5625 0.578125 1.515625l-1.625 0.21875q-0.109375 -0.75 -0.65625 -1.171875q-0.53125 -0.4375 -1.5 -0.4375q-1.15625 0 -1.640625 0.390625q-0.484375 0.375 -0.484375 0.875q0 0.328125 0.203125 0.59375q0.203125 0.265625 0.640625 0.4375q0.25 0.09375 1.46875 0.4375q1.765625 0.46875 2.46875 0.765625q0.703125 0.296875 1.09375 0.875q0.40625 0.578125 0.40625 1.4375q0 0.828125 -0.484375 1.578125q-0.484375 0.734375 -1.40625 1.140625q-0.921875 0.390625 -2.078125 0.390625q-1.921875 0 -2.9375 -0.796875q-1.0 -0.796875 -1.28125 -2.359375z" fill-rule="nonzero"></path><path fill="#000000" d="m399.0894 128.1157l1.609375 0.25q0.109375 0.75 0.578125 1.09375q0.609375 0.453125 1.6875 0.453125q1.171875 0 1.796875 -0.46875q0.625 -0.453125 0.859375 -1.28125q0.125 -0.515625 0.109375 -2.15625q-1.09375 1.296875 -2.71875 1.296875q-2.03125 0 -3.15625 -1.46875q-1.109375 -1.46875 -1.109375 -3.515625q0 -1.40625 0.515625 -2.59375q0.515625 -1.203125 1.484375 -1.84375q0.96875 -0.65625 2.265625 -0.65625q1.75 0 2.875 1.40625l0 -1.1875l1.546875 0l0 8.515625q0 2.3125 -0.46875 3.265625q-0.46875 0.96875 -1.484375 1.515625q-1.015625 0.5625 -2.5 0.5625q-1.765625 0 -2.859375 -0.796875q-1.078125 -0.796875 -1.03125 -2.390625zm1.375 -5.921875q0 1.953125 0.765625 2.84375q0.78125 0.890625 1.9375 0.890625q1.140625 0 1.921875 -0.890625q0.78125 -0.890625 0.78125 -2.78125q0 -1.8125 -0.8125 -2.71875q-0.796875 -0.921875 -1.921875 -0.921875q-1.109375 0 -1.890625 0.90625q-0.78125 0.890625 -0.78125 2.671875zm15.750732 5.109375l0 -1.453125q-1.140625 1.671875 -3.125 1.671875q-0.859375 0 -1.625 -0.328125q-0.75 -0.34375 -1.125 -0.84375q-0.359375 -0.5 -0.515625 -1.234375q-0.09375 -0.5 -0.09375 -1.5625l0 -6.109375l1.671875 0l0 5.46875q0 1.3125 0.09375 1.765625q0.15625 0.65625 0.671875 1.03125q0.515625 0.375 1.265625 0.375q0.75 0 1.40625 -0.375q0.65625 -0.390625 0.921875 -1.046875q0.28125 -0.671875 0.28125 -1.9375l0 -5.28125l1.671875 0l0 9.859375l-1.5 0zm10.672577 -3.171875l1.71875 0.21875q-0.40625 1.5 -1.515625 2.34375q-1.09375 0.828125 -2.8125 0.828125q-2.15625 0 -3.421875 -1.328125q-1.265625 -1.328125 -1.265625 -3.734375q0 -2.484375 1.265625 -3.859375q1.28125 -1.375 3.328125 -1.375q1.984375 0 3.234375 1.34375q1.25 1.34375 1.25 3.796875q0 0.140625 -0.015625 0.4375l-7.34375 0q0.09375 1.625 0.921875 2.484375q0.828125 0.859375 2.0625 0.859375q0.90625 0 1.546875 -0.46875q0.65625 -0.484375 1.046875 -1.546875zm-5.484375 -2.703125l5.5 0q-0.109375 -1.234375 -0.625 -1.859375q-0.796875 -0.96875 -2.078125 -0.96875q-1.140625 0 -1.9375 0.78125q-0.78125 0.765625 -0.859375 2.046875zm8.438232 2.9375l1.65625 -0.265625q0.140625 1.0 0.765625 1.53125q0.640625 0.515625 1.78125 0.515625q1.15625 0 1.703125 -0.46875q0.5625 -0.46875 0.5625 -1.09375q0 -0.5625 -0.484375 -0.890625q-0.34375 -0.21875 -1.703125 -0.5625q-1.84375 -0.46875 -2.5625 -0.796875q-0.703125 -0.34375 -1.078125 -0.9375q-0.359375 -0.609375 -0.359375 -1.328125q0 -0.65625 0.296875 -1.21875q0.3125 -0.5625 0.828125 -0.9375q0.390625 -0.28125 1.0625 -0.484375q0.671875 -0.203125 1.4375 -0.203125q1.171875 0 2.046875 0.34375q0.875 0.328125 1.28125 0.90625q0.421875 0.5625 0.578125 1.515625l-1.625 0.21875q-0.109375 -0.75 -0.65625 -1.171875q-0.53125 -0.4375 -1.5 -0.4375q-1.15625 0 -1.640625 0.390625q-0.484375 0.375 -0.484375 0.875q0 0.328125 0.203125 0.59375q0.203125 0.265625 0.640625 0.4375q0.25 0.09375 1.46875 0.4375q1.765625 0.46875 2.46875 0.765625q0.703125 0.296875 1.09375 0.875q0.40625 0.578125 0.40625 1.4375q0 0.828125 -0.484375 1.578125q-0.484375 0.734375 -1.40625 1.140625q-0.921875 0.390625 -2.078125 0.390625q-1.921875 0 -2.9375 -0.796875q-1.0 -0.796875 -1.28125 -2.359375zm9.328125 0l1.65625 -0.265625q0.140625 1.0 0.765625 1.53125q0.640625 0.515625 1.78125 0.515625q1.15625 0 1.703125 -0.46875q0.5625 -0.46875 0.5625 -1.09375q0 -0.5625 -0.484375 -0.890625q-0.34375 -0.21875 -1.703125 -0.5625q-1.84375 -0.46875 -2.5625 -0.796875q-0.703125 -0.34375 -1.078125 -0.9375q-0.359375 -0.609375 -0.359375 -1.328125q0 -0.65625 0.296875 -1.21875q0.3125 -0.5625 0.828125 -0.9375q0.390625 -0.28125 1.0625 -0.484375q0.671875 -0.203125 1.4375 -0.203125q1.171875 0 2.046875 0.34375q0.875 0.328125 1.28125 0.90625q0.421875 0.5625 0.578125 1.515625l-1.625 0.21875q-0.109375 -0.75 -0.65625 -1.171875q-0.53125 -0.4375 -1.5 -0.4375q-1.15625 0 -1.640625 0.390625q-0.484375 0.375 -0.484375 0.875q0 0.328125 0.203125 0.59375q0.203125 0.265625 0.640625 0.4375q0.25 0.09375 1.46875 0.4375q1.765625 0.46875 2.46875 0.765625q0.703125 0.296875 1.09375 0.875q0.40625 0.578125 0.40625 1.4375q0 0.828125 -0.484375 1.578125q-0.484375 0.734375 -1.40625 1.140625q-0.921875 0.390625 -2.078125 0.390625q-1.921875 0 -2.9375 -0.796875q-1.0 -0.796875 -1.28125 -2.359375z" fill-rule="nonzero"></path><path fill="#000000" d="m308.78326 363.1672l16.643768 0l0 17.20871l-16.643768 0z" fill-rule="evenodd"></path><path stroke="#666666" stroke-width="1.0" stroke-linejoin="round" stroke-linecap="butt" d="m308.78326 363.1672l16.643768 0l0 17.20871l-16.643768 0z" fill-rule="evenodd"></path><path fill="#efefef" d="m330.85907 363.1672l16.643799 0l0 17.20871l-16.643799 0z" fill-rule="evenodd"></path><path stroke="#666666" stroke-width="1.0" stroke-linejoin="round" stroke-linecap="butt" d="m330.85907 363.1672l16.643799 0l0 17.20871l-16.643799 0z" fill-rule="evenodd"></path><path fill="#f3f3f3" d="m308.78326 385.24304l16.643768 0l0 17.20871l-16.643768 0z" fill-rule="evenodd"></path><path stroke="#666666" stroke-width="1.0" stroke-linejoin="round" stroke-linecap="butt" d="m308.78326 385.24304l16.643768 0l0 17.20871l-16.643768 0z" fill-rule="evenodd"></path><path fill="#000000" d="m330.85907 385.24304l16.643799 0l0 17.20871l-16.643799 0z" fill-rule="evenodd"></path><path stroke="#666666" stroke-width="1.0" stroke-linejoin="round" stroke-linecap="butt" d="m330.85907 385.24304l16.643799 0l0 17.20871l-16.643799 0z" fill-rule="evenodd"></path><path fill="#f3f3f3" d="m352.9349 363.1672l16.643768 0l0 17.20871l-16.643768 0z" fill-rule="evenodd"></path><path stroke="#666666" stroke-width="1.0" stroke-linejoin="round" stroke-linecap="butt" d="m352.9349 363.1672l16.643768 0l0 17.20871l-16.643768 0z" fill-rule="evenodd"></path><path fill="#efefef" d="m375.0107 363.1672l16.643799 0l0 17.20871l-16.643799 0z" fill-rule="evenodd"></path><path stroke="#666666" stroke-width="1.0" stroke-linejoin="round" stroke-linecap="butt" d="m375.0107 363.1672l16.643799 0l0 17.20871l-16.643799 0z" fill-rule="evenodd"></path><path fill="#efefef" d="m352.9349 385.24304l16.643768 0l0 17.20871l-16.643768 0z" fill-rule="evenodd"></path><path stroke="#666666" stroke-width="1.0" stroke-linejoin="round" stroke-linecap="butt" d="m352.9349 385.24304l16.643768 0l0 17.20871l-16.643768 0z" fill-rule="evenodd"></path><path fill="#f3f3f3" d="m375.0107 385.24304l16.643799 0l0 17.20871l-16.643799 0z" fill-rule="evenodd"></path><path stroke="#666666" stroke-width="1.0" stroke-linejoin="round" stroke-linecap="butt" d="m375.0107 385.24304l16.643799 0l0 17.20871l-16.643799 0z" fill-rule="evenodd"></path><path fill="#efefef" d="m308.78326 407.31885l16.643768 0l0 17.20871l-16.643768 0z" fill-rule="evenodd"></path><path stroke="#666666" stroke-width="1.0" stroke-linejoin="round" stroke-linecap="butt" d="m308.78326 407.31885l16.643768 0l0 17.20871l-16.643768 0z" fill-rule="evenodd"></path><path fill="#f3f3f3" d="m330.85907 407.31885l16.643799 0l0 17.20871l-16.643799 0z" fill-rule="evenodd"></path><path stroke="#666666" stroke-width="1.0" stroke-linejoin="round" stroke-linecap="butt" d="m330.85907 407.31885l16.643799 0l0 17.20871l-16.643799 0z" fill-rule="evenodd"></path><path fill="#f3f3f3" d="m308.78326 429.39468l16.643768 0l0 17.20871l-16.643768 0z" fill-rule="evenodd"></path><path stroke="#666666" stroke-width="1.0" stroke-linejoin="round" stroke-linecap="butt" d="m308.78326 429.39468l16.643768 0l0 17.20871l-16.643768 0z" fill-rule="evenodd"></path><path fill="#f3f3f3" d="m330.85907 429.39468l16.643799 0l0 17.20871l-16.643799 0z" fill-rule="evenodd"></path><path stroke="#666666" stroke-width="1.0" stroke-linejoin="round" stroke-linecap="butt" d="m330.85907 429.39468l16.643799 0l0 17.20871l-16.643799 0z" fill-rule="evenodd"></path><path fill="#000000" d="m352.9349 407.31885l16.643768 0l0 17.20871l-16.643768 0z" fill-rule="evenodd"></path><path stroke="#666666" stroke-width="1.0" stroke-linejoin="round" stroke-linecap="butt" d="m352.9349 407.31885l16.643768 0l0 17.20871l-16.643768 0z" fill-rule="evenodd"></path><path fill="#f3f3f3" d="m375.0107 407.31885l16.643799 0l0 17.20871l-16.643799 0z" fill-rule="evenodd"></path><path stroke="#666666" stroke-width="1.0" stroke-linejoin="round" stroke-linecap="butt" d="m375.0107 407.31885l16.643799 0l0 17.20871l-16.643799 0z" fill-rule="evenodd"></path><path fill="#f3f3f3" d="m352.9349 429.39468l16.643768 0l0 17.20871l-16.643768 0z" fill-rule="evenodd"></path><path stroke="#666666" stroke-width="1.0" stroke-linejoin="round" stroke-linecap="butt" d="m352.9349 429.39468l16.643768 0l0 17.20871l-16.643768 0z" fill-rule="evenodd"></path><path fill="#000000" d="m375.0107 429.39468l16.643799 0l0 17.20871l-16.643799 0z" fill-rule="evenodd"></path><path stroke="#666666" stroke-width="1.0" stroke-linejoin="round" stroke-linecap="butt" d="m375.0107 429.39468l16.643799 0l0 17.20871l-16.643799 0z" fill-rule="evenodd"></path><path fill="#000000" fill-opacity="0.0" d="m397.07404 374.58307l187.08661 0l0 72.0l-187.08661 0z" fill-rule="evenodd"></path><path fill="#000000" d="m407.46466 401.50308l0 -13.59375l5.109375 0q1.546875 0 2.484375 0.40625q0.953125 0.40625 1.484375 1.265625q0.53125 0.859375 0.53125 1.796875q0 0.875 -0.46875 1.65625q-0.46875 0.765625 -1.4375 1.234375q1.234375 0.359375 1.890625 1.234375q0.671875 0.875 0.671875 2.0625q0 0.953125 -0.40625 1.78125q-0.390625 0.8125 -0.984375 1.265625q-0.59375 0.4375 -1.5 0.671875q-0.890625 0.21875 -2.1875 0.21875l-5.1875 0zm1.796875 -7.890625l2.9375 0q1.203125 0 1.71875 -0.15625q0.6875 -0.203125 1.03125 -0.671875q0.359375 -0.46875 0.359375 -1.1875q0 -0.671875 -0.328125 -1.1875q-0.328125 -0.515625 -0.9375 -0.703125q-0.59375 -0.203125 -2.0625 -0.203125l-2.71875 0l0 4.109375zm0 6.28125l3.390625 0q0.875 0 1.21875 -0.0625q0.625 -0.109375 1.046875 -0.359375q0.421875 -0.265625 0.6875 -0.765625q0.265625 -0.5 0.265625 -1.140625q0 -0.765625 -0.390625 -1.328125q-0.390625 -0.5625 -1.078125 -0.78125q-0.6875 -0.234375 -1.984375 -0.234375l-3.15625 0l0 4.671875zm10.974823 -6.34375l0 -1.90625l1.90625 0l0 1.90625l-1.90625 0zm0 7.953125l0 -1.90625l1.90625 0l0 1.90625l-1.90625 0zm10.147858 0l0 -13.59375l6.03125 0q1.8125 0 2.75 0.359375q0.953125 0.359375 1.515625 1.296875q0.5625 0.921875 0.5625 2.046875q0 1.453125 -0.9375 2.453125q-0.921875 0.984375 -2.890625 1.25q0.71875 0.34375 1.09375 0.671875q0.78125 0.734375 1.484375 1.8125l2.375 3.703125l-2.265625 0l-1.796875 -2.828125q-0.796875 -1.21875 -1.3125 -1.875q-0.5 -0.65625 -0.90625 -0.90625q-0.40625 -0.265625 -0.8125 -0.359375q-0.3125 -0.078125 -1.015625 -0.078125l-2.078125 0l0 6.046875l-1.796875 0zm1.796875 -7.59375l3.859375 0q1.234375 0 1.921875 -0.25q0.703125 -0.265625 1.0625 -0.828125q0.375 -0.5625 0.375 -1.21875q0 -0.96875 -0.703125 -1.578125q-0.703125 -0.625 -2.21875 -0.625l-4.296875 0l0 4.5zm18.176086 4.421875l1.71875 0.21875q-0.40625 1.5 -1.515625 2.34375q-1.09375 0.828125 -2.8125 0.828125q-2.15625 0 -3.421875 -1.328125q-1.265625 -1.328125 -1.265625 -3.734375q0 -2.484375 1.265625 -3.859375q1.28125 -1.375 3.328125 -1.375q1.984375 0 3.234375 1.34375q1.25 1.34375 1.25 3.796875q0 0.140625 -0.015625 0.4375l-7.34375 0q0.09375 1.625 0.921875 2.484375q0.828125 0.859375 2.0625 0.859375q0.90625 0 1.546875 -0.46875q0.65625 -0.484375 1.046875 -1.546875zm-5.484375 -2.703125l5.5 0q-0.109375 -1.234375 -0.625 -1.859375q-0.796875 -0.96875 -2.078125 -0.96875q-1.140625 0 -1.9375 0.78125q-0.78125 0.765625 -0.859375 2.046875zm15.547577 4.65625q-0.9375 0.796875 -1.796875 1.125q-0.859375 0.3125 -1.84375 0.3125q-1.609375 0 -2.484375 -0.78125q-0.875 -0.796875 -0.875 -2.03125q0 -0.734375 0.328125 -1.328125q0.328125 -0.59375 0.859375 -0.953125q0.53125 -0.359375 1.203125 -0.546875q0.5 -0.140625 1.484375 -0.25q2.03125 -0.25 2.984375 -0.578125q0 -0.34375 0 -0.4375q0 -1.015625 -0.46875 -1.4375q-0.640625 -0.5625 -1.90625 -0.5625q-1.171875 0 -1.734375 0.40625q-0.5625 0.40625 -0.828125 1.46875l-1.640625 -0.234375q0.234375 -1.046875 0.734375 -1.6875q0.515625 -0.640625 1.46875 -0.984375q0.96875 -0.359375 2.25 -0.359375q1.265625 0 2.046875 0.296875q0.78125 0.296875 1.15625 0.75q0.375 0.453125 0.515625 1.140625q0.09375 0.421875 0.09375 1.53125l0 2.234375q0 2.328125 0.09375 2.953125q0.109375 0.609375 0.4375 1.171875l-1.75 0q-0.265625 -0.515625 -0.328125 -1.21875zm-0.140625 -3.71875q-0.90625 0.359375 -2.734375 0.625q-1.03125 0.140625 -1.453125 0.328125q-0.421875 0.1875 -0.65625 0.546875q-0.234375 0.359375 -0.234375 0.796875q0 0.671875 0.5 1.125q0.515625 0.4375 1.484375 0.4375q0.96875 0 1.71875 -0.421875q0.75 -0.4375 1.109375 -1.15625q0.265625 -0.578125 0.265625 -1.671875l0 -0.609375zm4.0476074 4.9375l0 -13.59375l1.671875 0l0 13.59375l-1.671875 0zm15.796875 -1.21875q-0.9375 0.796875 -1.796875 1.125q-0.859375 0.3125 -1.84375 0.3125q-1.609375 0 -2.484375 -0.78125q-0.875 -0.796875 -0.875 -2.03125q0 -0.734375 0.328125 -1.328125q0.328125 -0.59375 0.859375 -0.953125q0.53125 -0.359375 1.203125 -0.546875q0.5 -0.140625 1.484375 -0.25q2.03125 -0.25 2.984375 -0.578125q0 -0.34375 0 -0.4375q0 -1.015625 -0.46875 -1.4375q-0.640625 -0.5625 -1.90625 -0.5625q-1.171875 0 -1.734375 0.40625q-0.5625 0.40625 -0.828125 1.46875l-1.640625 -0.234375q0.234375 -1.046875 0.734375 -1.6875q0.515625 -0.640625 1.46875 -0.984375q0.96875 -0.359375 2.25 -0.359375q1.265625 0 2.046875 0.296875q0.78125 0.296875 1.15625 0.75q0.375 0.453125 0.515625 1.140625q0.09375 0.421875 0.09375 1.53125l0 2.234375q0 2.328125 0.09375 2.953125q0.109375 0.609375 0.4375 1.171875l-1.75 0q-0.265625 -0.515625 -0.328125 -1.21875zm-0.140625 -3.71875q-0.90625 0.359375 -2.734375 0.625q-1.03125 0.140625 -1.453125 0.328125q-0.421875 0.1875 -0.65625 0.546875q-0.234375 0.359375 -0.234375 0.796875q0 0.671875 0.5 1.125q0.515625 0.4375 1.484375 0.4375q0.96875 0 1.71875 -0.421875q0.75 -0.4375 1.109375 -1.15625q0.265625 -0.578125 0.265625 -1.671875l0 -0.609375zm4.078827 4.9375l0 -9.859375l1.5 0l0 1.40625q1.09375 -1.625 3.140625 -1.625q0.890625 0 1.640625 0.328125q0.75 0.3125 1.109375 0.84375q0.375 0.515625 0.53125 1.21875q0.09375 0.46875 0.09375 1.625l0 6.0625l-1.671875 0l0 -6.0q0 -1.015625 -0.203125 -1.515625q-0.1875 -0.515625 -0.6875 -0.8125q-0.5 -0.296875 -1.171875 -0.296875q-1.0625 0 -1.84375 0.671875q-0.765625 0.671875 -0.765625 2.578125l0 5.375l-1.671875 0zm9.703857 -2.9375l1.65625 -0.265625q0.140625 1.0 0.765625 1.53125q0.640625 0.515625 1.78125 0.515625q1.15625 0 1.703125 -0.46875q0.5625 -0.46875 0.5625 -1.09375q0 -0.5625 -0.484375 -0.890625q-0.34375 -0.21875 -1.703125 -0.5625q-1.84375 -0.46875 -2.5625 -0.796875q-0.703125 -0.34375 -1.078125 -0.9375q-0.359375 -0.609375 -0.359375 -1.328125q0 -0.65625 0.296875 -1.21875q0.3125 -0.5625 0.828125 -0.9375q0.390625 -0.28125 1.0625 -0.484375q0.671875 -0.203125 1.4375 -0.203125q1.171875 0 2.046875 0.34375q0.875 0.328125 1.28125 0.90625q0.421875 0.5625 0.578125 1.515625l-1.625 0.21875q-0.109375 -0.75 -0.65625 -1.171875q-0.53125 -0.4375 -1.5 -0.4375q-1.15625 0 -1.640625 0.390625q-0.484375 0.375 -0.484375 0.875q0 0.328125 0.203125 0.59375q0.203125 0.265625 0.640625 0.4375q0.25 0.09375 1.46875 0.4375q1.765625 0.46875 2.46875 0.765625q0.703125 0.296875 1.09375 0.875q0.40625 0.578125 0.40625 1.4375q0 0.828125 -0.484375 1.578125q-0.484375 0.734375 -1.40625 1.140625q-0.921875 0.390625 -2.078125 0.390625q-1.921875 0 -2.9375 -0.796875q-1.0 -0.796875 -1.28125 -2.359375zm11.828125 2.9375l-3.015625 -9.859375l1.71875 0l1.5625 5.6875l0.59375 2.125q0.03125 -0.15625 0.5 -2.03125l1.578125 -5.78125l1.71875 0l1.46875 5.71875l0.484375 1.890625l0.578125 -1.90625l1.6875 -5.703125l1.625 0l-3.078125 9.859375l-1.734375 0l-1.578125 -5.90625l-0.375 -1.671875l-2.0 7.578125l-1.734375 0zm18.394836 -3.171875l1.71875 0.21875q-0.40625 1.5 -1.515625 2.34375q-1.09375 0.828125 -2.8125 0.828125q-2.15625 0 -3.421875 -1.328125q-1.265625 -1.328125 -1.265625 -3.734375q0 -2.484375 1.265625 -3.859375q1.28125 -1.375 3.328125 -1.375q1.984375 0 3.234375 1.34375q1.25 1.34375 1.25 3.796875q0 0.140625 -0.015625 0.4375l-7.34375 0q0.09375 1.625 0.921875 2.484375q0.828125 0.859375 2.0625 0.859375q0.90625 0 1.546875 -0.46875q0.65625 -0.484375 1.046875 -1.546875zm-5.484375 -2.703125l5.5 0q-0.109375 -1.234375 -0.625 -1.859375q-0.796875 -0.96875 -2.078125 -0.96875q-1.140625 0 -1.9375 0.78125q-0.78125 0.765625 -0.859375 2.046875zm9.094421 5.875l0 -9.859375l1.5 0l0 1.5q0.578125 -1.046875 1.0625 -1.375q0.484375 -0.34375 1.078125 -0.34375q0.84375 0 1.71875 0.546875l-0.578125 1.546875q-0.609375 -0.359375 -1.234375 -0.359375q-0.546875 0 -0.984375 0.328125q-0.421875 0.328125 -0.609375 0.90625q-0.28125 0.890625 -0.28125 1.953125l0 5.15625l-1.671875 0z" fill-rule="nonzero"></path><path fill="#000000" fill-opacity="0.0" d="m523.39307 161.87111l52.0 31.968506" fill-rule="evenodd"></path><path stroke="#595959" stroke-width="1.0" stroke-linejoin="round" stroke-linecap="butt" d="m523.39307 161.87111l46.88867 28.826172" fill-rule="evenodd"></path><path fill="#595959" stroke="#595959" stroke-width="1.0" stroke-linecap="butt" d="m569.4167 192.10439l4.731018 0.9696045l-3.0009155 -3.7837982z" fill-rule="evenodd"></path><path fill="#000000" fill-opacity="0.0" d="m537.429 367.74628l37.921265 -38.740173" fill-rule="evenodd"></path><path stroke="#595959" stroke-width="1.0" stroke-linejoin="round" stroke-linecap="butt" d="m537.429 367.74628l33.724182 -34.452454" fill-rule="evenodd"></path><path fill="#595959" stroke="#595959" stroke-width="1.0" stroke-linecap="butt" d="m572.33356 334.44925l1.9940796 -4.3984375l-4.3547974 2.087616z" fill-rule="evenodd"></path><path fill="#ffffff" d="m314.21176 161.8871l16.64685 0l0 17.217407l-16.64685 0z" fill-rule="evenodd"></path><path stroke="#666666" stroke-width="1.0" stroke-linejoin="round" stroke-linecap="butt" d="m314.21176 161.8871l16.64685 0l0 17.217407l-16.64685 0z" fill-rule="evenodd"></path><path fill="#000000" d="m336.2876 161.8871l16.64685 0l0 17.217407l-16.64685 0z" fill-rule="evenodd"></path><path stroke="#666666" stroke-width="1.0" stroke-linejoin="round" stroke-linecap="butt" d="m336.2876 161.8871l16.64685 0l0 17.217407l-16.64685 0z" fill-rule="evenodd"></path><path fill="#f3f3f3" d="m314.21176 183.96292l16.64685 0l0 17.217407l-16.64685 0z" fill-rule="evenodd"></path><path stroke="#666666" stroke-width="1.0" stroke-linejoin="round" stroke-linecap="butt" d="m314.21176 183.96292l16.64685 0l0 17.217407l-16.64685 0z" fill-rule="evenodd"></path><path fill="#ffffff" d="m336.2876 183.96292l16.64685 0l0 17.217407l-16.64685 0z" fill-rule="evenodd"></path><path stroke="#666666" stroke-width="1.0" stroke-linejoin="round" stroke-linecap="butt" d="m336.2876 183.96292l16.64685 0l0 17.217407l-16.64685 0z" fill-rule="evenodd"></path><path fill="#f3f3f3" d="m358.3634 161.8871l16.64685 0l0 17.217407l-16.64685 0z" fill-rule="evenodd"></path><path stroke="#666666" stroke-width="1.0" stroke-linejoin="round" stroke-linecap="butt" d="m358.3634 161.8871l16.64685 0l0 17.217407l-16.64685 0z" fill-rule="evenodd"></path><path fill="#efefef" d="m380.43924 161.8871l16.64685 0l0 17.217407l-16.64685 0z" fill-rule="evenodd"></path><path stroke="#666666" stroke-width="1.0" stroke-linejoin="round" stroke-linecap="butt" d="m380.43924 161.8871l16.64685 0l0 17.217407l-16.64685 0z" fill-rule="evenodd"></path><path fill="#000000" d="m358.3634 183.96292l16.64685 0l0 17.217407l-16.64685 0z" fill-rule="evenodd"></path><path stroke="#666666" stroke-width="1.0" stroke-linejoin="round" stroke-linecap="butt" d="m358.3634 183.96292l16.64685 0l0 17.217407l-16.64685 0z" fill-rule="evenodd"></path><path fill="#f3f3f3" d="m380.43924 183.96292l16.64685 0l0 17.217407l-16.64685 0z" fill-rule="evenodd"></path><path stroke="#666666" stroke-width="1.0" stroke-linejoin="round" stroke-linecap="butt" d="m380.43924 183.96292l16.64685 0l0 17.217407l-16.64685 0z" fill-rule="evenodd"></path><path fill="#efefef" d="m314.21176 206.03874l16.64685 0l0 17.217407l-16.64685 0z" fill-rule="evenodd"></path><path stroke="#666666" stroke-width="1.0" stroke-linejoin="round" stroke-linecap="butt" d="m314.21176 206.03874l16.64685 0l0 17.217407l-16.64685 0z" fill-rule="evenodd"></path><path fill="#f3f3f3" d="m336.2876 206.03874l16.64685 0l0 17.217407l-16.64685 0z" fill-rule="evenodd"></path><path stroke="#666666" stroke-width="1.0" stroke-linejoin="round" stroke-linecap="butt" d="m336.2876 206.03874l16.64685 0l0 17.217407l-16.64685 0z" fill-rule="evenodd"></path><path fill="#f3f3f3" d="m314.21176 228.11456l16.64685 0l0 17.217407l-16.64685 0z" fill-rule="evenodd"></path><path stroke="#666666" stroke-width="1.0" stroke-linejoin="round" stroke-linecap="butt" d="m314.21176 228.11456l16.64685 0l0 17.217407l-16.64685 0z" fill-rule="evenodd"></path><path fill="#f3f3f3" d="m336.2876 228.11456l16.64685 0l0 17.217407l-16.64685 0z" fill-rule="evenodd"></path><path stroke="#666666" stroke-width="1.0" stroke-linejoin="round" stroke-linecap="butt" d="m336.2876 228.11456l16.64685 0l0 17.217407l-16.64685 0z" fill-rule="evenodd"></path><path fill="#f3f3f3" d="m358.3634 206.03874l16.64685 0l0 17.217407l-16.64685 0z" fill-rule="evenodd"></path><path stroke="#666666" stroke-width="1.0" stroke-linejoin="round" stroke-linecap="butt" d="m358.3634 206.03874l16.64685 0l0 17.217407l-16.64685 0z" fill-rule="evenodd"></path><path fill="#000000" d="m380.43924 206.03874l16.64685 0l0 17.217407l-16.64685 0z" fill-rule="evenodd"></path><path stroke="#666666" stroke-width="1.0" stroke-linejoin="round" stroke-linecap="butt" d="m380.43924 206.03874l16.64685 0l0 17.217407l-16.64685 0z" fill-rule="evenodd"></path><path fill="#f3f3f3" d="m358.3634 228.11456l16.64685 0l0 17.217407l-16.64685 0z" fill-rule="evenodd"></path><path stroke="#666666" stroke-width="1.0" stroke-linejoin="round" stroke-linecap="butt" d="m358.3634 228.11456l16.64685 0l0 17.217407l-16.64685 0z" fill-rule="evenodd"></path><path fill="#f3f3f3" d="m380.43924 228.11456l16.64685 0l0 17.217407l-16.64685 0z" fill-rule="evenodd"></path><path stroke="#666666" stroke-width="1.0" stroke-linejoin="round" stroke-linecap="butt" d="m380.43924 228.11456l16.64685 0l0 17.217407l-16.64685 0z" fill-rule="evenodd"></path><path fill="#ff0000" d="m588.02045 215.2549l16.64685 0l0 17.217407l-16.64685 0z" fill-rule="evenodd"></path><path stroke="#666666" stroke-width="1.0" stroke-linejoin="round" stroke-linecap="butt" d="m588.02045 215.2549l16.64685 0l0 17.217407l-16.64685 0z" fill-rule="evenodd"></path><path fill="#ff0000" d="m610.0963 215.2549l16.64685 0l0 17.217407l-16.64685 0z" fill-rule="evenodd"></path><path stroke="#666666" stroke-width="1.0" stroke-linejoin="round" stroke-linecap="butt" d="m610.0963 215.2549l16.64685 0l0 17.217407l-16.64685 0z" fill-rule="evenodd"></path><path fill="#f3f3f3" d="m588.02045 237.33072l16.64685 0l0 17.217407l-16.64685 0z" fill-rule="evenodd"></path><path stroke="#666666" stroke-width="1.0" stroke-linejoin="round" stroke-linecap="butt" d="m588.02045 237.33072l16.64685 0l0 17.217407l-16.64685 0z" fill-rule="evenodd"></path><path fill="#ff0000" d="m610.0963 237.33072l16.64685 0l0 17.217407l-16.64685 0z" fill-rule="evenodd"></path><path stroke="#666666" stroke-width="1.0" stroke-linejoin="round" stroke-linecap="butt" d="m610.0963 237.33072l16.64685 0l0 17.217407l-16.64685 0z" fill-rule="evenodd"></path><path fill="#f3f3f3" d="m632.1721 215.2549l16.64685 0l0 17.217407l-16.64685 0z" fill-rule="evenodd"></path><path stroke="#666666" stroke-width="1.0" stroke-linejoin="round" stroke-linecap="butt" d="m632.1721 215.2549l16.64685 0l0 17.217407l-16.64685 0z" fill-rule="evenodd"></path><path fill="#efefef" d="m654.2479 215.2549l16.64685 0l0 17.217407l-16.64685 0z" fill-rule="evenodd"></path><path stroke="#666666" stroke-width="1.0" stroke-linejoin="round" stroke-linecap="butt" d="m654.2479 215.2549l16.64685 0l0 17.217407l-16.64685 0z" fill-rule="evenodd"></path><path fill="#ff0000" d="m632.1721 237.33072l16.64685 0l0 17.217407l-16.64685 0z" fill-rule="evenodd"></path><path stroke="#666666" stroke-width="1.0" stroke-linejoin="round" stroke-linecap="butt" d="m632.1721 237.33072l16.64685 0l0 17.217407l-16.64685 0z" fill-rule="evenodd"></path><path fill="#f3f3f3" d="m654.2479 237.33072l16.64685 0l0 17.217407l-16.64685 0z" fill-rule="evenodd"></path><path stroke="#666666" stroke-width="1.0" stroke-linejoin="round" stroke-linecap="butt" d="m654.2479 237.33072l16.64685 0l0 17.217407l-16.64685 0z" fill-rule="evenodd"></path><path fill="#efefef" d="m588.02045 259.40656l16.64685 0l0 17.217407l-16.64685 0z" fill-rule="evenodd"></path><path stroke="#666666" stroke-width="1.0" stroke-linejoin="round" stroke-linecap="butt" d="m588.02045 259.40656l16.64685 0l0 17.217407l-16.64685 0z" fill-rule="evenodd"></path><path fill="#f3f3f3" d="m610.0963 259.40656l16.64685 0l0 17.217407l-16.64685 0z" fill-rule="evenodd"></path><path stroke="#666666" stroke-width="1.0" stroke-linejoin="round" stroke-linecap="butt" d="m610.0963 259.40656l16.64685 0l0 17.217407l-16.64685 0z" fill-rule="evenodd"></path><path fill="#f3f3f3" d="m588.02045 281.48236l16.64685 0l0 17.217407l-16.64685 0z" fill-rule="evenodd"></path><path stroke="#666666" stroke-width="1.0" stroke-linejoin="round" stroke-linecap="butt" d="m588.02045 281.48236l16.64685 0l0 17.217407l-16.64685 0z" fill-rule="evenodd"></path><path fill="#f3f3f3" d="m610.0963 281.48236l16.64685 0l0 17.217407l-16.64685 0z" fill-rule="evenodd"></path><path stroke="#666666" stroke-width="1.0" stroke-linejoin="round" stroke-linecap="butt" d="m610.0963 281.48236l16.64685 0l0 17.217407l-16.64685 0z" fill-rule="evenodd"></path><path fill="#ff0000" d="m632.1721 259.40656l16.64685 0l0 17.217407l-16.64685 0z" fill-rule="evenodd"></path><path stroke="#666666" stroke-width="1.0" stroke-linejoin="round" stroke-linecap="butt" d="m632.1721 259.40656l16.64685 0l0 17.217407l-16.64685 0z" fill-rule="evenodd"></path><path fill="#ff0000" d="m654.2479 259.40656l16.64685 0l0 17.217407l-16.64685 0z" fill-rule="evenodd"></path><path stroke="#666666" stroke-width="1.0" stroke-linejoin="round" stroke-linecap="butt" d="m654.2479 259.40656l16.64685 0l0 17.217407l-16.64685 0z" fill-rule="evenodd"></path><path fill="#f3f3f3" d="m632.1721 281.48236l16.64685 0l0 17.217407l-16.64685 0z" fill-rule="evenodd"></path><path stroke="#666666" stroke-width="1.0" stroke-linejoin="round" stroke-linecap="butt" d="m632.1721 281.48236l16.64685 0l0 17.217407l-16.64685 0z" fill-rule="evenodd"></path><path fill="#ff0000" d="m654.2479 281.48236l16.64685 0l0 17.217407l-16.64685 0z" fill-rule="evenodd"></path><path stroke="#666666" stroke-width="1.0" stroke-linejoin="round" stroke-linecap="butt" d="m654.2479 281.48236l16.64685 0l0 17.217407l-16.64685 0z" fill-rule="evenodd"></path><path fill="#000000" fill-opacity="0.0" d="m692.1622 161.87218l238.45667 0l0 53.13385l-238.45667 0z" fill-rule="evenodd"></path><path fill="#cc0000" d="m702.5528 188.79218l0 -13.59375l5.78125 0q2.1875 0 3.171875 0.359375q0.984375 0.359375 1.578125 1.296875q0.59375 0.9375 0.59375 2.15625q0 1.53125 -0.90625 2.53125q-0.890625 0.984375 -2.6875 1.25q0.890625 0.515625 1.46875 1.140625q0.578125 0.625 1.5625 2.203125l1.671875 2.65625l-3.296875 0l-1.984375 -2.953125q-1.046875 -1.59375 -1.4375 -2.0q-0.390625 -0.421875 -0.828125 -0.5625q-0.4375 -0.15625 -1.390625 -0.15625l-0.546875 0l0 5.671875l-2.75 0zm2.75 -7.84375l2.03125 0q1.96875 0 2.453125 -0.171875q0.5 -0.171875 0.78125 -0.578125q0.28125 -0.40625 0.28125 -1.015625q0 -0.6875 -0.375 -1.109375q-0.359375 -0.421875 -1.03125 -0.53125q-0.328125 -0.046875 -2.0 -0.046875l-2.140625 0l0 3.453125zm16.394775 4.703125l2.609375 0.4375q-0.5 1.4375 -1.59375 2.1875q-1.078125 0.734375 -2.703125 0.734375q-2.5625 0 -3.796875 -1.671875q-0.96875 -1.34375 -0.96875 -3.40625q0 -2.4375 1.265625 -3.828125q1.28125 -1.390625 3.25 -1.390625q2.1875 0 3.453125 1.453125q1.28125 1.453125 1.234375 4.453125l-6.53125 0q0.015625 1.15625 0.625 1.8125q0.609375 0.640625 1.5 0.640625q0.609375 0 1.03125 -0.328125q0.421875 -0.34375 0.625 -1.09375zm0.15625 -2.625q-0.03125 -1.140625 -0.59375 -1.71875q-0.546875 -0.59375 -1.34375 -0.59375q-0.859375 0 -1.40625 0.625q-0.5625 0.609375 -0.546875 1.6875l3.890625 0zm6.4694824 -1.078125l-2.359375 -0.4375q0.390625 -1.421875 1.359375 -2.109375q0.984375 -0.6875 2.90625 -0.6875q1.734375 0 2.59375 0.421875q0.859375 0.40625 1.203125 1.046875q0.34375 0.625 0.34375 2.328125l-0.03125 3.046875q0 1.296875 0.125 1.921875q0.125 0.609375 0.46875 1.3125l-2.578125 0q-0.09375 -0.265625 -0.25 -0.765625q-0.0625 -0.234375 -0.09375 -0.3125q-0.65625 0.65625 -1.421875 0.984375q-0.765625 0.3125 -1.625 0.3125q-1.515625 0 -2.40625 -0.8125q-0.875 -0.828125 -0.875 -2.09375q0 -0.84375 0.390625 -1.484375q0.40625 -0.65625 1.125 -1.0q0.71875 -0.359375 2.078125 -0.625q1.828125 -0.328125 2.53125 -0.625l0 -0.265625q0 -0.75 -0.375 -1.0625q-0.359375 -0.328125 -1.390625 -0.328125q-0.703125 0 -1.09375 0.28125q-0.390625 0.265625 -0.625 0.953125zm3.484375 2.109375q-0.5 0.171875 -1.59375 0.40625q-1.078125 0.234375 -1.40625 0.453125q-0.515625 0.359375 -0.515625 0.921875q0 0.546875 0.40625 0.953125q0.40625 0.390625 1.046875 0.390625q0.703125 0 1.34375 -0.46875q0.46875 -0.359375 0.625 -0.859375q0.09375 -0.34375 0.09375 -1.28125l0 -0.515625zm4.9382324 4.734375l0 -13.59375l2.609375 0l0 13.59375l-2.609375 0zm5.1832886 0l0 -13.59375l2.609375 0l0 13.59375l-2.609375 0zm3.9489136 -9.859375l2.78125 0l2.359375 7.0l2.296875 -7.0l2.703125 0l-3.484375 9.484375l-0.625 1.71875q-0.34375 0.859375 -0.65625 1.3125q-0.296875 0.46875 -0.703125 0.75q-0.40625 0.28125 -1.0 0.4375q-0.59375 0.15625 -1.328125 0.15625q-0.75 0 -1.46875 -0.15625l-0.234375 -2.046875q0.609375 0.125 1.09375 0.125q0.921875 0 1.34375 -0.53125q0.4375 -0.53125 0.671875 -1.359375l-3.75 -9.890625zm19.402771 -3.734375l0 5.0q1.25 -1.484375 3.015625 -1.484375q0.890625 0 1.609375 0.34375q0.734375 0.328125 1.09375 0.84375q0.375 0.515625 0.5 1.15625q0.140625 0.625 0.140625 1.953125l0 5.78125l-2.609375 0l0 -5.203125q0 -1.546875 -0.15625 -1.96875q-0.140625 -0.421875 -0.515625 -0.65625q-0.375 -0.25 -0.9375 -0.25q-0.65625 0 -1.171875 0.3125q-0.5 0.3125 -0.734375 0.953125q-0.234375 0.640625 -0.234375 1.875l0 4.9375l-2.609375 0l0 -13.59375l2.609375 0zm8.786621 2.40625l0 -2.40625l2.609375 0l0 2.40625l-2.609375 0zm0 11.1875l0 -9.859375l2.609375 0l0 9.859375l-2.609375 0zm4.9489136 0.65625l2.96875 0.359375q0.078125 0.515625 0.34375 0.703125q0.375 0.28125 1.171875 0.28125q1.03125 0 1.53125 -0.296875q0.34375 -0.203125 0.515625 -0.65625q0.125 -0.328125 0.125 -1.203125l0 -1.4375q-1.171875 1.59375 -2.953125 1.59375q-1.984375 0 -3.140625 -1.671875q-0.90625 -1.328125 -0.90625 -3.3125q0 -2.46875 1.1875 -3.78125q1.1875 -1.3125 2.96875 -1.3125q1.828125 0 3.015625 1.609375l0 -1.390625l2.4375 0l0 8.84375q0 1.75 -0.296875 2.609375q-0.28125 0.859375 -0.796875 1.34375q-0.515625 0.5 -1.390625 0.78125q-0.859375 0.28125 -2.1875 0.28125q-2.515625 0 -3.5625 -0.859375q-1.046875 -0.859375 -1.046875 -2.171875q0 -0.140625 0.015625 -0.3125zm2.328125 -5.78125q0 1.5625 0.609375 2.296875q0.609375 0.71875 1.5 0.71875q0.953125 0 1.609375 -0.734375q0.65625 -0.75 0.65625 -2.21875q0 -1.53125 -0.640625 -2.265625q-0.625 -0.75 -1.578125 -0.75q-0.9375 0 -1.546875 0.734375q-0.609375 0.71875 -0.609375 2.21875zm11.911621 -8.46875l0 5.0q1.25 -1.484375 3.015625 -1.484375q0.890625 0 1.609375 0.34375q0.734375 0.328125 1.09375 0.84375q0.375 0.515625 0.5 1.15625q0.140625 0.625 0.140625 1.953125l0 5.78125l-2.609375 0l0 -5.203125q0 -1.546875 -0.15625 -1.96875q-0.140625 -0.421875 -0.515625 -0.65625q-0.375 -0.25 -0.9375 -0.25q-0.65625 0 -1.171875 0.3125q-0.5 0.3125 -0.734375 0.953125q-0.234375 0.640625 -0.234375 1.875l0 4.9375l-2.609375 0l0 -13.59375l2.609375 0zm13.96991 13.59375l0 -13.59375l2.609375 0l0 13.59375l-2.609375 0zm4.5895386 -5.0625q0 -1.296875 0.640625 -2.515625q0.640625 -1.21875 1.8125 -1.859375q1.171875 -0.640625 2.609375 -0.640625q2.25 0 3.671875 1.453125q1.421875 1.453125 1.421875 3.671875q0 2.234375 -1.4375 3.703125q-1.4375 1.46875 -3.625 1.46875q-1.359375 0 -2.59375 -0.609375q-1.21875 -0.609375 -1.859375 -1.796875q-0.640625 -1.1875 -0.640625 -2.875zm2.671875 0.140625q0 1.46875 0.6875 2.25q0.703125 0.765625 1.71875 0.765625q1.015625 0 1.703125 -0.765625q0.703125 -0.78125 0.703125 -2.265625q0 -1.453125 -0.703125 -2.234375q-0.6875 -0.78125 -1.703125 -0.78125q-1.015625 0 -1.71875 0.78125q-0.6875 0.78125 -0.6875 2.25zm8.411621 2.109375l2.609375 -0.390625q0.171875 0.75 0.671875 1.15625q0.515625 0.390625 1.4375 0.390625q1.0 0 1.515625 -0.375q0.34375 -0.265625 0.34375 -0.703125q0 -0.296875 -0.1875 -0.484375q-0.1875 -0.1875 -0.875 -0.34375q-3.140625 -0.703125 -4.0 -1.265625q-1.15625 -0.796875 -1.15625 -2.21875q0 -1.28125 1.0 -2.15625q1.015625 -0.875 3.140625 -0.875q2.03125 0 3.0 0.65625q0.984375 0.65625 1.359375 1.953125l-2.453125 0.453125q-0.15625 -0.578125 -0.609375 -0.875q-0.4375 -0.3125 -1.25 -0.3125q-1.03125 0 -1.46875 0.296875q-0.296875 0.203125 -0.296875 0.515625q0 0.28125 0.25 0.484375q0.359375 0.25 2.4375 0.734375q2.078125 0.46875 2.90625 1.15625q0.828125 0.6875 0.828125 1.9375q0 1.359375 -1.140625 2.328125q-1.125 0.96875 -3.34375 0.96875q-2.015625 0 -3.1875 -0.8125q-1.171875 -0.8125 -1.53125 -2.21875zm10.375732 0l2.609375 -0.390625q0.171875 0.75 0.671875 1.15625q0.515625 0.390625 1.4375 0.390625q1.0 0 1.515625 -0.375q0.34375 -0.265625 0.34375 -0.703125q0 -0.296875 -0.1875 -0.484375q-0.1875 -0.1875 -0.875 -0.34375q-3.140625 -0.703125 -4.0 -1.265625q-1.15625 -0.796875 -1.15625 -2.21875q0 -1.28125 1.0 -2.15625q1.015625 -0.875 3.140625 -0.875q2.03125 0 3.0 0.65625q0.984375 0.65625 1.359375 1.953125l-2.453125 0.453125q-0.15625 -0.578125 -0.609375 -0.875q-0.4375 -0.3125 -1.25 -0.3125q-1.03125 0 -1.46875 0.296875q-0.296875 0.203125 -0.296875 0.515625q0 0.28125 0.25 0.484375q0.359375 0.25 2.4375 0.734375q2.078125 0.46875 2.90625 1.15625q0.828125 0.6875 0.828125 1.9375q0 1.359375 -1.140625 2.328125q-1.125 0.96875 -3.34375 0.96875q-2.015625 0 -3.1875 -0.8125q-1.171875 -0.8125 -1.53125 -2.21875z" fill-rule="nonzero"></path></g></svg>

