<?xml version="1.0" standalone="yes"?>

<svg version="1.1" viewBox="0.0 0.0 960.0 540.0" fill="none" stroke="none" stroke-linecap="square" stroke-miterlimit="10" xmlns="http://www.w3.org/2000/svg" xmlns:xlink="http://www.w3.org/1999/xlink"><clipPath id="p.0"><path d="m0 0l960.0 0l0 540.0l-960.0 0l0 -540.0z" clip-rule="nonzero"></path></clipPath><g clip-path="url(#p.0)"><path fill="#ffffff" d="m0 0l960.0 0l0 540.0l-960.0 0z" fill-rule="evenodd"></path><path fill="#000000" fill-opacity="0.0" d="m32.725285 75.69292l894.5512 0l0 215.49605l-894.5512 0z" fill-rule="evenodd"></path><path fill="#000000" d="m287.5506 217.15523l38.328125 0l0 10.109375l-25.640625 0l0 9.09375l23.15625 0l0 10.046875l-23.15625 0.078125l0 9.140625l26.34375 0l0 10.124985l-39.03125 0l0 -48.593735zm79.99957 0l11.78125 0l0 48.593735l-11.09375 0l-22.046875 -29.04686l0 29.04686l-11.84375 0l0 -48.593735l11.15625 0l22.109375 29.25l-0.0625 -29.25zm21.288757 0l12.6875 0l0 19.828125l19.609375 0l0 -19.828125l12.6875 0l0 48.593735l-12.6875 0l0 -18.656235l-19.609375 0l0 18.656235l-12.6875 0l0 -48.593735zm90.12564 48.593735l-3.328125 -8.59375l-21.015625 0l-3.390625 8.59375l-13.03125 0l20.859375 -48.593735l13.046875 0l20.375 48.593735l-13.515625 0zm-20.53125 -18.29686l13.453125 0l-6.65625 -17.34375l-6.796875 17.34375zm71.62186 -30.296875l11.78125 0l0 48.593735l-11.09375 0l-22.046875 -29.04686l0 29.04686l-11.84375 0l0 -48.593735l11.15625 0l22.109375 29.25l-0.0625 -29.25zm56.429382 16.5q-2.359375 -2.984375 -5.625 -4.75q-3.25 -1.765625 -6.4375 -1.765625q-3.671875 0 -6.6875 1.84375q-3.015625 1.828125 -4.75 5.046875q-1.734375 3.21875 -1.734375 7.171875q0 3.953125 1.734375 7.1875q1.734375 3.21875 4.75 5.0625q3.015625 1.828125 6.6875 1.828125q2.984375 0 6.234375 -1.515625q3.265625 -1.53125 5.828125 -4.171875l7.421875 7.9687347q-3.953125 4.171875 -9.390625 6.640625q-5.4375 2.453125 -10.78125 2.453125q-7.21875 0 -13.046875 -3.328125q-5.8125 -3.328125 -9.140625 -9.07811q-3.328125 -5.765625 -3.328125 -12.90625q0 -7.0625 3.390625 -12.75q3.40625 -5.6875 9.328125 -8.9375q5.9375 -3.265625 13.28125 -3.265625q5.40625 0 10.671875 2.25q5.265625 2.25 8.953125 6.140625l-7.359375 8.875zm12.834351 -16.5l38.328125 0l0 10.109375l-25.640625 0l0 9.09375l23.15625 0l0 10.046875l-23.15625 0.078125l0 9.140625l26.34375 0l0 10.124985l-39.03125 0l0 -48.593735zm45.608948 0.265625l11.71875 0l0 12.421875l-2.140625 19.0625l-7.421875 0l-2.15625 -19.0625l0 -12.421875zm5.625 36.890625q2.625 0 4.28125 1.671875q1.671875 1.6562347 1.671875 4.2812347q0 2.640625 -1.671875 4.34375q-1.65625 1.6875 -4.28125 1.6875q-2.5625 0 -4.234375 -1.6875q-1.65625 -1.703125 -1.65625 -4.34375q0 -2.625 1.625 -4.2812347q1.625 -1.671875 4.265625 -1.671875zm12.261658 -36.890625l11.71875 0l0 12.421875l-2.140625 19.0625l-7.421875 0l-2.15625 -19.0625l0 -12.421875zm5.625 36.890625q2.625 0 4.28125 1.671875q1.671875 1.6562347 1.671875 4.2812347q0 2.640625 -1.671875 4.34375q-1.65625 1.6875 -4.28125 1.6875q-2.5625 0 -4.234375 -1.6875q-1.65625 -1.703125 -1.65625 -4.34375q0 -2.625 1.625 -4.2812347q1.625 -1.671875 4.265625 -1.671875z" fill-rule="nonzero"></path><path fill="#000000" fill-opacity="0.0" d="m32.72441 297.54593l894.55115 0l0 83.212616l-894.55115 0z" fill-rule="evenodd"></path><path fill="#595959" d="m388.29837 337.19843q0 1.125 0.546875 1.703125q0.546875 0.578125 1.40625 0.578125q1.03125 0 1.90625 -0.890625q0.890625 -0.90625 1.390625 -2.5q0.5 -1.609375 0.5 -3.671875q0 -3.921875 -1.734375 -7.046875q-1.734375 -3.140625 -4.921875 -4.921875q-3.1875 -1.796875 -7.375 -1.796875q-4.0 0 -7.328125 1.828125q-3.3125 1.828125 -5.21875 5.0q-1.90625 3.171875 -1.90625 6.984375q0 3.71875 1.828125 6.734375q1.84375 3.0 5.03125 4.6875q3.1875 1.703125 7.109375 1.703125q1.71875 0 3.671875 -0.546875q1.96875 -0.53125 3.421875 -1.53125l1.265625 2.34375q-1.609375 1.078125 -3.96875 1.75q-2.34375 0.671875 -4.390625 0.671875q-4.703125 0 -8.5 -2.046875q-3.78125 -2.046875 -5.953125 -5.671875q-2.15625 -3.625 -2.15625 -8.09375q0 -4.59375 2.25 -8.34375q2.265625 -3.765625 6.15625 -5.90625q3.90625 -2.140625 8.6875 -2.140625q4.734375 0 8.5625 2.09375q3.828125 2.078125 5.984375 5.796875q2.171875 3.71875 2.171875 8.34375q0 2.84375 -0.859375 4.984375q-0.859375 2.140625 -2.40625 3.328125q-1.546875 1.171875 -3.5625 1.171875q-1.671875 0 -2.78125 -0.84375q-1.09375 -0.84375 -1.328125 -2.40625l-0.078125 -1.046875q-1.109375 1.859375 -2.921875 2.84375q-1.8125 0.96875 -4.015625 0.96875q-2.34375 0 -4.359375 -1.140625q-2.015625 -1.140625 -3.21875 -3.1875q-1.1875 -2.0625 -1.1875 -4.640625q0 -2.5 1.0625 -4.5625q1.0625 -2.078125 3.0 -3.265625q1.9375 -1.203125 4.40625 -1.203125q1.609375 0 2.96875 0.546875q1.359375 0.53125 2.296875 1.296875q0.9375 0.765625 1.265625 1.484375l0 -3.03125l3.28125 0l0 13.59375zm-9.21875 -10.71875q-1.609375 0 -2.859375 0.765625q-1.25 0.765625 -1.953125 2.078125q-0.703125 1.296875 -0.703125 2.875q0 1.640625 0.703125 3.0q0.703125 1.359375 1.984375 2.15625q1.296875 0.78125 2.90625 0.78125q2.5 0 4.0625 -1.671875q1.578125 -1.6875 1.578125 -4.234375q0 -1.609375 -0.71875 -2.90625q-0.703125 -1.3125 -2.015625 -2.078125q-1.296875 -0.765625 -2.984375 -0.765625zm39.90027 -3.84375l0 17.734375q0 2.84375 -1.25 4.96875q-1.25 2.125 -3.53125 3.265625q-2.265625 1.140625 -5.296875 1.140625q-4.359375 0 -8.125 -2.765625l1.53125 -2.546875q1.453125 1.203125 3.015625 1.78125q1.5625 0.578125 3.4375 0.578125q3.0625 0 4.890625 -1.71875q1.828125 -1.71875 1.828125 -4.59375l0 -2.765625q-1.046875 1.796875 -2.84375 2.796875q-1.78125 0.984375 -4.09375 0.984375q-2.65625 0 -4.6875 -1.21875q-2.03125 -1.21875 -3.15625 -3.375q-1.125 -2.171875 -1.125 -4.96875q0 -2.765625 1.125 -4.890625q1.125 -2.125 3.15625 -3.3125q2.03125 -1.203125 4.6875 -1.203125q2.34375 0 4.109375 0.96875q1.78125 0.96875 2.828125 2.765625l0 -3.625l3.5 0zm-9.765625 16.046875q1.828125 0 3.234375 -0.84375q1.421875 -0.859375 2.21875 -2.375q0.8125 -1.515625 0.8125 -3.421875q0 -1.9375 -0.8125 -3.4375q-0.796875 -1.515625 -2.21875 -2.375q-1.40625 -0.859375 -3.234375 -0.859375q-1.84375 0 -3.28125 0.859375q-1.421875 0.859375 -2.25 2.375q-0.828125 1.5 -0.828125 3.4375q0.046875 2.921875 1.796875 4.78125q1.75 1.859375 4.5625 1.859375zm24.03415 -16.15625q4.59375 0 6.9375 2.703125q2.359375 2.703125 2.359375 7.53125q0 0.734375 -0.046875 1.109375l-15.59375 0q0.40625 2.65625 2.21875 4.234375q1.8125 1.5625 4.453125 1.5625q1.765625 0 3.265625 -0.640625q1.515625 -0.640625 2.640625 -1.796875l1.90625 1.984375q-1.453125 1.5625 -3.515625 2.421875q-2.046875 0.859375 -4.546875 0.859375q-2.921875 0 -5.1875 -1.25q-2.25 -1.25 -3.5 -3.515625q-1.25 -2.28125 -1.25 -5.203125q0 -2.90625 1.25 -5.15625q1.25 -2.265625 3.484375 -3.546875q2.25 -1.296875 5.125 -1.296875zm6.15625 8.65625q-0.15625 -2.6875 -1.796875 -4.234375q-1.640625 -1.546875 -4.328125 -1.546875q-2.609375 0 -4.34375 1.578125q-1.734375 1.5625 -2.078125 4.203125l12.546875 0zm16.08963 -8.65625q2.953125 0 5.25 1.28125q2.296875 1.265625 3.578125 3.53125q1.28125 2.25 1.28125 5.15625q0 2.90625 -1.28125 5.1875q-1.28125 2.28125 -3.578125 3.546875q-2.296875 1.265625 -5.25 1.265625q-2.984375 0 -5.28125 -1.265625q-2.296875 -1.265625 -3.59375 -3.515625q-1.28125 -2.265625 -1.28125 -5.21875q0 -2.90625 1.28125 -5.15625q1.296875 -2.265625 3.59375 -3.53125q2.296875 -1.28125 5.28125 -1.28125zm0 3.03125q-1.9375 0 -3.453125 0.890625q-1.515625 0.890625 -2.359375 2.484375q-0.828125 1.578125 -0.828125 3.59375q0 2.0625 0.828125 3.671875q0.84375 1.59375 2.359375 2.46875q1.515625 0.875 3.453125 0.875q1.90625 0 3.40625 -0.875q1.515625 -0.875 2.359375 -2.46875q0.84375 -1.609375 0.84375 -3.671875q0 -2.015625 -0.84375 -3.59375q-0.84375 -1.59375 -2.359375 -2.484375q-1.5 -0.890625 -3.40625 -0.890625zm22.243347 -8.0q-1.34375 0 -2.234375 0.828125q-0.890625 0.8125 -0.890625 2.34375l0 2.578125l5.4375 0l0 2.65625l-5.4375 0l0 16.421875l-3.484375 0l0 -16.421875l-2.5625 0l0 -2.65625l2.5625 0l0 -2.125q0 -2.171875 0.90625 -3.671875q0.921875 -1.515625 2.421875 -2.28125q1.5 -0.765625 3.203125 -0.765625q1.65625 0 3.4375 0.890625l-0.8125 2.84375q-1.34375 -0.640625 -2.546875 -0.640625zm12.766235 0q-1.34375 0 -2.234375 0.828125q-0.890625 0.8125 -0.890625 2.34375l0 2.578125l5.4375 0l0 2.65625l-5.4375 0l0 16.421875l-3.484375 0l0 -16.421875l-2.5625 0l0 -2.65625l2.5625 0l0 -2.125q0 -2.171875 0.90625 -3.671875q0.921875 -1.515625 2.421875 -2.28125q1.5 -0.765625 3.203125 -0.765625q1.65625 0 3.4375 0.890625l-0.8125 2.84375q-1.34375 -0.640625 -2.546875 -0.640625zm8.969421 9.34375q0.96875 -2.140625 2.75 -3.234375q1.796875 -1.109375 4.265625 -1.140625l0 3.359375q-3.03125 -0.109375 -4.90625 1.578125q-1.859375 1.671875 -2.109375 4.5l0 10.421875l-3.484375 0l0 -19.75l3.484375 0l0 4.265625zm18.696869 -4.375q4.59375 0 6.9375 2.703125q2.359375 2.703125 2.359375 7.53125q0 0.734375 -0.046875 1.109375l-15.59375 0q0.40625 2.65625 2.21875 4.234375q1.8125 1.5625 4.453125 1.5625q1.765625 0 3.265625 -0.640625q1.515625 -0.640625 2.640625 -1.796875l1.90625 1.984375q-1.453125 1.5625 -3.515625 2.421875q-2.046875 0.859375 -4.546875 0.859375q-2.921875 0 -5.1875 -1.25q-2.25 -1.25 -3.5 -3.515625q-1.25 -2.28125 -1.25 -5.203125q0 -2.90625 1.25 -5.15625q1.25 -2.265625 3.484375 -3.546875q2.25 -1.296875 5.125 -1.296875zm6.15625 8.65625q-0.15625 -2.6875 -1.796875 -4.234375q-1.640625 -1.546875 -4.328125 -1.546875q-2.609375 0 -4.34375 1.578125q-1.734375 1.5625 -2.078125 4.203125l12.546875 0zm14.777161 14.0q-0.921875 2.28125 -2.484375 3.4375q-1.546875 1.15625 -3.625 1.15625q-1.28125 0 -2.328125 -0.375q-1.03125 -0.375 -2.015625 -1.15625l1.5 -2.71875q1.3125 0.921875 2.65625 0.921875q2.234375 0 3.359375 -2.53125l0.734375 -1.75l-8.171875 -19.53125l3.65625 0l6.28125 15.828125l5.9375 -15.828125l3.546875 0l-9.046875 22.546875zm12.467957 -30.5l3.484375 0l0 27.703125l-3.484375 0l0 -27.703125zm10.45105 7.953125l3.484375 0l0 19.75l-3.484375 0l0 -19.75zm1.71875 -7.875q0.9375 0 1.546875 0.640625q0.625 0.625 0.625 1.59375q0 0.984375 -0.625 1.625q-0.609375 0.625 -1.546875 0.625q-0.9375 0 -1.5625 -0.625q-0.609375 -0.640625 -0.609375 -1.625q0 -0.96875 0.609375 -1.59375q0.625 -0.640625 1.5625 -0.640625zm19.118591 26.3125q-2.28125 1.46875 -4.625 1.46875q-2.359375 0 -3.8125 -1.40625q-1.453125 -1.40625 -1.453125 -4.234375l0 -10.9375l-2.796875 0l0 -2.65625l2.796875 0l0 -5.296875l3.5 0l0 5.296875l6.046875 0l0 2.65625l-6.046875 0l0 10.296875q0 1.640625 0.59375 2.359375q0.609375 0.703125 1.796875 0.703125q1.421875 0 3.0625 -0.9375l0.9375 2.6875zm14.819275 0q-2.28125 1.46875 -4.625 1.46875q-2.359375 0 -3.8125 -1.40625q-1.453125 -1.40625 -1.453125 -4.234375l0 -10.9375l-2.796875 0l0 -2.65625l2.796875 0l0 -5.296875l3.5 0l0 5.296875l6.046875 0l0 2.65625l-6.046875 0l0 10.296875q0 1.640625 0.59375 2.359375q0.609375 0.703125 1.796875 0.703125q1.421875 0 3.0625 -0.9375l0.9375 2.6875z" fill-rule="nonzero"></path></g></svg>

