<?xml version="1.0" standalone="yes"?>

<svg version="1.1" viewBox="0.0 0.0 960.0 540.0" fill="none" stroke="none" stroke-linecap="square" stroke-miterlimit="10" xmlns="http://www.w3.org/2000/svg" xmlns:xlink="http://www.w3.org/1999/xlink"><clipPath id="g1f3229aee9_0_52.0"><path d="m0 0l960.0 0l0 540.0l-960.0 0l0 -540.0z" clip-rule="nonzero"></path></clipPath><g clip-path="url(#g1f3229aee9_0_52.0)"><path fill="#ffffff" d="m0 0l960.0 0l0 540.0l-960.0 0z" fill-rule="evenodd"></path><path fill="#eeeeee" d="m136.80975 222.09164l41.970383 0l0 41.970398l-41.970383 0z" fill-rule="evenodd"></path><path fill="#000000" d="m192.27281 222.09164l41.970383 0l0 41.970398l-41.970383 0z" fill-rule="evenodd"></path><path fill="#999999" d="m136.80975 275.93927l41.970383 0l0 41.970398l-41.970383 0z" fill-rule="evenodd"></path><path fill="#cccccc" d="m192.27281 275.93927l41.970383 0l0 41.970398l-41.970383 0z" fill-rule="evenodd"></path><path fill="#eeeeee" d="m399.65512 204.30026l41.970398 0l0 41.970398l-41.970398 0z" fill-rule="evenodd"></path><path fill="#000000" d="m511.5864 204.30026l41.97043 0l0 41.970398l-41.97043 0z" fill-rule="evenodd"></path><path fill="#999999" d="m399.65512 305.93384l41.970398 0l0 41.970398l-41.970398 0z" fill-rule="evenodd"></path><path fill="#cccccc" d="m511.5864 305.93384l41.97043 0l0 41.970398l-41.97043 0z" fill-rule="evenodd"></path><path fill="#000000" fill-opacity="0.0" d="m455.62076 204.30026l41.970398 0l0 41.970398l-41.970398 0z" fill-rule="evenodd"></path><path stroke="#dd7e6b" stroke-width="1.0" stroke-linejoin="round" stroke-linecap="butt" d="m455.62076 204.30026l41.970398 0l0 41.970398l-41.970398 0z" fill-rule="evenodd"></path><path fill="#000000" fill-opacity="0.0" d="m455.62076 255.11705l41.970398 0l0 41.970383l-41.970398 0z" fill-rule="evenodd"></path><path stroke="#dd7e6b" stroke-width="1.0" stroke-linejoin="round" stroke-linecap="butt" d="m455.62076 255.11705l41.970398 0l0 41.970383l-41.970398 0z" fill-rule="evenodd"></path><path fill="#000000" fill-opacity="0.0" d="m511.5864 255.11449l41.97043 0l0 41.970383l-41.97043 0z" fill-rule="evenodd"></path><path stroke="#dd7e6b" stroke-width="1.0" stroke-linejoin="round" stroke-linecap="butt" d="m511.5864 255.11449l41.97043 0l0 41.970383l-41.97043 0z" fill-rule="evenodd"></path><path fill="#000000" fill-opacity="0.0" d="m399.65512 255.11449l41.970398 0l0 41.970383l-41.970398 0z" fill-rule="evenodd"></path><path stroke="#dd7e6b" stroke-width="1.0" stroke-linejoin="round" stroke-linecap="butt" d="m399.65512 255.11449l41.970398 0l0 41.970383l-41.970398 0z" fill-rule="evenodd"></path><path fill="#000000" fill-opacity="0.0" d="m455.62076 305.93384l41.970398 0l0 41.970398l-41.970398 0z" fill-rule="evenodd"></path><path stroke="#dd7e6b" stroke-width="1.0" stroke-linejoin="round" stroke-linecap="butt" d="m455.62076 305.93384l41.970398 0l0 41.970398l-41.970398 0z" fill-rule="evenodd"></path><path fill="#eeeeee" d="m701.6529 204.30026l41.970337 0l0 41.970398l-41.970337 0z" fill-rule="evenodd"></path><path fill="#000000" d="m813.58417 204.30026l41.970398 0l0 41.970398l-41.970398 0z" fill-rule="evenodd"></path><path fill="#999999" d="m701.6529 305.93384l41.970337 0l0 41.970398l-41.970337 0z" fill-rule="evenodd"></path><path fill="#cccccc" d="m813.58417 305.93384l41.970398 0l0 41.970398l-41.970398 0z" fill-rule="evenodd"></path><path fill="#999999" d="m757.6185 204.30026l41.970398 0l0 41.970398l-41.970398 0z" fill-rule="evenodd"></path><path fill="#b7b7b7" d="m757.6185 255.11705l41.970398 0l0 41.970383l-41.970398 0z" fill-rule="evenodd"></path><path fill="#666666" d="m813.58417 255.11449l41.970398 0l0 41.970383l-41.970398 0z" fill-rule="evenodd"></path><path fill="#cccccc" d="m701.6529 255.11449l41.970337 0l0 41.970383l-41.970337 0z" fill-rule="evenodd"></path><path fill="#b7b7b7" d="m757.6185 305.93384l41.970398 0l0 41.970398l-41.970398 0z" fill-rule="evenodd"></path><path fill="#000000" fill-opacity="0.0" d="m32.72441 46.721786l894.55115 0l0 60.125984l-894.55115 0z" fill-rule="evenodd"></path><path fill="#000000" d="m44.427536 91.56178l0 -26.484375l9.9375 0q3.046875 0 4.875 0.8125q1.828125 0.796875 2.859375 2.46875q1.046875 1.671875 1.046875 3.5q0 1.6875 -0.921875 3.1875q-0.921875 1.5 -2.78125 2.421875q2.40625 0.703125 3.6875 2.40625q1.296875 1.703125 1.296875 4.015625q0 1.859375 -0.78125 3.453125q-0.78125 1.59375 -1.9375 2.46875q-1.15625 0.859375 -2.90625 1.3125q-1.734375 0.4375 -4.265625 0.4375l-10.109375 0zm3.515625 -15.359375l5.71875 0q2.328125 0 3.34375 -0.296875q1.34375 -0.40625 2.015625 -1.328125q0.671875 -0.921875 0.671875 -2.3125q0 -1.3125 -0.625 -2.3125q-0.625 -1.015625 -1.8125 -1.375q-1.171875 -0.375 -4.015625 -0.375l-5.296875 0l0 8.0zm0 12.234375l6.59375 0q1.6875 0 2.375 -0.125q1.21875 -0.21875 2.03125 -0.71875q0.8125 -0.515625 1.328125 -1.46875q0.53125 -0.96875 0.53125 -2.234375q0 -1.484375 -0.765625 -2.578125q-0.75 -1.09375 -2.09375 -1.53125q-1.34375 -0.453125 -3.875 -0.453125l-6.125 0l0 9.109375zm21.131943 -19.625l0 -3.734375l3.25 0l0 3.734375l-3.25 0zm0 22.75l0 -19.1875l3.25 0l0 19.1875l-3.25 0zm20.793121 -7.03125l3.203125 0.421875q-0.515625 3.296875 -2.6875 5.171875q-2.15625 1.875 -5.296875 1.875q-3.9375 0 -6.328125 -2.578125q-2.390625 -2.578125 -2.390625 -7.375q0 -3.109375 1.015625 -5.4375q1.03125 -2.34375 3.140625 -3.5q2.109375 -1.171875 4.578125 -1.171875q3.125 0 5.109375 1.59375q2.0 1.578125 2.546875 4.484375l-3.15625 0.484375q-0.453125 -1.9375 -1.609375 -2.90625q-1.140625 -0.984375 -2.765625 -0.984375q-2.453125 0 -4.0 1.765625q-1.53125 1.765625 -1.53125 5.578125q0 3.859375 1.484375 5.625q1.484375 1.75 3.875 1.75q1.90625 0 3.1875 -1.171875q1.28125 -1.1875 1.625 -3.625zm18.726562 7.03125l0 -2.8125q-2.25 3.25 -6.09375 3.25q-1.6875 0 -3.171875 -0.65625q-1.46875 -0.65625 -2.1875 -1.640625q-0.703125 -0.984375 -1.0 -2.40625q-0.203125 -0.953125 -0.203125 -3.03125l0 -11.890625l3.265625 0l0 10.640625q0 2.546875 0.1875 3.4375q0.3125 1.28125 1.296875 2.015625q1.0 0.734375 2.46875 0.734375q1.453125 0 2.734375 -0.75q1.296875 -0.75 1.828125 -2.046875q0.53125 -1.296875 0.53125 -3.75l0 -10.28125l3.25 0l0 19.1875l-2.90625 0zm11.182007 0l-3.015625 0l0 -26.484375l3.25 0l0 9.453125q2.0625 -2.59375 5.265625 -2.59375q1.765625 0 3.34375 0.71875q1.578125 0.71875 2.59375 2.015625q1.03125 1.28125 1.609375 3.109375q0.578125 1.828125 0.578125 3.90625q0 4.921875 -2.4375 7.625q-2.4375 2.6875 -5.859375 2.6875q-3.390625 0 -5.328125 -2.84375l0 2.40625zm-0.03125 -9.734375q0 3.453125 0.9375 4.984375q1.53125 2.515625 4.15625 2.515625q2.125 0 3.671875 -1.84375q1.5625 -1.859375 1.5625 -5.53125q0 -3.765625 -1.5 -5.546875q-1.484375 -1.796875 -3.59375 -1.796875q-2.125 0 -3.6875 1.859375q-1.546875 1.84375 -1.546875 5.359375zm17.807007 -13.015625l0 -3.734375l3.25 0l0 3.734375l-3.25 0zm0 22.75l0 -19.1875l3.25 0l0 19.1875l-3.25 0zm20.793121 -7.03125l3.203125 0.421875q-0.515625 3.296875 -2.6875 5.171875q-2.15625 1.875 -5.296875 1.875q-3.9375 0 -6.328125 -2.578125q-2.390625 -2.578125 -2.390625 -7.375q0 -3.109375 1.015625 -5.4375q1.03125 -2.34375 3.140625 -3.5q2.109375 -1.171875 4.578125 -1.171875q3.125 0 5.109375 1.59375q2.0 1.578125 2.546875 4.484375l-3.15625 0.484375q-0.453125 -1.9375 -1.609375 -2.90625q-1.140625 -0.984375 -2.765625 -0.984375q-2.453125 0 -4.0 1.765625q-1.53125 1.765625 -1.53125 5.578125q0 3.859375 1.484375 5.625q1.484375 1.75 3.875 1.75q1.90625 0 3.1875 -1.171875q1.28125 -1.1875 1.625 -3.625zm16.535019 -15.71875l0 -3.734375l3.25 0l0 3.734375l-3.25 0zm0 22.75l0 -19.1875l3.25 0l0 19.1875l-3.25 0zm8.277496 0l0 -19.1875l2.921875 0l0 2.734375q2.125 -3.171875 6.109375 -3.171875q1.734375 0 3.1875 0.625q1.453125 0.625 2.171875 1.640625q0.734375 1.015625 1.015625 2.40625q0.1875 0.890625 0.1875 3.15625l0 11.796875l-3.25 0l0 -11.671875q0 -1.984375 -0.390625 -2.96875q-0.375 -0.984375 -1.34375 -1.5625q-0.953125 -0.59375 -2.265625 -0.59375q-2.078125 0 -3.59375 1.3125q-1.5 1.3125 -1.5 5.0l0 10.484375l-3.25 0zm27.869507 -2.90625l0.46875 2.875q-1.375 0.28125 -2.46875 0.28125q-1.765625 0 -2.75 -0.5625q-0.96875 -0.5625 -1.375 -1.46875q-0.390625 -0.90625 -0.390625 -3.84375l0 -11.03125l-2.375 0l0 -2.53125l2.375 0l0 -4.75l3.234375 -1.953125l0 6.703125l3.28125 0l0 2.53125l-3.28125 0l0 11.21875q0 1.390625 0.171875 1.796875q0.171875 0.390625 0.5625 0.625q0.390625 0.234375 1.109375 0.234375q0.546875 0 1.4375 -0.125zm16.402206 -3.265625l3.359375 0.40625q-0.796875 2.953125 -2.953125 4.578125q-2.140625 1.625 -5.484375 1.625q-4.21875 0 -6.6875 -2.59375q-2.453125 -2.59375 -2.453125 -7.28125q0 -4.828125 2.484375 -7.5q2.5 -2.6875 6.46875 -2.6875q3.859375 0 6.296875 2.625q2.4375 2.625 2.4375 7.375q0 0.28125 -0.015625 0.859375l-14.3125 0q0.171875 3.171875 1.78125 4.859375q1.609375 1.671875 4.015625 1.671875q1.78125 0 3.046875 -0.9375q1.265625 -0.953125 2.015625 -3.0zm-10.6875 -5.265625l10.71875 0q-0.21875 -2.421875 -1.234375 -3.625q-1.546875 -1.890625 -4.015625 -1.890625q-2.25 0 -3.78125 1.5q-1.515625 1.5 -1.6875 4.015625zm18.275757 11.4375l0 -19.1875l2.921875 0l0 2.90625q1.125 -2.03125 2.0625 -2.6875q0.953125 -0.65625 2.09375 -0.65625q1.640625 0 3.34375 1.046875l-1.125 3.015625q-1.1875 -0.703125 -2.375 -0.703125q-1.078125 0 -1.921875 0.640625q-0.84375 0.640625 -1.203125 1.78125q-0.546875 1.734375 -0.546875 3.796875l0 10.046875l-3.25 0zm12.461807 7.359375l0 -26.546875l2.96875 0l0 2.5q1.046875 -1.46875 2.359375 -2.203125q1.328125 -0.734375 3.2031097 -0.734375q2.453125 0 4.328125 1.265625q1.890625 1.265625 2.84375 3.578125q0.953125 2.296875 0.953125 5.046875q0 2.9375 -1.0625 5.296875q-1.046875 2.359375 -3.0625 3.625q-2.015625 1.25 -4.2343597 1.25q-1.625 0 -2.921875 -0.6875q-1.296875 -0.6875 -2.125 -1.734375l0 9.34375l-3.25 0zm2.953125 -16.84375q0 3.703125 1.5 5.484375q1.5 1.765625 3.625 1.765625q2.1718597 0 3.7031097 -1.828125q1.546875 -1.84375 1.546875 -5.6875q0 -3.671875 -1.515625 -5.5q-1.5 -1.828125 -3.5937347 -1.828125q-2.078125 0 -3.671875 1.953125q-1.59375 1.9375 -1.59375 5.640625zm16.603867 -0.109375q0 -5.328125 2.953125 -7.890625q2.484375 -2.140625 6.03125 -2.140625q3.96875 0 6.46875 2.59375q2.515625 2.59375 2.515625 7.171875q0 3.703125 -1.109375 5.828125q-1.109375 2.109375 -3.234375 3.296875q-2.125 1.171875 -4.640625 1.171875q-4.015625 0 -6.5 -2.578125q-2.484375 -2.59375 -2.484375 -7.453125zm3.34375 0q0 3.6875 1.59375 5.53125q1.609375 1.828125 4.046875 1.828125q2.421875 0 4.03125 -1.84375q1.609375 -1.84375 1.609375 -5.625q0 -3.5625 -1.625 -5.390625q-1.609375 -1.828125 -4.015625 -1.828125q-2.4375 0 -4.046875 1.828125q-1.59375 1.8125 -1.59375 5.5zm18.541382 9.59375l0 -26.484375l3.265625 0l0 26.484375l-3.265625 0zm20.886871 -2.359375q-1.796875 1.53125 -3.46875 2.171875q-1.671875 0.625 -3.59375 0.625q-3.15625 0 -4.859375 -1.546875q-1.6875 -1.546875 -1.6875 -3.953125q0 -1.40625 0.640625 -2.5625q0.640625 -1.171875 1.671875 -1.875q1.046875 -0.703125 2.34375 -1.0625q0.953125 -0.265625 2.890625 -0.5q3.9375 -0.46875 5.796875 -1.109375q0.015625 -0.671875 0.015625 -0.859375q0 -1.984375 -0.921875 -2.796875q-1.25 -1.09375 -3.703125 -1.09375q-2.296875 0 -3.390625 0.796875q-1.09375 0.796875 -1.609375 2.84375l-3.1875 -0.4375q0.4375 -2.03125 1.421875 -3.28125q1.0 -1.265625 2.875 -1.9375q1.890625 -0.6875 4.359375 -0.6875q2.46875 0 4.0 0.578125q1.53125 0.578125 2.25 1.453125q0.734375 0.875 1.015625 2.21875q0.15625 0.828125 0.15625 3.0l0 4.328125q0 4.546875 0.203125 5.75q0.21875 1.1875 0.828125 2.296875l-3.390625 0q-0.5 -1.015625 -0.65625 -2.359375zm-0.265625 -7.265625q-1.765625 0.71875 -5.3125 1.21875q-2.0 0.296875 -2.84375 0.65625q-0.828125 0.359375 -1.28125 1.0625q-0.4375 0.6875 -0.4375 1.53125q0 1.3125 0.984375 2.1875q0.984375 0.859375 2.875 0.859375q1.875 0 3.34375 -0.828125q1.46875 -0.828125 2.15625 -2.25q0.515625 -1.09375 0.515625 -3.25l0 -1.1875zm15.619507 6.71875l0.46875 2.875q-1.375 0.28125 -2.46875 0.28125q-1.765625 0 -2.75 -0.5625q-0.96875 -0.5625 -1.375 -1.46875q-0.390625 -0.90625 -0.390625 -3.84375l0 -11.03125l-2.375 0l0 -2.53125l2.375 0l0 -4.75l3.234375 -1.953125l0 6.703125l3.28125 0l0 2.53125l-3.28125 0l0 11.21875q0 1.390625 0.171875 1.796875q0.171875 0.390625 0.5625 0.625q0.390625 0.234375 1.109375 0.234375q0.546875 0 1.4375 -0.125zm3.2771912 -19.84375l0 -3.734375l3.25 0l0 3.734375l-3.25 0zm0 22.75l0 -19.1875l3.25 0l0 19.1875l-3.25 0zm7.0743713 -9.59375q0 -5.328125 2.953125 -7.890625q2.484375 -2.140625 6.03125 -2.140625q3.96875 0 6.46875 2.59375q2.515625 2.59375 2.515625 7.171875q0 3.703125 -1.109375 5.828125q-1.109375 2.109375 -3.234375 3.296875q-2.125 1.171875 -4.640625 1.171875q-4.015625 0 -6.5 -2.578125q-2.484375 -2.59375 -2.484375 -7.453125zm3.34375 0q0 3.6875 1.59375 5.53125q1.609375 1.828125 4.046875 1.828125q2.421875 0 4.03125 -1.84375q1.609375 -1.84375 1.609375 -5.625q0 -3.5625 -1.625 -5.390625q-1.609375 -1.828125 -4.015625 -1.828125q-2.4375 0 -4.046875 1.828125q-1.59375 1.8125 -1.59375 5.5zm18.619507 9.59375l0 -19.1875l2.921875 0l0 2.734375q2.125 -3.171875 6.109375 -3.171875q1.734375 0 3.1875 0.625q1.453125 0.625 2.171875 1.640625q0.734375 1.015625 1.015625 2.40625q0.1875 0.890625 0.1875 3.15625l0 11.796875l-3.25 0l0 -11.671875q0 -1.984375 -0.390625 -2.96875q-0.375 -0.984375 -1.34375 -1.5625q-0.953125 -0.59375 -2.265625 -0.59375q-2.078125 0 -3.59375 1.3125q-1.5 1.3125 -1.5 5.0l0 10.484375l-3.25 0z" fill-rule="nonzero"></path><path fill="#000000" fill-opacity="0.0" d="m441.6365 225.28546l13.984253 0" fill-rule="evenodd"></path><path stroke="#595959" stroke-width="1.0" stroke-linejoin="round" stroke-linecap="butt" d="m441.63654 225.28545l7.984253 0" fill-rule="evenodd"></path><path fill="#595959" stroke="#595959" stroke-width="1.0" stroke-linecap="butt" d="m449.6208 226.93718l4.538086 -1.6517334l-4.538086 -1.6517181z" fill-rule="evenodd"></path><path fill="#000000" fill-opacity="0.0" d="m511.5864 225.28546l-13.984253 0" fill-rule="evenodd"></path><path stroke="#595959" stroke-width="1.0" stroke-linejoin="round" stroke-linecap="butt" d="m511.5864 225.28545l-7.984253 0" fill-rule="evenodd"></path><path fill="#595959" stroke="#595959" stroke-width="1.0" stroke-linecap="butt" d="m503.60214 223.63373l-4.538086 1.6517181l4.538086 1.6517334z" fill-rule="evenodd"></path><path fill="#cccccc" d="m456.10236 204.23097l41.007874 0l0 42.11023l-41.007874 0z" fill-rule="evenodd"></path></g></svg>

