<?xml version="1.0" encoding="UTF-8"?>
<svg width="1112px" height="468px" viewBox="0 0 1112 468" version="1.1" xmlns="http://www.w3.org/2000/svg" xmlns:xlink="http://www.w3.org/1999/xlink">
    <title>lens-graph</title>
    <g id="lens-graph" stroke="none" stroke-width="1" fill="none" fill-rule="evenodd">
        <circle id="Oval" fill="#F0F0F0" cx="554.5" cy="224.5" r="184.5"></circle>
        <ellipse id="Oval" fill="#E8BB54" cx="257" cy="224.5" rx="30" ry="30.5"></ellipse>
        <ellipse id="Oval" fill="#89B784" cx="644.5" cy="238.5" rx="21.5" ry="22.5"></ellipse>
        <ellipse id="Oval" fill="#7BC6C4" cx="557.5" cy="238.5" rx="21.5" ry="22.5"></ellipse>
        <circle id="Oval" stroke="#C2C2C2" fill="#E3E3E3" cx="488.5" cy="101.5" r="22.5"></circle>
        <ellipse id="Oval" stroke="#C2C2C2" fill="#E3E3E3" cx="593" cy="145.5" rx="22" ry="21.5"></ellipse>
        <ellipse id="Oval" stroke="#C2C2C2" fill="#E3E3E3" cx="587.5" cy="331.5" rx="22.5" ry="21.5"></ellipse>
        <ellipse id="Oval" fill="#E68686" cx="465.5" cy="238.5" rx="21.5" ry="22.5"></ellipse>
        <ellipse id="Oval" fill="#80A1C5" cx="853" cy="221" rx="31" ry="30"></ellipse>
        <line x1="286.951807" y1="225" x2="443.048193" y2="233" id="Line-8" stroke="#979797" stroke-width="3" stroke-linecap="square"></line>
        <line x1="666.95122" y1="240.045455" x2="821.04878" y2="220.954545" id="Line-8" stroke="#979797" stroke-width="3" stroke-linecap="square"></line>
        <line x1="578.41" y1="239.5" x2="623.06" y2="235" id="Line-14" stroke="#979797" stroke-width="3" stroke-linecap="square"></line>
        <line x1="487.442308" y1="237.25" x2="535.038462" y2="240.166667" id="Line-14" stroke="#979797" stroke-width="3" stroke-linecap="square"></line>
        <line x1="644.045455" y1="218.048387" x2="603.954545" y2="160.951613" id="Line-15" stroke="#C2C2C2" stroke-linecap="square"></line>
        <line x1="577" y1="131" x2="508.958333" y2="104.964286" id="Line-15" stroke="#C2C2C2" stroke-linecap="square"></line>
        <line x1="554.961538" y1="261.931034" x2="578.038462" y2="314.068966" id="Line-16" stroke="#C2C2C2" stroke-linecap="square"></line>
        <line x1="547.941176" y1="218.048387" x2="578.058824" y2="160.951613" id="Line-17" stroke="#C2C2C2" stroke-linecap="square"></line>
        <text id="Each-client-reads-an" font-family="Merriweather-Regular, Merriweather" font-size="24" font-weight="normal" fill="#404040">
            <tspan x="62" y="93">Each client reads and </tspan>
            <tspan x="62" y="124">writes a document in </tspan>
            <tspan x="62" y="155">its native local schema</tspan>
        </text>
        <text id="Each-edge-represents" font-family="Merriweather-Regular, Merriweather" font-size="24" font-weight="normal" fill="#404040">
            <tspan x="739" y="378">Each edge represents a </tspan>
            <tspan x="739" y="409">lens between two schemas</tspan>
        </text>
        <path id="Line-18" d="M181.470908,166.793492 L181.838708,167.1322 L219.836,202.124 L222.545778,199.181761 L226.1178,208.588708 L216.449029,205.802157 L219.158,202.859 L181.161292,167.8678 L180.793492,167.529092 L181.470908,166.793492 Z" fill="#979797" fill-rule="nonzero"></path>
        <path id="Line-18" d="M603.165574,240.128302 L612.530524,243.809024 L609.556,246.484 L727.246698,377.290574 L727.581124,377.662271 L726.837729,378.331124 L726.503302,377.959426 L608.813,247.153 L605.839967,249.828695 L603.165574,240.128302 Z" fill="#979797" fill-rule="nonzero"></path>
    </g>
</svg>